<?xml version="1.0" encoding="UTF-8"?>
<svg width="330px" height="380px" viewBox="0 0 330 380" version="1.1" xmlns="http://www.w3.org/2000/svg" xmlns:xlink="http://www.w3.org/1999/xlink">
    <!-- Generator: Sketch 59.1 (86144) - https://sketch.com -->
    <title>Artboard</title>
    <desc>Created with Sketch.</desc>
    <defs>
        <filter x="-5.8%" y="-52.9%" width="111.5%" height="205.9%" filterUnits="objectBoundingBox" id="filter-1">
            <feGaussianBlur stdDeviation="3" in="SourceGraphic"></feGaussianBlur>
        </filter>
    </defs>
    <g id="Artboard" stroke="none" stroke-width="1" fill="none" fill-rule="evenodd">
        <g id="whiskers" transform="translate(68.000000, 0.000000)">
            <ellipse id="Oval-Shadow" fill="#EBEBEB" filter="url(#filter-1)" cx="96" cy="356.5" rx="78" ry="8.5"></ellipse>
            <g id="Group" transform="translate(145.546644, 102.423776)" fill-rule="nonzero">
                <g transform="translate(30.032402, 0.070510)" fill="#C2B9A8" id="Path">
                    <path d="M25.9604564,77.2403703 C18.7492185,69.1637839 14.0378764,63.9075927 4.5831423,58.6514015 C4.19854295,58.4270519 3.87804349,57.8181029 3.84599354,57.3694037 C1.08969817,52.8183113 0.256399569,47.65827 0.128199785,43.6840766 L0.0961498385,42.9148779 L0.0961498385,42.9469279 L0.0961498385,42.4982286 L0.0961498385,42.5302786 C0.352549408,40.9918812 0.544849085,39.4214338 0.929448439,37.9150863 C2.14734639,33.2037442 4.07034316,29.1013511 5.38439096,24.422059 C6.50613907,20.3837658 7.69198708,15.2237244 10.5123823,11.6341305 C13.7814769,7.49968741 18.7492185,3.58959397 19.9991664,3.49344413 C22.5952121,2.82039526 23.5887604,4.07034316 24.0374596,5.0638915 C25.7040568,8.94193498 18.7812685,17.9159199 19.1979178,17.5954205 C24.1656594,13.7814769 31.5050971,4.42289257 37.4343371,2.56399569 C39.4855337,1.92299677 45.5429735,-0.705098816 47.3698205,0.352549408 C51.824763,2.88449516 53.2029107,6.18563961 55.0938575,11.6341305 C56.1835557,16.5698222 56.2156056,21.0888646 56.1515057,24.9669081 C56.0874058,29.2295509 53.4593102,42.6905283 49.7094665,51.4722136 C44.9019746,62.8499445 36.6971884,70.8303811 35.6074902,71.9200792 C33.0755445,74.4840749 29.5500504,76.5993714 25.9604564,77.2403703 Z"></path>
                </g>
                <g transform="translate(13.396878, 40.280372)" fill="#C2B9A8" id="Path">
                    <path d="M17.1467212,0.0640998924 C28.6526519,0.128199785 48.0428693,18.3005193 55.6707565,27.979603 C52.3375621,31.8255966 50.029966,33.9088431 43.5879268,38.8124848 C39.6137335,41.8251798 19.3581675,57.8501529 19.3581675,57.8501529 C16.4416224,56.1835557 10.4482825,51.5042635 8.46118579,47.3698205 C6.82663854,44.0045761 0,29.6462002 0,29.6462002 C0,29.6462002 4.51904241,25.9925064 6.63433886,24.1015595 C9.93548332,21.1209145 12.9802282,13.717377 14.7109253,9.93548332 C16.3775225,6.15358967 17.1467212,0.0640998924 17.1467212,0.0640998924 Z"></path>
                </g>
                <g transform="translate(65.784117, 1.852487)" fill="#FFF8DF" id="Path">
                    <path d="M0.224349623,17.88387 C3.49344413,14.6468254 4.10239311,10.2559828 5.70489042,6.34588934 C6.34588934,4.80749193 7.08303811,3.3331944 7.88428676,1.89094682 C8.20478622,1.34609774 8.78168525,0.961498385 9.61498385,0.128199785 C9.67908375,1.08969817 9.87138342,1.6665972 9.67908375,2.0832465 C7.59583724,6.92278837 5.4805408,11.7623302 3.26909451,16.5377722 C2.66014553,17.85182 1.89094682,18.0441197 0.224349623,17.88387 Z"></path>
                </g>
                <g transform="translate(76.525656, 6.986888)" fill="#FFF8DF" id="Path">
                    <path d="M0.256399569,16.5057223 C0.384599354,16.1211229 0.576899031,15.7365236 0.640998924,15.3519242 C1.18584801,10.8969817 1.63454726,6.40998924 2.24349623,1.95504672 C2.30759612,1.34609774 2.94859505,0.833298601 3.3331944,0.256399569 C3.58959397,0.769198708 4.10239311,1.31404779 4.10239311,1.82684693 C4.13444306,6.37793929 3.97419333,10.9290316 1.92299677,15.1916745 C1.69864715,15.6724237 1.34609774,16.1211229 1.05764822,16.6018721 C0.769198708,16.5698222 0.512799139,16.5377722 0.256399569,16.5057223 Z"></path>
                </g>
                <g transform="translate(0.310884, 46.602224)" fill="#004170" id="Path">
                    <path d="M29.3898006,0.224349623 C28.9411014,17.5954205 31.4730471,25.0630579 35.4151905,33.940893 C38.3958355,40.6713817 42.3379789,46.0557727 42.3379789,46.0557727 C19.5184172,65.9908392 1.73069709,56.2476555 0.384599354,48.7479681 C-0.833298601,42.7546282 8.30093606,14.4865757 29.3898006,0.224349623 Z"></path>
                </g>
                <g transform="translate(22.598417, 52.425699)" fill="#D34938" id="Path">
                    <path d="M14.6147755,41.0559811 C13.7494269,40.479082 12.8199785,40.2226825 12.0828297,39.2611841 C6.98688827,32.5947953 3.46139419,27.979603 0.833298601,16.8903216 C-0.256399569,7.94838665 0.0961498385,3.26909451 0.192299677,2.43579591 C0.320499462,1.50634747 0.801248654,0.929448439 1.12174812,0.224349623 C1.53839742,1.08969817 2.0832465,1.92299677 2.37169602,2.85244521 C2.82039526,7.17918794 3.26909451,16.4736723 4.6472422,20.3837658 C6.37793929,25.3515074 10.6405821,32.9793946 13.2045778,36.8253882 C13.8135268,37.7227867 14.294276,38.9727346 14.8391251,40.0303828 C14.7750252,40.3508822 14.7109253,40.7034316 14.6147755,41.0559811 Z"></path>
                </g>
            </g>
            <g id="Group" transform="translate(52.281300, 165.316956)" fill="#004170" fill-rule="nonzero">
                <g transform="translate(0.312487, 0.133007)" id="Path">
                    <path d="M9.2303845,13.9417266 C9.2303845,13.9417266 2.11529645,17.7877201 0.352549408,37.530487 C-1.12174812,54.2605589 6.98688827,64.3883419 11.0892814,81.9517124 C13.2045778,90.9897972 18.8453684,103.905926 18.8453684,103.905926 C18.8453684,103.905926 33.8767931,88.7783509 78.0736689,84.4195582 C111.021014,81.1504637 124.449941,87.3361033 124.449941,87.3361033 C124.449941,87.3361033 126.629337,88.0091522 126.629337,74.3879251 C126.629337,62.6576448 121.629546,43.6199767 120.187298,32.4665955 C117.847652,14.3583759 114.834957,0.160249731 114.834957,0.160249731 C114.834957,0.160249731 104.450775,12.6276788 83.8747091,17.3069709 C63.3306936,21.9862631 9.2303845,13.9417266 9.2303845,13.9417266 Z"></path>
                </g>
            </g>
            <g id="Group" transform="translate(70.870269, 244.480323)" fill="#012B54" fill-rule="nonzero">
                <g transform="translate(0.270822, 0.041665)" id="Path">
                    <path d="M105.957122,8.10863638 C105.957122,8.10863638 51.824763,-18.1402695 0.288449516,24.6464086 C0.288449516,24.6464086 66.3113386,34.3895922 105.957122,8.10863638 Z"></path>
                </g>
            </g>
            <g id="Group" transform="translate(23.115849, 241.892771)" fill="#C2B9A8" fill-rule="nonzero">
                <g transform="translate(0.003205, 0.160250)" id="Path">
                    <path d="M128.199785,1.28199785 C116.469504,33.331944 94.1306919,55.2541072 87.1117537,62.3050954 C84.0670088,66.0228891 78.4262183,72.8174777 97.4318364,82.6888611 C110.476164,89.4834497 118.296351,87.0797038 122.783344,87.4963531 C123.167943,87.528403 123.776892,87.6886527 123.905092,87.9771023 C125.475539,91.4384964 126.372938,94.9319406 125.31529,98.8099841 C123.584592,105.252023 119.0976,113.16836 107.07887,114.482408 C95.8293391,115.764406 71.47138,110.347965 61.0551475,88.6181012 C59.3244504,87.5925029 57.5617033,88.7783509 55.7989563,89.932149 C49.8376663,93.3294433 40.9277813,94.5793912 36.5369386,94.4511914 C28.588552,94.2588917 -7.85223681,86.8233042 1.73069709,52.2414123 C11.1533813,27.1463044 28.0757529,31.7935466 29.0372512,33.2678441 C32.4665955,37.7227867 19.678667,47.5621201 29.5180004,59.2603505 C38.2035358,69.5804332 52.4337119,66.5036383 60.766698,56.7604547 C65.3177903,51.4081137 65.9587892,49.0364177 66.6638881,46.5365219 C68.1702355,32.4665955 55.5105068,3.71779376 55.3182071,3.17294467 C63.5870932,1.92299677 67.8497361,0.224349623 81.8876125,2.11529645 C83.8747091,1.82684693 94.3229916,-0.801248654 104.194375,0.512799139 C115.636206,1.98709666 128.199785,1.28199785 128.199785,1.28199785 Z"></path>
                </g>
            </g>
            <g id="Group" transform="translate(27.923341, 168.842450)" fill-rule="nonzero">
                <g transform="translate(24.670446, 7.183995)" fill="#004170" id="Path">
                    <path d="M9.2303845,3.36524435 C9.2303845,3.36524435 2.11529645,7.21123789 0.352549408,26.9540047 C-1.12174812,43.6840766 6.98688827,53.8118596 11.0892814,71.3752301 C13.2045778,80.413315 18.8453684,93.3294433 18.8453684,93.3294433 C18.8453684,93.3294433 33.8767931,78.2018687 78.0736689,73.843076 C111.021014,70.5739815 124.449941,76.7596211 124.449941,76.7596211 C124.449941,76.7596211 126.629337,77.43267 126.629337,63.8114428 C126.629337,52.0811625 121.629546,33.0434945 120.187298,21.8901132 C117.847652,3.78189365 116.437454,0.160249731 116.437454,0.160249731 C116.437454,0.160249731 107.01477,5.8971901 86.4387048,10.5764822 C65.8946893,15.2557744 9.2303845,3.36524435 9.2303845,3.36524435 Z"></path>
                </g>
                <g transform="translate(48.943473, 0.831696)" fill="#FFFFFF" id="Path">
                    <path d="M17.242871,9.61498385 L0.256399569,4.87159182 C0.256399569,4.87159182 6.28178945,9.26243445 14.9352749,15.0955247 C15.8006235,15.6724237 25.8322566,24.3579591 37.530487,34.9023914 C49.6774166,45.831423 59.3885503,53.9080095 60.766698,53.7798097 C62.1768956,53.6516099 66.0549391,41.0239311 66.0549391,41.0239311 C66.0549391,41.0239311 71.1829305,26.825805 72.1444288,26.5694054 C73.0738773,26.3450558 88.746301,46.472422 89.8039492,45.3506738 C90.8615974,44.2289257 93.7781425,29.0372512 94.1947918,16.5057223 C94.5793912,4.71134209 93.5537929,1.98709666 92.880744,0.737148762 C92.2076952,-0.512799139 91.6307961,0.384599354 91.6307961,0.384599354 C90.9256973,1.28199785 83.8426592,13.8135268 65.2216405,15.0955247 C36.2805391,17.0826213 18.460769,8.20478622 17.242871,9.61498385 Z"></path>
                </g>
                <g transform="translate(0.070510, 0.105765)" fill="#FFFFFF" id="Path">
                    <path d="M75.4776233,12.3712792 C75.4776233,12.3712792 61.1833473,3.84599354 53.4913602,1.98709666 C46.3121722,0.256399569 35.4472405,-1.21789795 28.9411014,3.20499462 C23.5567104,6.85868848 19.1658678,13.0122781 14.7429752,18.9415182 C10.5764822,24.5182088 4.10239311,35.6395402 0.0640998924,41.2162308 C0.0640998924,41.2162308 4.93569171,43.3635772 11.9866799,44.4212254 C20.1594161,45.6391234 25.3194575,44.7417249 25.3194575,44.7417249 C25.3194575,44.7417249 24.6464086,31.6332969 26.6655552,25.1912577 C32.722995,5.76899031 38.4599354,7.53173735 45.9596228,6.89073843 C56.0233059,6.05743983 59.8051996,10.3200827 66.4395384,10.8008319 L75.4776233,12.3712792 Z"></path>
                </g>
                <g transform="translate(45.950008, 2.286764)" fill="#D34938" id="Path">
                    <path d="M94.5793912,1.47429752 C93.9383922,2.33964607 93.0409938,3.30114446 92.3999948,4.166493 C92.3999948,4.166493 92.880744,12.2110295 92.5922945,17.4992706 C92.4320448,20.8965649 91.726946,29.6462002 91.0218471,31.9858463 C90.2526484,34.517792 90.3808482,35.0946911 87.8489025,32.6909451 C84.3875083,29.3898006 80.5094648,23.3003109 78.7787677,20.7363152 C76.9198708,18.0120698 75.5737731,14.5506756 73.3943767,15.7044736 C70.7021813,17.1467212 68.9394342,25.2553576 67.4330868,29.3898006 C65.7344396,33.940893 62.1768956,43.7481765 62.1768956,43.7481765 C62.1768956,43.7481765 55.7669064,38.0432861 51.6965632,34.6139419 C47.62622,31.1845976 43.9725262,28.3321524 39.2611841,24.3579591 C38.8765847,24.0374596 33.9729429,19.3902174 27.0822045,14.294276 C21.6978136,10.3200827 14.262226,5.76899031 12.5635789,4.87159182 C9.83933348,3.42934424 1.31404779,0.224349623 1.31404779,0.224349623 C1.02559828,0.576899031 0.576899031,1.82684693 0.288449516,2.17939634 C0.384599354,2.30759612 8.8137352,5.64079053 11.2815811,6.92278837 C14.9673249,8.8137352 20.0953163,12.1789795 23.4926105,14.6788753 C28.5244521,18.3646192 33.7485933,23.0759612 34.9344413,24.0374596 C41.2162308,29.1334011 39.6457834,28.2360026 49.1646174,36.2805391 C55.382307,41.5367302 61.343597,47.017271 61.7602463,47.1775208 C61.8243462,47.2416207 63.1704439,48.0428693 63.3947935,47.0813709 C63.6191432,46.0557727 71.0867806,23.5567104 72.8174777,20.4478657 C74.3558751,17.4992706 76.6955212,21.6657636 79.195417,25.1592078 C80.7979143,27.402704 86.7271544,35.2869907 88.9386006,37.5945869 C91.5346463,40.2867823 92.2397451,39.1329843 92.6243445,37.3702372 C93.5858428,32.8191449 94.707591,24.422059 95.3165399,12.7879285 C95.4126898,10.4803324 94.8037408,2.56399569 94.5793912,1.47429752 Z"></path>
                </g>
                <g transform="translate(113.490462, 17.076211)" fill="#D34938" id="Path">
                    <path d="M3.46139419,0.448699247 C-0.288449516,1.28199785 -1.31404779,4.10239311 2.27554618,9.00603488 C3.7498437,11.6020805 6.63433886,11.6982304 6.89073843,14.0058265 C7.11508805,16.2493227 6.79458859,18.5248689 6.40998924,21.7939634 C6.37793929,24.0054097 4.42289257,30.1589994 4.00624327,35.1908409 C3.07679483,46.5044719 2.56399569,56.2476555 8.78168525,54.4528586 C9.93548332,54.1003091 10.8649318,48.4595186 11.4418308,43.8443264 C12.5956288,34.9664913 12.1789795,36.6330885 12.3392293,29.7423501 C12.531529,22.2426626 12.0507798,18.460769 10.8328818,13.5250773 C10.704682,13.0443281 10.3841826,12.499479 10.1598329,11.9546299 C10.736732,11.9546299 11.4418308,11.7302803 11.89053,12.0187298 C14.0378764,13.3007277 18.1082196,22.4349623 20.4158157,31.537147 C22.050363,37.9150863 28.556502,40.0944827 32.1140461,44.2930256 C32.4986454,44.7737748 33.331944,45.3186239 33.7485933,45.1904241 C34.2613925,45.0301744 34.8703414,44.2609757 34.9023914,43.6840766 C35.0946911,40.3188323 29.9987496,31.6973968 24.8387083,22.4670123 C20.255566,14.262226 12.2751294,8.04453649 12.2110295,8.17273628 C11.9866799,7.53173735 11.7623302,6.89073843 11.5059307,6.2497395 C11.2815811,5.60874058 9.55088396,-0.897398493 3.46139419,0.448699247 Z"></path>
                </g>
                <g transform="translate(3.972591, 1.852487)" fill="#D34938" id="Path">
                    <path d="M43.2994773,0.801248654 C38.9086347,0.0961498385 34.1652426,-0.192299677 29.9346497,1.34609774 C26.3130058,2.66014553 23.0439113,6.12153972 20.5119656,8.90988504 C17.4031208,12.3712792 14.8070751,16.3134226 12.0828297,20.0953163 C8.04453649,25.7361068 4.19854295,31.4730471 0.256399569,37.1458876 L0.288449516,37.1458876 C-0.0320499462,37.6586868 1.38777878e-17,38.3637856 0.640998924,38.716335 L0.640998924,38.716335 C0.737148762,38.7483849 0.801248654,38.7804349 0.897398493,38.8124848 L0.897398493,38.8124848 C7.24328784,40.3508822 13.7494269,41.3764805 20.2876159,40.6713817 C21.7298635,40.511132 21.7619135,38.2355858 20.2876159,38.3958355 C14.4865757,39.0368344 8.74963531,38.2676357 3.07679483,36.9856379 C8.74963531,28.7488017 14.1981262,20.3196659 20.4158157,12.499479 C22.8516116,9.42268418 25.7040568,6.7304887 28.8770015,4.42289257 C32.5627453,1.76274704 38.3637856,2.14734639 42.6264284,2.82039526 C44.1327759,3.07679483 44.7737748,1.02559828 43.2994773,0.801248654 Z"></path>
                </g>
            </g>
            <g id="Group" transform="translate(107.837724, 99.507488) rotate(-3.985198) translate(-107.837724, -99.507488) translate(6.337724, 7.007488)" fill-rule="nonzero">
                <g transform="translate(119.978976, 18.266144)" fill="#C2B9A8" id="Path">
                    <path d="M14.3906849,30.7044013 C16.1534637,28.3967636 27.4672984,13.3650682 20.2879812,8.49338866 C13.0766135,3.62170913 2.43583977,-3.10890075 0.641010465,1.69867773 C-1.15381884,6.50625622 3.1730018,7.27546877 3.42940599,14.7752912 C3.68581017,21.7623053 3.68581017,27.56345 0.737162034,26.7621869 L14.518887,32.1466748 C14.0060787,31.665917 14.0060787,31.2492602 14.3906849,30.7044013 Z"></path>
                </g>
                <g transform="translate(0.287899, 36.983649)" fill="#C2B9A8" id="Path">
                    <path d="M27.8519047,24.6468524 C27.8519047,24.6468524 8.30108552,-1.85893035 6.41010465,0.256404186 C4.51912378,2.3396882 -4.58322482,14.2304323 3.10890075,25.3840144 C10.8010263,36.5375965 21.9546084,35.0953229 21.9546084,35.0953229 C21.9546084,35.0953229 9.48695488,58.8127101 13.044563,81.9211374 C16.602171,105.029565 25.6404186,136.246774 88.6837978,146.086285 C151.727177,155.957846 170.636986,119.804856 175.765069,103.683443 C181.598265,85.3505434 179.386779,53.8128285 158.553938,31.665917 C139.323624,11.2176831 124.452182,8.36518656 120.830473,6.50625622 C117.208763,4.64732587 101.66426,-1.53842512 69.2611807,3.97426488 C36.8581017,9.5190054 27.8519047,24.6468524 27.8519047,24.6468524 Z"></path>
                </g>
                <g transform="translate(74.135510, 98.084767)" fill="#FFF8DF" id="Path">
                    <path d="M52.4026055,63.1715813 C63.5561876,58.5883565 80.0942576,42.9797517 78.2994283,23.8455893 C76.504599,4.74347744 50.4795741,-7.59597401 27.8839552,5.64089209 C5.28833633,18.8777582 -3.7178607,40.8323666 1.50637459,52.370555 C6.73060988,63.9087433 26.4416817,73.8444055 52.4026055,63.1715813 Z"></path>
                </g>
                <g transform="translate(4.393571, 121.029736)" fill="#5D2F10" id="Path">
                    <path d="M43.428459,12.9484114 C44.2297221,12.1471483 38.3965268,8.10878238 25.8327217,4.1345175 C13.2689166,0.160252616 0.256404186,-0.0961515697 0.192303139,0.576909418 C0.0961515697,1.24997041 11.7304915,2.66019343 24.5827513,7.1793172 C37.4670617,11.698441 41.9220844,14.454786 43.428459,12.9484114 Z"></path>
                </g>
                <g transform="translate(13.383743, 139.457185)" fill="#5D2F10" id="Path">
                    <path d="M32.8517863,6.73060988 C33.5568978,6.02549837 29.3582793,3.30120389 19.8713244,1.24997041 C10.3843695,-0.801263081 0.160252616,0.192303139 0.0320505232,0.737162034 C-0.0961515697,1.28202093 8.91004546,1.34612198 18.5893035,3.81401226 C28.2685615,6.28190255 31.5056643,8.07673185 32.8517863,6.73060988 Z"></path>
                </g>
                <g transform="translate(16.226625, 153.395957)" fill="#5D2F10" id="Path">
                    <path d="M29.9351887,1.15381884 C30.2556939,0.256404186 25.6724691,-0.448707325 16.9226763,1.57047564 C8.17288342,3.5896586 -0.0320505232,8.5574897 0.0641010465,9.07029807 C0.160252616,9.61515697 7.75622662,6.05754889 16.8265247,4.32682064 C25.9288733,2.59609238 29.3262288,2.88454709 29.9351887,1.15381884 Z"></path>
                </g>
                <g transform="translate(169.027494, 82.719746)" fill="#5D2F10" id="Path">
                    <path d="M0.448707325,22.114861 C-0.416656802,21.6982042 3.01274918,16.8906257 11.7304915,10.2241169 C20.4482338,3.55760808 30.6723507,-0.256404186 30.9287549,0.256404186 C31.1851591,0.769212558 22.4353663,5.12808372 13.5894219,12.3074009 C4.74347744,19.4867181 2.08328401,22.9161241 0.448707325,22.114861 Z"></path>
                </g>
                <g transform="translate(171.541858, 103.078238)" fill="#5D2F10" id="Path">
                    <path d="M0.384606279,10.0638643 C-0.256404186,9.45490435 3.62170913,6.28190255 12.4676535,3.1730018 C21.3135979,0.0641010465 30.8646539,-0.128202093 30.992856,0.384606279 C31.1210581,0.929465174 22.723821,2.01918296 13.6855734,5.54474052 C4.64732587,9.1023486 1.63457668,11.2497337 0.384606279,10.0638643 Z"></path>
                </g>
                <g transform="translate(175.437599, 118.531398)" fill="#5D2F10" id="Path">
                    <path d="M0.352555756,4.64732587 C-0.160252616,4.0063154 3.26915337,1.92303139 10.8330769,0.705111511 C18.3970003,-0.512808372 26.3455301,0.833313604 26.4096311,1.31407145 C26.4737322,1.7948293 19.4226171,1.3781725 11.698441,2.94864814 C3.97426488,4.51912378 1.31407145,5.86524575 0.352555756,4.64732587 Z"></path>
                </g>
                <g transform="translate(18.093568, 0.141573)" fill="#004170" id="Path">
                    <path d="M93.6516289,32.8197358 C94.8695488,30.2236434 97.5617927,22.9802252 98.6515105,20.8328401 C99.8694304,18.4290509 101.279653,16.1534637 102.465523,13.7496745 C103.907796,10.8010263 103.49114,8.01263081 101.023249,5.83319523 C99.4527736,4.45502273 97.6899948,3.10890075 95.7669634,2.37173872 C90.6068292,0.352555756 85.2223413,-0.128202093 79.7737523,0.705111511 C67.1137956,2.66019343 55.1589505,6.7626604 43.8130653,12.6599567 C31.1531086,19.2623645 19.2623645,27.3390963 8.01263081,36.1209397 C7.66007505,36.3773439 7.24341825,36.7298996 6.85881197,36.7298996 C4.90373005,36.7298996 3.5896586,37.8837185 2.88454709,39.3900931 C1.7948293,41.8579833 0.801263081,44.4540757 0.320505232,47.0822186 C-0.224353663,50.0629173 1.31407145,56.5050725 3.94221436,58.0755481 C6.15370046,59.3896196 8.62159075,60.2549837 10.9933295,61.3126509 C17.884192,60.767792 24.5827513,56.8255777 31.4095128,55.7679104 C52.8833633,52.4026055 75.7353864,50.5757257 96.5041255,44.0053684 C99.9014809,43.0118022 108.651274,39.9670025 110.189699,38.8131836 C111.824276,37.5311627 93.6516289,32.8197358 93.6516289,32.8197358 Z"></path>
                </g>
                <g transform="translate(22.099883, 5.112609)" fill="#FFFFFF" id="Path">
                    <path d="M5.73704366,49.4860079 C5.25628581,49.678311 4.74347744,50.0629173 4.26271959,50.0308668 C1.73072825,49.7424121 -0.352555756,47.3386228 0.160252616,44.838682 C0.673060988,42.2746401 2.08328401,37.0504049 2.91659761,34.5825146 C3.04479971,34.2299588 3.52555756,33.9415041 3.87811331,33.7171504 C10.9292284,29.646734 18.0444446,25.6724691 25.0635092,21.5059011 C35.4158282,15.3842512 45.8642987,8.07673185 57.3383861,4.23066907 C64.3895012,1.89098087 71.3124142,0.705111511 78.8122366,0.320505232 C82.6262489,0.128202093 86.4082106,0.192303139 90.0619703,1.53842512 C90.6388797,1.76277878 91.2157891,1.98713244 91.7285975,2.30763767 C94.8374982,4.10246697 95.190054,5.3844879 93.5875278,8.52543918 C91.9209006,11.7304915 90.2542734,14.9355438 88.5235452,18.2367477 C84.5172298,16.53807 75.9597401,16.7944742 71.9534247,17.3713836 C71.9534247,17.3713836 53.2038686,18.7175056 32.7556347,28.0442078 C26.6339848,30.8326033 12.8202093,38.5567794 7.53187296,42.7233475 C2.91659761,46.3771071 5.73704366,49.4860079 5.73704366,49.4860079 Z"></path>
                </g>
                <g transform="translate(23.771318, 33.329890)" fill="#004170" id="Path">
                    <path d="M0.160252616,25.0955597 C0.160252616,25.0955597 30.6403002,11.698441 47.9796333,7.75622662 C62.113914,4.5511743 80.1904091,-0.288454709 94.4849425,0.320505232 C104.228302,0.737162034 115.958793,3.46145651 114.933176,10.8971779 C114.099863,17.0508784 105.125716,17.9803435 100.830946,18.7816066 C81.6006322,22.114861 63.7484907,23.8135388 44.4220252,24.9994081 C33.7171504,25.8327217 22.3712652,28.0762584 10.3202685,28.5890667 C7.33956982,28.7172688 4.19861854,28.1724099 3.23710285,28.0442078 L0.160252616,25.0955597 Z"></path>
                </g>
                <g transform="translate(29.159011, 9.500326)" fill="#D49C25" id="Shape">
                    <path d="M82.2416426,20.8648906 C82.2095921,20.640537 83.0429057,19.0700613 82.9788046,18.8457077 C82.08139,18.8457077 81.4724301,18.4931519 76.1520432,18.3649498 C73.2674961,18.3008488 69.6137365,18.8457077 69.6137365,18.8457077 C69.5816859,18.1405961 69.7739891,18.1085456 69.5175849,17.4675352 L69.645787,17.4354846 C69.645787,17.4354846 72.0495762,16.9867773 76.4725484,16.7624237 C79.9019544,16.602171 83.491613,17.7239393 83.491613,17.7239393 L84.2287751,15.9932111 C83.7480172,15.6727059 80.3186112,14.5829881 76.1840937,14.5829881 C71.9213741,14.5829881 69.5175849,14.8714428 68.908625,15.0316954 C68.8445239,15.0637459 68.5240187,15.127847 68.0753113,15.2239985 C67.4663514,14.3906849 67.4022504,13.9419776 68.3317155,13.4612198 C69.8701406,12.6279062 68.7163218,14.2945334 70.2226964,12.9804619 C71.2803637,12.0509967 70.4149995,10.9933295 69.1009281,10.7048748 C68.0112103,10.4484706 67.0817451,10.6087232 66.0561284,12.435603 C64.7741075,14.7752912 66.6330378,14.2624828 67.1137956,17.3393331 C67.7227556,21.2174464 64.1651475,20.5123349 62.1780151,18.5893035 C61.1523983,17.5957373 60.6075394,15.6727059 59.8062764,13.5253208 C60.2229332,13.3650682 60.6716405,13.1407145 61.2485499,12.9163609 C63.6843897,11.8586936 64.133097,7.40367087 60.9921457,9.67925802 C60.1267816,10.288218 59.4857711,10.7689758 58.8447607,11.1215316 C58.5563059,10.4805211 58.2358007,9.83951063 57.9152955,9.23055069 C59.7421753,8.17288342 60.3831858,5.73704366 59.8383269,3.5896586 C59.1652659,0.99356622 56.0563651,-0.480757848 53.4602728,0.192303139 C50.8641804,0.865364127 49.1655026,4.32682064 49.8385636,6.92291302 C50.415473,9.03824755 53.107717,10.1920664 55.191001,10.2561674 C55.3512536,10.8651274 55.5115062,11.4099863 55.6397083,11.9868957 C54.6140916,12.0509967 53.3320707,12.0189462 51.5692919,11.9227946 C48.5244922,11.762542 51.8256961,15.0316954 54.7743442,14.7432407 C55.3833041,14.6791396 55.864062,14.6470891 56.2486683,14.6150386 C56.601224,16.4419184 56.601224,18.0123941 56.3127693,19.5187686 C55.7999609,22.2110126 52.0821003,25.5122165 50.7680288,21.4738506 C49.8065131,18.5252024 51.3128877,18.4290509 49.0373005,17.0508784 C47.2745218,15.9611606 45.3835409,15.8329585 44.5502273,16.5701205 C43.5566611,17.4675352 43.3002569,19.0700613 44.7104799,19.358516 C46.6655618,19.7751728 45.3835409,18.4611014 47.1142692,18.5893035 C47.7873301,18.6534045 47.7873301,19.0700613 47.7873301,19.8713244 C38.9093352,21.9546084 34.1658578,23.6853367 22.723821,28.236511 C16.9547268,30.5120981 5.35243738,37.7234658 0.256404186,41.5374781 C0.256404186,41.5374781 -0.160252616,43.7810147 1.18586936,43.5887116 C1.18586936,43.5887116 3.36530494,42.1143875 4.23066907,41.6015792 C8.84594441,39.0375373 15.0957964,34.3261104 23.4930335,30.8005528 C30.992856,27.627551 40.2234067,24.807105 48.1398859,22.723821 C48.3001385,23.4930335 48.5565427,24.2942966 48.941149,25.0314586 C42.5310443,26.5057827 34.4543125,29.4544309 26.4737322,32.2107758 C13.9099271,36.569647 1.44227355,45.6399451 1.44227355,45.6399451 C0.897414651,46.1207029 2.53199134,47.4668249 2.53199134,47.4668249 C2.756345,47.3706733 19.1662129,37.0183543 27.1147427,34.3261104 C33.749201,32.0505232 50.2552204,26.7301364 50.2552204,26.7301364 C50.5116246,26.9224395 50.7680288,27.0826921 51.0564835,27.1788437 C53.2679696,28.0121573 54.2294853,26.890389 55.9602136,24.5507008 C56.8896787,23.3007304 57.5947902,22.5635684 57.883245,22.1789621 C57.3704366,24.5507008 56.6332746,27.1788437 56.6332746,27.1788437 C56.6332746,27.1788437 57.947346,25.8647722 62.0177625,27.3070458 C62.2421161,27.3711468 64.4536022,24.9353071 64.4536022,24.9353071 C64.4536022,24.9353071 63.3318339,23.1725283 61.7613583,21.4418 C61.8575098,21.4738506 61.7934088,21.5059011 63.9407938,22.4674168 C66.6009873,23.6532861 67.7868566,23.8776398 69.2932312,22.0828105 C69.4214333,21.9546084 69.5816859,21.1533453 69.6778375,21.0251432 C69.6778375,21.0251432 71.9534247,20.4802843 75.7994874,20.4161833 C79.1327419,20.3841328 82.2416426,20.8648906 82.2416426,20.8648906 Z M52.1462013,5.9293468 C51.6654435,4.26271959 52.2744034,2.53199134 53.9730811,2.08328401 C55.6717589,1.63457668 57.1781334,2.30763767 57.6268408,4.0063154 C58.0755481,5.70499314 57.4024871,7.40367087 55.7038094,7.85237819 C54.0051316,8.26903499 52.6269591,7.49982244 52.1462013,5.9293468 Z"></path>
                </g>
            </g>
            <g id="Group" transform="translate(118.759972, 108.110190) rotate(-4.485278) translate(-118.759972, -108.110190) translate(85.749768, 78.465104)" fill="#5D2F10" fill-rule="nonzero">
                <g transform="translate(30.512005, 32.957324)" id="Path">
                    <path d="M11.5054983,8.8775015 C12.6272043,8.04423421 17.4986131,3.46126412 17.8511492,2.27546067 C18.2036854,1.12170597 15.9923222,-0.865316031 9.23003766,1.08965722 C2.46775312,3.04463048 0.0320487419,3.84584903 0.192292451,5.64057857 C0.352536161,7.43530812 6.05721222,6.66613831 7.98013673,6.85843076 C9.90306124,7.05072321 9.8710125,8.01218547 10.063305,8.4929166 C10.2555974,8.94159898 10.2876461,9.77486627 11.5054983,8.8775015 Z"></path>
                </g>
                <g transform="translate(32.545497, 45.427489)" id="Path">
                    <path d="M9.99920747,0.576877354 C5.35213989,2.30750942 1.57038835,7.24301566 0.128194968,11.9541807 C-0.288438677,13.3002279 0.51277987,14.1334952 1.28194968,12.9476917 C3.33306916,9.71076879 4.99960373,7.17891818 7.43530812,5.03165248 C8.36472163,4.19838519 9.39028137,3.49331286 10.4478899,2.85233803 C12.659253,1.50629087 12.2746681,3.71765406 12.0503269,5.15984744 C11.8580345,6.56999209 13.5886666,6.31360215 13.780959,4.90345751 C13.780959,4.93550625 15.3513474,-1.3780959 9.99920747,0.576877354 Z"></path>
                </g>
                <g transform="translate(0.283631, 13.777754)" id="Path">
                    <path d="M12.4669606,10.6081336 C13.5566178,12.3067169 16.2166634,10.3196949 14.9667625,8.74930653 C11.6977908,4.64706757 7.01867447,0.51277987 1.57038835,0.0320487419 C-0.416633644,-0.160243709 -0.544828612,1.57038835 1.50629087,2.17931445 C1.50629087,2.14726571 9.55052508,5.99311473 12.4669606,10.6081336 Z"></path>
                </g>
                <g transform="translate(5.086135, 0.027241)" id="Path">
                    <path d="M12.6272043,20.3189024 C11.665742,12.8835942 6.44179712,6.34565089 2.33955816,0.865316031 C1.15375471,-0.737121063 -0.416633644,0.128194968 0.480731128,1.92292451 C3.62150783,8.07628295 7.62760057,12.915643 10.3837924,20.5752923 C11.0888647,22.4661681 12.8835942,22.3059243 12.6272043,20.3189024 Z"></path>
                </g>
                <g transform="translate(49.494475, 2.636009)" id="Path">
                    <path d="M14.1655439,3.46126412 C15.8320785,4.5188726 16.9537845,3.65355657 15.5756886,2.17931445 C10.063305,-3.71765406 1.05760848,4.48682386 0.256389935,10.6081336 C4.69069228e-15,12.5951556 1.60243709,13.2361304 2.46775312,11.1850109 C2.46775312,11.1850109 8.65316031,1.11022302e-16 14.1655439,3.46126412 Z"></path>
                </g>
            </g>
            <g id="Group" transform="translate(143.088285, 99.104636) rotate(-3.985198) translate(-143.088285, -99.104636) translate(139.402474, 94.617562)" fill-rule="nonzero">
                <g transform="translate(0.092947, 0.068909)" fill="#5D2F10" id="Path">
                    <path d="M0.480757848,2.40378924 C-1.7948293,10.2241169 6.95496354,10.3202685 6.73060988,4.61527535 C6.53830674,-1.12176831 1.3781725,-0.608959941 0.480757848,2.40378924 Z"></path>
                </g>
                <g transform="translate(2.533594, 0.679471)" fill="#FFFFFF" id="Path">
                    <path d="M3.20505232,1.89098087 C3.10890075,2.72429447 2.72429447,3.07685023 2.27558715,3.36530494 C0.99356622,4.19861854 0.512808372,3.20505232 0.448707325,3.07685023 C0.0961515697,2.59609238 -0.0320505232,1.63457668 0.288454709,1.08971779 C0.99356622,-0.0961515697 2.2114861,0.0641010465 2.59609238,0.288454709 C2.98069866,0.512808372 3.33325442,1.05766727 3.20505232,1.89098087 Z"></path>
                </g>
            </g>
            <g id="Group" transform="translate(146.508142, 67.489335)" fill-rule="nonzero">
                <g transform="translate(0.197107, 0.192300)" fill="#DB9E14" id="Path">
                    <path d="M90.509048,9.45473412 C89.8359991,6.95483832 89.0027005,3.97419333 87.1758536,2.0832465 C85.3490067,0.192299677 82.5286114,0.0961498385 80.0607656,0.352549408 C75.1571238,0.865348547 70.2214321,2.9165451 65.5421399,4.32674273 C59.5167501,6.12153972 53.4913602,7.94838665 47.4339203,9.74318364 C39.0368344,12.2110295 30.7038484,14.8391251 22.4029124,17.6915703 C16.4736723,19.7107169 10.5764822,21.7619135 4.67929214,23.8772099 C-0.801248654,25.8322566 -0.897398493,32.755045 1.50634747,37.2099875 C1.57044736,37.3381873 1.6665972,37.4663871 1.76274704,37.5625369 C1.95504672,37.8189365 2.24349623,38.0112362 2.62809559,38.0753361 C13.8455767,40.3508822 25.031008,42.6264284 36.2164392,44.9660745 C44.6135251,46.7288215 52.978561,48.4595186 61.343597,50.2543156 C64.7408913,50.9914644 68.1381856,51.7286131 71.5034299,52.4978118 C73.4584766,52.9465111 75.7019729,53.9400594 77.6890695,53.9080095 C81.1825137,53.8759595 84.1952086,50.7350648 86.1502553,48.2031191 C90.2846984,42.7866781 91.9833455,35.8318398 92.5281946,29.165451 C93.0409938,22.5631621 92.271795,15.8326734 90.509048,9.45473412 Z"></path>
                </g>
                <g transform="translate(11.973860, 18.518459)" fill="#93741D" id="Path">
                    <path d="M5.86514015,11.0892814 C6.12153972,6.57023897 7.33943767,2.21144629 7.94838665,0.288449516 C5.99333994,0.961498385 4.03829322,1.63454726 2.11529645,2.30759612 C0.544849085,5.22414123 -1.05764822,12.2110295 1.31404779,21.8901132 C3.14089473,22.2747126 4.9997916,22.627262 6.82663854,23.0118614 C6.50613907,21.5055139 5.57669064,16.3454726 5.86514015,11.0892814 Z"></path>
                </g>
                <g transform="translate(32.846387, 10.078106)" fill="#93741D" id="Path">
                    <path d="M13.4289274,37.1458876 C13.3007277,35.1908409 11.2174812,28.7808517 10.6405821,19.8068667 C10.2559828,13.7494269 12.0828297,5.0638915 13.5250773,0.224349623 C10.095733,1.2499479 6.69843875,2.27554618 3.30114446,3.36524435 C0.640998924,9.42268418 -2.17939634,20.4478657 2.98064499,34.9664913 L3.55754403,35.0946911 L13.4289274,37.1458876 Z"></path>
                </g>
                <g transform="translate(59.835647, 6.172820)" fill="#93741D" id="Path">
                    <path d="M7.5637873,3.23704456 C3.62164392,8.55733563 2.82039526,11.9866799 1.18584801,18.3966691 C-0.576899031,25.4156073 0.160249731,33.1396443 1.85889688,40.0944827 C2.27554618,41.8892797 5.16004133,41.5367302 4.71134209,39.7419333 C3.23704456,33.5883436 2.4998958,26.9219548 3.65369386,20.6401653 C4.87159182,14.1019763 8.87783509,6.21768956 12.8199785,0.865348547 C13.9096766,-0.640998924 9.83933348,0.0961498385 8.71758536,1.60249731 L7.5637873,3.23704456 Z"></path>
                </g>
                <g transform="translate(82.637581, 6.216087)" fill="#93741D" id="Path">
                    <path d="M0.801248654,41.3444306 C0.801248654,41.3444306 12.531529,30.7358984 2.88449516,0.993548332 C2.30759612,-0.769198708 -0.448699247,1.21789795 0.160249731,2.98064499 C0.128199785,2.98064499 8.58938558,28.2680525 0.801248654,41.3444306 Z"></path>
                </g>
                <g transform="translate(74.780537, 9.586139)" fill="#B8DFF5" id="Path">
                    <path d="M5.67284047,37.8830364 C9.42268418,35.4792904 11.1854312,31.0243479 12.4033292,25.2553576 C13.7814769,19.2940676 11.6982304,2.88449516 8.14068633,0.128199785 C8.14068633,0.128199785 5.64079053,2.27554618 3.87804349,6.3138394 C1.21789795,12.3712792 0.288449516,15.480124 0.320499462,22.050363 C0.192299677,27.1142545 0.576899031,31.9537963 3.07679483,35.8959397 L5.67284047,37.8830364 Z"></path>
                </g>
            </g>
            <g id="Group" transform="translate(56.768293, 104.026274)" fill-rule="nonzero">
                <g transform="translate(99.707383, 1.290010)" fill="#FFF8DF" id="Path">
                    <path d="M8.58938558,8.58938558 C7.9804366,9.00603488 7.33943767,9.32653434 6.69843875,9.6470338 C8.3970859,7.65993714 11.3777309,2.33964607 8.52528568,0.288449516 C6.18563961,-1.37814769 3.68574381,9.93548332 0.801248654,13.2045778 C-0.192299677,14.3263259 -0.0961498385,15.7044736 1.31404779,15.4480741 C4.13444306,14.9352749 6.82663854,12.8199785 9.42268418,11.5700306 C12.3071793,10.1598329 20.5440155,5.86514015 19.3581675,4.67929214 C18.5569188,3.87804349 10.9931315,6.95483832 8.58938558,8.58938558 Z"></path>
                </g>
                <g transform="translate(103.109484, 10.046056)" fill="#FFF8DF" id="Path">
                    <path d="M31.2166476,31.6332969 C27.2424543,40.2867823 22.2106127,48.8761679 15.6724237,55.8951061 C9.80728353,62.1448456 0.0640998924,68.7150846 0.0640998924,68.7150846 C1.63454726,69.1958338 12.9161283,62.1768956 18.8774183,55.4464069 C25.2553576,48.2672189 29.9666997,39.1970842 33.9729429,30.5435987 C37.8830364,22.1465128 40.8636814,8.46118579 35.5754403,0.288416799 C35.5754403,0.256399569 34.8062416,23.7810601 31.2166476,31.6332969 Z"></path>
                </g>
                <g transform="translate(71.862389, 0.253195)" fill="#C2B9A8" id="Path">
                    <path d="M18.9415182,82.0478622 C13.5571272,71.1829305 10.0636831,64.1319423 1.50634747,55.7348564 C1.15379806,55.382307 0.993548332,54.6131083 1.08969817,54.1003091 C-0.576899031,48.3633688 0.0320499462,42.5302786 0.993548332,38.139436 L1.18584801,37.3061374 L1.18584801,37.3381873 L1.34609774,36.8574381 L1.31404779,36.8574381 C2.01914661,35.2549408 2.66014553,33.6203935 3.49344413,32.0819961 C6.08948977,27.3065541 9.32653434,23.3964607 12.0507798,18.6851186 C14.3904258,14.6147755 17.0826213,9.35858428 21.1209145,6.2497395 C25.7361068,2.69219548 32.146096,-0.128199785 33.4921938,0.128199785 C36.4407888,0.160249731 37.1458876,1.76274704 37.3381873,2.98064499 C38.0112362,7.65993714 28.1398527,15.4480741 28.6526519,15.2237244 C34.9985412,12.4674291 45.4468237,4.42289257 52.2734622,4.10239311 C54.6131083,3.97419333 61.7922962,2.88449516 63.4588934,4.55109236 C67.4651367,8.58938558 68.0099858,12.531529 68.490735,19.0056181 C68.2663854,24.6784586 67.0164375,29.6141503 65.8626394,33.8126932 C64.5806416,38.4278855 58.0104026,52.3055122 51.5363135,60.7987479 C43.2033274,71.7598295 32.2422459,78.1057188 30.7999983,79.0031173 C27.2745042,81.0863638 22.9157115,82.4004116 18.9415182,82.0478622 Z"></path>
                </g>
                <g transform="translate(41.302766, 34.567469)" fill="#C2B9A8" id="Path">
                    <path d="M32.9152947,0.288449516 C45.1263242,3.62164392 60.5743983,28.9411014 65.9267393,41.66493 C61.311547,44.8699247 58.2668022,46.472422 50.0620159,49.9658661 C44.9981244,52.1132125 16.5057223,64.0678424 16.5057223,64.0678424 C13.9096766,61.4397468 6.98688827,55.0938575 5.51259074,50.1581658 C3.62164392,43.8763763 0,28.4283023 0,28.4283023 C0,28.4283023 12.1789795,24.8387083 14.9673249,23.3644108 C19.3261175,21.0568146 24.6464086,13.8776267 27.5629537,10.2880327 C30.383349,6.66638881 32.9152947,0.288449516 32.9152947,0.288449516 Z"></path>
                </g>
                <g transform="translate(117.594458, 5.853923)" fill="#FFF8DF" id="Path">
                    <path d="M0.128199785,16.7300719 C4.51904241,14.1660762 6.40998924,9.55088396 9.2303845,5.76899031 C10.3200827,4.29469279 11.5379806,2.88449516 12.8199785,1.57044736 C13.3007277,1.05764822 14.0378764,0.801248654 15.1596245,0.128199785 C14.9352749,1.18584801 14.9993748,1.89094682 14.6788753,2.27554618 C11.0892814,6.92278837 7.49968741,11.6020805 3.78189365,16.1531729 C2.72424543,17.4031208 1.85889688,17.4031208 0.128199785,16.7300719 Z"></path>
                </g>
                <g transform="translate(127.834415, 12.778314)" fill="#FFF8DF" id="Path">
                    <path d="M0.256399569,16.9864715 C0.512799139,16.6018721 0.833298601,16.2493227 0.993548332,15.8326734 C2.82039526,11.1213313 4.5831423,6.40998924 6.47408913,1.73069709 C6.7304887,1.12174812 7.53173735,0.705098816 8.10863638,0.192299677 C8.23683617,0.833298601 8.62143552,1.53839742 8.46118579,2.11529645 C7.21123789,7.08303811 5.73694037,11.9866799 2.37169602,16.0249731 C1.98709666,16.5057223 1.50634747,16.8903216 1.05764822,17.3069709 L0.256399569,16.9864715 Z"></path>
                </g>
                <g transform="translate(4.652050, 62.224971)" fill="#2C4990" id="Path">
                    <path d="M60.0615991,38.0112362 C60.0615991,38.0112362 48.0749193,31.0243479 42.7546282,18.7492185 C39.0047845,10.127783 35.5433903,0 35.5433903,0 C4.96774166,4.9997916 -0.608948977,18.7812685 0.256399569,32.0819961 C1.50634747,52.0170626 44.7417249,55.3502571 60.0615991,38.0112362 Z"></path>
                </g>
                <g transform="translate(0.083330, 58.851714)" fill="#004170" id="Path">
                    <path d="M64.6126915,41.3764805 C64.6126915,41.3764805 53.3311104,31.6332969 47.62622,19.2620177 C43.5879268,10.5764822 41.6328801,0.0961498385 41.6328801,0.0961498385 C9.74318364,4.71134209 -0.67304887,19.1979178 0.384599354,32.5627453 C1.95504672,52.5619117 43.7481765,57.177104 64.6126915,41.3764805 Z"></path>
                </g>
                <g transform="translate(37.610612, 60.976625)" fill="#D34938" id="Path">
                    <path d="M0.448699247,0.0640998924 C0.4166493,1.15379806 0.0961498385,2.01914661 0.384599354,3.30114446 C2.33964607,12.1469296 3.65369386,18.2364194 9.93548332,28.6206019 C15.5442239,36.2484891 18.9094682,39.5816835 19.5504672,40.1585826 C20.255566,40.7675315 20.8965649,40.8636814 21.5696138,41.1841808 C21.1850144,40.2226825 20.8965649,39.1970842 20.4158157,38.2676357 C17.6595203,34.6459918 11.5059307,27.2104043 9.51883402,23.204161 C6.98688827,18.1402695 3.94214338,9.19833455 2.66014553,4.39084263 C2.33964607,3.23704456 1.76274704,1.95504672 1.28199785,0.737148762 C0.993548332,0.480749193 0.737148762,0.288449516 0.448699247,0.0640998924 Z"></path>
                </g>
            </g>
        </g>
    </g>
</svg>