<?xml version="1.0" encoding="UTF-8"?>
<svg width="330px" height="380px" viewBox="0 0 330 380" version="1.1" xmlns="http://www.w3.org/2000/svg" xmlns:xlink="http://www.w3.org/1999/xlink">
    <!-- Generator: Sketch 59.1 (86144) - https://sketch.com -->
    <title>Artboard</title>
    <desc>Created with Sketch.</desc>
    <defs>
        <filter x="-4.6%" y="-52.9%" width="109.2%" height="205.9%" filterUnits="objectBoundingBox" id="filter-1">
            <feGaussianBlur stdDeviation="3" in="SourceGraphic"></feGaussianBlur>
        </filter>
    </defs>
    <g id="Artboard" stroke="none" stroke-width="1" fill="none" fill-rule="evenodd">
        <g id="Redd" transform="translate(0.000000, 22.000000)">
            <ellipse id="Oval-Shadow" fill="#EBEBEB" filter="url(#filter-1)" cx="178" cy="313.5" rx="98" ry="8.5"></ellipse>
            <g id="Group" transform="translate(73.822321, 214.386698) rotate(3.386700) translate(-73.822321, -214.386698) translate(3.322321, 172.386698)" fill-rule="nonzero">
                <g transform="translate(0.100882, 0.160223)" fill="#CD2C0B" id="Path">
                    <path d="M107.459572,26.0178938 C107.459572,26.0178938 94.2977506,12.5793251 72.6821219,5.94596516 C44.7089554,-2.6121003 27.8357063,-0.893613261 17.319995,4.77739397 C6.80428375,10.4484012 1.99317403,9.65789717 0.412380834,13.0605015 C-1.16841236,16.4974756 11.1686476,37.1880596 26.2892781,54.7166274 C67.7335519,102.868634 139.419087,73.4481361 139.419087,73.4481361 L107.459572,26.0178938 Z"></path>
                </g>
                <g transform="translate(54.366763, 53.111964)" fill="#2D1610" id="Path">
                    <path d="M0.0343650695,0.549915853 C0.343650695,0.996722484 0.515476042,1.61537782 0.962221945,1.92470549 C2.71484049,3.09327667 4.46745903,4.2962176 6.35753785,5.29294009 C8.14452146,6.18655335 10.1033304,6.87394816 12.0277743,7.59571272 C12.6119805,7.80193117 13.4023771,7.87067065 13.9865833,7.73319168 C14.4676942,7.63008246 15.0519004,7.14890609 15.1206306,6.7364692 C15.1893607,6.32403231 14.7426148,5.63663749 14.330234,5.39604931 C13.0243613,4.70865449 11.6497585,4.1243689 10.2751558,3.60882279 C7.04483924,2.4402516 3.78015764,1.34041989 0.515476042,0.240588186 L0.0343650695,0.549915853 Z"></path>
                </g>
                <g transform="translate(26.977803, 47.253642)" fill="#2D1610" id="Path">
                    <path d="M12.886901,10.9295776 C14.2615038,9.65789717 5.25785563,2.02781471 0.240555486,0 C0.996587014,2.4402516 1.82134868,3.40260434 4.43309396,6.25529283 C6.70118855,8.38621676 11.4779332,12.2699975 12.886901,10.9295776 Z"></path>
                </g>
                <g transform="translate(40.691184, 4.862003)" fill="#2D1610" id="Path">
                    <path d="M16.838884,2.4402516 C17.1825347,0.618655335 5.32658577,-0.343697408 0.0687301389,0.85924352 C2.13063431,2.40588186 3.40214188,2.71520952 7.21666459,3.50571356 C10.3095208,3.95252019 16.4952333,4.33058734 16.838884,2.4402516 Z"></path>
                </g>
                <g transform="translate(64.619581, 23.552269)" fill="#2D1610" id="Path">
                    <path d="M0.0687301389,1.34041989 C0.790396598,1.71848704 1.47769799,2.16529367 2.23372952,2.50899108 C5.97952209,4.22747812 9.69094959,5.9803349 13.5054723,7.59571272 C14.2615038,7.90504039 15.4642813,7.83630091 16.1515826,7.45823376 C16.5295984,7.21764557 15.7392018,5.91159542 14.84571,5.15546112 C13.1961867,3.81504123 6.01388716,1.06546197 2.71484049,0.41243689 C1.89007882,0.240588186 1.09968222,0.41243689 0.206190417,0.653025075 L0.0687301389,1.34041989 Z"></path>
                </g>
                <g transform="translate(72.417016, 75.180775)" fill="#2D1610" id="Path">
                    <path d="M0.61857125,0.240588186 C1.44333292,0.309327667 2.26809458,0.309327667 3.05849118,0.41243689 C7.14793445,0.962352743 11.2717428,1.44352911 15.326821,2.13092393 C16.1515826,2.26840289 17.1138046,2.95579771 17.4574553,3.67756227 C17.6292806,4.05562942 16.2546779,4.74302423 15.0862655,4.91487294 C12.9899963,5.15546112 5.39531591,3.67756227 2.26809458,2.4402516 C1.51206306,2.13092393 0.893491806,1.54663834 0.274920556,0.893613261 L0.61857125,0.240588186 Z"></path>
                </g>
                <g transform="translate(68.413485, 17.396648)" fill="#2D1610" id="Path">
                    <path d="M0.137460278,0.756134298 C3.29904667,2.40588186 6.15134743,3.88378071 9.0036482,5.32730983 C10.412616,6.04907438 11.855949,6.66772972 13.2992819,7.28638505 C14.4333292,7.80193117 15.4986463,8.4205865 15.9453922,7.14890609 C16.4265032,5.77411646 13.2305517,4.39932682 7.86960091,2.13092393 C6.56372827,1.54663834 1.2371425,-0.996722484 0.137460278,0.756134298 Z"></path>
                </g>
                <g transform="translate(34.807884, 17.870950)" fill="#2D1610" id="Path">
                    <path d="M2.16499938,0.103109222 C1.5807932,0.0343697408 0.927856875,0.85924352 0.309285625,1.23731067 C0.927856875,1.64974756 1.51206306,2.16529367 2.16499938,2.47462134 C3.57396722,3.09327667 5.05166521,3.64319253 6.49499813,4.19310838 C8.93491806,5.0523519 11.374838,5.9803349 13.849123,6.66772972 C14.6051545,6.87394816 15.9797573,7.42386402 16.4608683,6.08344412 C16.9419792,4.77739397 5.46404604,0.41243689 2.16499938,0.103109222 Z"></path>
                </g>
                <g transform="translate(10.242014, 20.197782)" fill="#2D1610" id="Path">
                    <path d="M15.6017415,8.62680494 C16.3921381,6.59899024 3.16158639,1.34041989 0.412380834,0.240588186 L0.206190417,0.82487378 C4.26126861,6.70209946 15.0862655,9.9328551 15.6017415,8.62680494 Z"></path>
                </g>
                <g transform="translate(30.379944, 34.088313)" fill="#2D1610" id="Path">
                    <path d="M0.206190417,0.206218445 C0.927856875,1.16857119 1.30587264,2.23403315 1.95880896,2.47462134 C5.42968098,4.15873864 16.323408,10.345292 17.0450745,8.28310754 C17.7667409,6.22092309 5.53277618,-0.137478963 0.206190417,0.206218445 Z"></path>
                </g>
                <g transform="translate(71.104270, 10.679082)" fill="#2D1610" id="Path">
                    <path d="M0.206190417,0.206218445 C0.927856875,1.16857119 1.30587264,2.23403315 1.95880896,2.47462134 C5.42968098,4.15873864 16.323408,10.345292 17.0450745,8.28310754 C17.7667409,6.22092309 5.53277618,-0.137478963 0.206190417,0.206218445 Z"></path>
                </g>
                <g transform="translate(49.194820, 65.912974)" fill="#2D1610" id="Path">
                    <path d="M15.2924559,10.0015946 L15.7735669,7.28638505 C14.3989641,6.5646205 13.0587264,5.77411646 11.6497585,5.12109138 C8.04142625,3.43697408 4.39872889,1.82159626 0.790396598,0.171848704 L0.171825347,0.653025075 C0.824761667,1.64974756 1.27150757,2.99016745 2.19936445,3.5400833 C5.7389666,5.73974672 9.4503941,7.69882194 13.1274565,9.65789717 C13.7116627,10.0015946 14.5364244,9.89848535 15.2924559,10.0015946 Z"></path>
                </g>
                <g transform="translate(62.923665, 31.015658)" fill="#2D1610" id="Path">
                    <path d="M0.412380834,0.446806631 C0.206190417,0.893613261 0,1.61537782 1.54642813,2.26840289 C4.77674466,4.1243689 8.2132516,5.53352827 11.5810284,7.11453635 C12.5088853,7.52697324 14.5020593,7.93941013 14.8113449,7.21764557 C15.9110272,4.60554527 0.927856875,-1.16857119 0.412380834,0.446806631 Z"></path>
                </g>
                <g transform="translate(89.761066, 33.504027)" fill="#2D1610" id="Path">
                    <path d="M0.206190417,0.893613261 C0.824761667,1.40915937 1.40896785,1.95907523 2.06190417,2.47462134 C5.32658577,4.94924268 8.5569023,7.4926035 11.855949,9.89848535 C12.5088853,10.3796617 13.6429326,10.6546197 14.364599,10.5171407 C14.7426148,10.4484012 14.9831703,9.10798132 14.6395196,8.5924352 C13.9178531,7.42386402 13.0243613,6.11781387 11.855949,5.36167957 C9.0036482,3.57445304 6.01388716,2.06218445 2.98976104,0.549915853 C2.26809458,0.206218445 1.27150757,0.378067149 0.378015764,0.343697408 L0.206190417,0.893613261 Z"></path>
                </g>
                <g transform="translate(95.628902, 24.738025)" fill="#2D1610" id="Path">
                    <path d="M0.240555486,0.618655335 C2.68047542,3.16201616 4.84547479,5.49915853 7.04483924,7.76756142 C8.14452146,8.90176287 9.27856875,9.96722484 10.412616,11.0670565 C11.3061079,11.9263001 12.4745202,12.5793251 13.1618216,11.6857119 C13.5742024,11.135796 13.4711072,9.55478795 12.9212661,9.03924183 C10.3438859,6.53025075 7.62904542,4.15873864 4.81110972,1.92470549 C3.7114275,1.06546197 2.33682472,-0.343697408 0.240555486,0.618655335 Z"></path>
                </g>
                <g transform="translate(85.216286, 42.469374)" fill="#2D1610" id="Path">
                    <path d="M6.49499813,1.855966 C5.08603028,1.23731067 3.74579257,0.515546112 2.26809458,0.103109222 C1.64952333,-0.103109222 0.824761667,0.343697408 0.0687301389,0.481176371 C0.378015764,1.13420145 0.515476042,2.02781471 1.06531715,2.40588186 C4.1581734,4.50243605 7.25102966,6.5646205 10.5157113,8.38621676 C11.4092031,8.86739313 13.368012,8.90176287 13.9178531,8.31747728 C15.0862655,7.04579687 13.849123,5.8084862 12.6807106,5.08672164 C10.7219017,3.84941097 6.5293632,1.78722652 6.49499813,1.855966 Z"></path>
                </g>
                <g transform="translate(28.055148, 41.412504)" fill="#2D1610" id="Path">
                    <path d="M0.206190417,0.378067149 C3.2646816,3.81504123 9.0036482,7.01142713 11.9246791,8.17999831 C12.6119805,8.55806546 13.6429326,8.66117469 14.4676942,8.66117469 C14.9488052,8.66117469 15.5673765,8.31747728 15.6361066,8.00814961 C15.7392018,7.6644522 15.326821,7.08016661 14.9831703,6.9083179 C11.0311873,3.81504123 4.98293507,1.58100808 0.721666459,0.137478963 L0.206190417,0.378067149 Z"></path>
                </g>
                <g transform="translate(56.674377, 44.380331)" fill="#2D1610" id="Path">
                    <path d="M0.0687301389,0.721764557 C0.446745903,1.34041989 1.06531715,2.68083978 1.61515826,2.99016745 C4.91420493,4.91487294 8.24761667,6.7364692 11.6153935,8.52369572 C12.0965045,8.79865365 12.8181709,8.83302339 13.368012,8.69554443 C14.0553134,8.52369572 15.1549956,8.04251935 15.1549956,7.73319168 C15.1206306,7.04579687 14.7082497,6.01470464 14.1240435,5.73974672 C11.7528538,4.57117553 9.27856875,3.64319253 6.83864882,2.64647004 C4.94857,1.82159626 0.721666459,-0.687394816 0.0687301389,0.721764557 Z"></path>
                </g>
                <g transform="translate(60.287864, 37.917102)" fill="#2D1610" id="Path">
                    <path d="M0.0687301389,0.41243689 C-0.549841111,2.85268849 7.3197598,5.67100723 9.72531466,6.7364692 C10.5157113,7.08016661 11.4779332,7.32075479 12.3370599,7.28638505 C13.0243613,7.28638505 13.6772976,6.94268764 14.364599,6.66772972 C14.0209483,5.91159542 12.0277743,4.2962176 9.24420369,3.26512538 C6.59809334,1.99344497 0.412380834,-0.549915853 0.0687301389,0.41243689 Z"></path>
                </g>
                <g transform="translate(51.352946, 60.217908)" fill="#2D1610" id="Path">
                    <path d="M0.0343650695,0.756134298 C1.95880896,2.40588186 4.39872889,3.95252019 7.28539473,5.49915853 C8.72872764,6.28966257 11.2030126,7.45823376 12.8181709,7.87067065 C13.1961867,7.97377987 14.4676942,7.90504039 14.84571,6.87394816 C15.1893607,5.9803349 13.6772976,5.32730983 13.4023771,5.18983086 C9.07237834,3.33386486 5.77333167,2.02781471 1.40896785,0.240588186 C1.2371425,0.171848704 0.927856875,0.41243689 0.0343650695,0.756134298 Z"></path>
                </g>
                <g transform="translate(79.537458, 60.353669)" fill="#2D1610" id="Path">
                    <path d="M0.171825347,0.343697408 C0.515476042,0.790504039 0.721666459,1.37478963 1.16841236,1.64974756 C2.98976104,2.71520952 4.84547479,3.78067149 6.80428375,4.60554527 C8.6599975,5.39604931 10.6531715,5.94596516 12.6463456,6.53025075 C13.2649168,6.70209946 14.0209483,6.7364692 14.6051545,6.5646205 C15.0862655,6.42714153 15.6361066,5.91159542 15.6704717,5.49915853 C15.7048367,5.08672164 15.2237258,4.39932682 14.7769799,4.19310838 C13.4367422,3.60882279 12.0277743,3.09327667 10.5844414,2.68083978 C7.28539473,1.75285678 3.95198299,0.893613261 0.61857125,-1.85427996e-14 L0.171825347,0.343697408 Z"></path>
                </g>
                <g transform="translate(81.278049, 51.498305)" fill="#2D1610" id="Path">
                    <path d="M0.171825347,0.515546112 C0.584206181,1.09983171 1.30587264,2.37151212 1.89007882,2.68083978 C5.2922207,4.36495708 8.76309271,5.94596516 12.2683298,7.4926035 C12.7838058,7.73319168 13.5054723,7.73319168 14.0209483,7.52697324 C14.6738847,7.32075479 15.7735669,6.77083894 15.7392018,6.42714153 C15.6704717,5.73974672 15.1549956,4.74302423 14.5707895,4.50243605 C12.1308695,3.50571356 9.58785438,2.74957927 7.07920431,1.92470549 C5.08603028,1.27168041 0.687301389,-0.962352743 0.171825347,0.515546112 Z"></path>
                </g>
                <g transform="translate(76.071741, 66.815180)" fill="#2D1610" id="Path">
                    <path d="M0.206190417,0.893613261 C2.23372952,2.40588186 4.81110972,3.78067149 7.7665057,5.12109138 C9.24420369,5.8084862 11.8215839,6.80520868 13.4711072,7.11453635 C13.8834881,7.18327583 15.1206306,7.04579687 15.4299162,5.9803349 C15.6704717,5.0523519 14.1584086,4.50243605 13.849123,4.39932682 C9.38166396,2.85268849 6.01388716,1.75285678 1.51206306,0.309327667 C1.37460278,0.274957927 1.06531715,0.515546112 0.206190417,0.893613261 Z"></path>
                </g>
                <g transform="translate(33.813015, 26.100785)" fill="#2D1610" id="Path">
                    <path d="M0.61857125,1.30605015 C3.84888778,2.74957927 7.07920431,4.22747812 10.3438859,5.67100723 C10.6188065,5.8084862 15.2924559,7.93941013 15.4299162,6.04907438 C15.7392018,4.77739397 13.2992819,3.78067149 12.0277743,3.3682346 C8.79745778,2.33714238 5.60150632,1.27168041 2.33682472,0.378067149 C1.71825347,0.206218445 0.927856875,0.653025075 0.240555486,0.790504039 L0.61857125,1.30605015 Z"></path>
                </g>
                <g transform="translate(11.528986, 15.071535)" fill="#2D1610" id="Path">
                    <path d="M0.343650695,1.61537782 C4.43309396,2.74957927 8.17888653,3.88378071 12.0277743,4.81176371 C12.852536,5.01798216 14.7082497,5.56789801 14.84571,4.43369657 C14.9831703,3.29949512 13.7803929,2.71520952 13.0243613,2.50899108 C9.41602903,1.58100808 5.7389666,0.893613261 2.06190417,0.137478963 C0.584206181,-0.171848704 0.206190417,0.549915853 0.343650695,1.61537782 Z"></path>
                </g>
                <g transform="translate(9.357113, 26.930814)" fill="#2D1610" id="Path">
                    <path d="M0.240555486,1.06546197 C2.68047542,4.19310838 4.87983986,7.14890609 7.28539473,9.96722484 C7.80087077,10.5858802 8.90055299,10.7577289 9.72531466,11.1701658 C10.859362,10.7233591 9.96587014,9.1767208 9.51912424,8.5924352 C7.28539473,5.87722568 4.87983986,3.33386486 2.50865007,0.756134298 C1.54642813,-0.274957927 0.824761667,0.103109222 0.240555486,1.06546197 Z"></path>
                </g>
                <g transform="translate(39.749581, 11.318359)" fill="#2D1610" id="Path">
                    <path d="M14.5707895,4.26184786 C15.1206306,2.74957927 11.890314,2.23403315 10.7219017,1.95907523 C7.28539473,1.20294093 4.02071313,0.41243689 0.962221945,0.309327667 C0.687301389,0.274957927 0.378015764,0.41243689 0.137460278,0.446806631 C0.927856875,3.43697408 14.0209483,5.77411646 14.5707895,4.26184786 Z"></path>
                </g>
                <g transform="translate(94.945037, 75.852703)" fill="#2D1610" id="Path">
                    <path d="M0.274920556,1.44352911 C0.171825347,-0.41243689 12.0277743,0.0343697408 17.1138046,1.855966 C14.8800751,3.16201616 13.5742024,3.29949512 9.69094959,3.64319253 C6.56372827,3.71193201 0.412380834,3.3682346 0.274920556,1.44352911 Z"></path>
                </g>
                <g transform="translate(113.079484, 45.662323)" fill="#2D1610" id="Path">
                    <path d="M11.855949,10.8264684 C12.1308695,11.3420145 11.6497585,12.2356277 11.5122983,12.9573923 C10.893727,12.5449554 10.1720606,12.2356277 9.65658452,11.7544514 C8.52253723,10.7233591 7.422855,9.62352743 6.35753785,8.48932598 C4.60491931,6.63335998 2.78357063,4.77739397 1.16841236,2.78394901 C0.687301389,2.16529367 -0.378015764,1.13420145 0.687301389,0.206218445 C1.71825347,-0.721764557 10.3095208,7.97377987 11.855949,10.8264684 Z"></path>
                </g>
                <g transform="translate(101.646226, 60.076992)" fill="#2D1610" id="Path">
                    <path d="M16.8732491,9.03924183 C15.6704717,9.03924183 14.5707895,9.38293924 13.9865833,9.00487209 C10.5500763,7.25201531 -0.996587014,2.30277263 0.274920556,0.515546112 C1.51206306,-1.27168041 13.9865833,4.63991501 16.8732491,9.03924183 Z"></path>
                </g>
                <g transform="translate(98.395290, 66.438831)" fill="#2D1610" id="Path">
                    <path d="M16.0141224,6.83957842 C11.3404729,6.80520868 5.15476042,4.60554527 2.37118979,3.1963859 C1.61515826,2.92142797 0.893491806,2.23403315 0.343650695,1.61537782 C0.0343650695,1.27168041 -0.103095208,0.584285594 0.103095208,0.309327667 C0.309285625,0.0343697408 0.996587014,-0.0687394816 1.40896785,0.103109222 C6.35753785,1.03109222 12.0277743,4.08999916 15.9453922,6.28966257 L16.0141224,6.83957842 Z"></path>
                </g>
                <g transform="translate(107.070752, 52.582670)" fill="#2D1610" id="Path">
                    <path d="M12.9556312,9.3485695 C9.86277494,7.6644522 6.73555361,5.94596516 3.64269736,4.26184786 C3.36777681,4.1243689 -1.13404729,1.71848704 0.343650695,0.481176371 C1.20277743,-0.549915853 3.47087202,0.82487378 4.57055424,1.58100808 C7.3197598,3.50571356 10.1033304,5.43041905 12.7838058,7.45823376 C13.2992819,7.87067065 13.4023771,8.72991417 13.6772976,9.38293924 L12.9556312,9.3485695 Z"></path>
                </g>
                <g transform="translate(13.309096, 7.714692)" fill="#2D1610" id="Path">
                    <path d="M14.2615038,3.1963859 C13.5742024,1.06546197 12.2339647,0.206218445 10.5500763,0.240588186 C7.49158514,0.309327667 4.43309396,0.549915853 1.40896785,0.82487378 C0.996587014,0.85924352 0.65293632,1.58100808 0.274920556,1.95907523 C0.687301389,2.30277263 1.06531715,2.95579771 1.51206306,2.99016745 C5.01730014,3.29949512 8.52253723,3.5400833 12.0277743,3.71193201 C12.7150757,3.78067149 13.4023771,3.43697408 14.2615038,3.1963859 Z"></path>
                </g>
            </g>
            <g id="Group" transform="translate(267.315859, 220.244732) rotate(-9.562573) translate(-267.315859, -220.244732) translate(223.815859, 177.744732)" fill-rule="nonzero">
                <g transform="translate(0.168833, 0.204361)" fill="#2E1710" id="Path">
                    <path d="M36.6661791,4.91469199 C36.6661791,4.91469199 55.0508144,16.6687106 70.0677969,36.9117426 C77.9371081,47.4972331 92.3011782,69.3555834 80.411302,81.2814444 C75.0161847,86.6772951 66.2190508,77.7758599 66.2190508,77.7758599 C62.3015771,84.0309224 58.109193,69.4586889 58.109193,69.4586889 C56.9408237,64.6127338 48.1436898,59.8011473 41.614567,55.6081933 C33.9514386,50.6935013 26.0477636,47.0160744 18.3159077,44.1978594 C18.3159077,44.1978594 4.8796602,39.0769566 1.40891597,29.5225204 C-4.57038597,13.0600207 12.7146076,-9.89812093 36.6661791,4.91469199 Z"></path>
                </g>
                <g transform="translate(35.505133, 4.433402)" fill="#4A3D3B" id="Shape">
                    <path d="M44.2949437,47.6003385 C47.1127756,53.0649261 49.3120591,58.9419354 49.5869695,64.406523 C49.7244248,61.4164656 48.8653297,56.1924573 44.2949437,47.6003385 Z M0.206182826,0 C0.584184672,0.206210853 0.962186519,0.446790181 1.34018837,0.653001033 C1.34018837,0.653001033 13.4362475,8.38590801 25.979036,22.0645612 C19.0375476,14.2629173 9.6905928,5.08653437 0.206182826,0 Z"></path>
                </g>
                <g transform="translate(18.046602, 0.462125)" fill="#20100B" id="Path">
                    <path d="M4.53602216,0.137473902 C3.02401477,0.137473902 1.51200739,0.343684754 0.0687276085,0.721737984 C0.206182826,0.75610646 26.2195826,5.01779741 52.9546224,42.720015 C52.9546224,42.720015 65.841049,60.935307 64.1228587,69.5274258 C64.1228587,69.5274258 64.6726796,73.2048527 65.3255919,73.2048527 C65.5317747,73.2048527 65.7723214,72.8267995 66.012868,71.8301137 C66.012868,71.8301137 66.9063269,70.9021648 67.0094183,68.3932661 C66.7345079,62.9286785 64.5352244,57.0516692 61.7173924,51.5870816 C59.9304746,48.218971 57.5937359,44.3697018 54.5353574,39.9361685 L54.5353574,39.9361685 C54.2948107,39.6268522 49.9649714,33.4748951 43.4358486,26.0856729 C30.8586962,12.4070196 18.7970009,4.67411266 18.7970009,4.67411266 C18.4189991,4.43353333 18.0409972,4.22732248 17.6629954,4.02111163 C13.2300646,1.61531835 8.76277009,0.137473902 4.53602216,0.137473902 Z"></path>
                </g>
            </g>
            <g id="Group" transform="translate(98.844617, 179.071718) rotate(-9.817542) translate(-98.844617, -179.071718) translate(44.344617, 126.571718)" fill="#2D1610" fill-rule="nonzero">
                <g transform="translate(0.166942, 0.314335)" id="Path">
                    <path d="M65.9134495,90.4284978 C65.9134495,90.4284978 38.180314,81.1484923 24.3996606,68.1908551 C6.42638949,51.3149933 0.721680104,37.3606146 0.309291473,19.3849003 C0,6.46163344 7.42299535,-0.309333516 16.6673738,0.137481563 C29.86381,0.756148594 32.7848961,17.9757143 32.7848961,17.9757143 C32.7848961,17.9757143 38.9707256,9.03941274 42.716589,16.3946763 C45.2596522,21.378383 40.4484515,24.987274 38.1459483,28.2868315 C35.6028851,31.2770555 66.703861,55.6800329 80.5532458,59.8732205 C94.8837508,64.2726305 114.747136,84.9292353 105.159101,95.9965011 C89.6945272,113.903475 68.4908784,96.9932424 65.9134495,90.4284978 Z"></path>
                </g>
            </g>
            <g id="Group" transform="translate(42.574406, 132.964992) rotate(-9.817542) translate(-42.574406, -132.964992) translate(16.074406, 90.464992)" fill-rule="nonzero">
                <g transform="translate(2.968251, 0.306339)" fill="#5CB8C1" id="Path">
                    <path d="M22.6126432,0.343703907 C21.8222317,0.309333516 21.2723802,1.0998525 21.5129402,1.8216307 L25.4649979,13.6450451 C25.6711923,14.2293417 25.3619008,14.8823792 24.7776836,15.0886015 L15.1552822,18.2850478 C14.5710649,18.4912702 13.9181163,18.1475663 13.7462877,17.5632696 L9.79422998,5.70548485 C9.55366994,4.94933625 8.62579552,4.67437313 8.00721258,5.1555586 C1.44336021,10.5173395 -1.58082308,19.3849003 1.20280017,27.7369053 C3.64276624,35.1265393 9.93169285,40.1446163 17.2172253,41.4850615 L29.1421299,77.4364902 C30.5511244,81.6984186 35.1904965,83.9668644 39.4862114,82.4889376 L43.8506577,81.0110108 C48.1463726,79.533084 50.4488758,74.9274516 49.0398813,70.6655232 L37.0118796,34.8515761 C41.9949089,29.4210544 43.9881206,21.6189757 41.5137888,14.2980825 C38.7301656,5.98044797 31.0666102,0.653037422 22.6126432,0.343703907 Z"></path>
                </g>
                <g transform="translate(0.316936, 4.812298)" fill="#51A3A9" id="Path">
                    <path d="M12.4403904,1.23733406 C12.4060246,0.721778204 11.8905388,0.206222344 11.2375902,0.171851953 C10.9282987,0.137481563 10.5159101,0.309333516 10.3097158,0.481185469 L9.62240138,0.893630157 C8.69452696,1.4779268 7.83538398,2.13096422 7.04497244,2.88711282 C5.39541792,4.33066922 4.02078915,6.11792954 2.88672041,8.0770418 C0.687314384,11.9952663 -0.343657192,16.7383802 0.343657192,21.378383 C0.927874419,26.0183857 3.02418329,30.5552773 6.42638949,33.9923164 C9.79422998,37.4637258 14.2961392,39.8696532 19.1417056,40.7632833 L16.1862538,38.2198744 C19.0042427,46.9155832 22.0627917,55.5425513 25.5337294,64.1007786 L28.1798898,70.4936712 L29.5888842,73.6557472 C30.1731015,75.0305628 31.0322445,76.2678969 32.0975817,77.2302678 C34.2626221,79.1550097 37.2180739,79.9798991 39.8642343,79.533084 C41.2044973,79.3268616 42.4416632,78.7081946 43.4382691,78.1926387 C44.4692407,77.6083421 45.534578,77.0927862 46.5655495,76.4741192 C45.3283836,76.6459712 44.1599492,76.8521935 42.9915147,77.0584159 C41.7887146,77.2990086 40.7921087,77.4364902 39.7611371,77.2990086 C37.7335597,77.0584159 36.0152737,75.9585634 35.0186679,74.5150069 C34.5031821,73.7932287 34.1595249,73.0027098 34.022062,72.1778204 L33.2660162,68.7751517 L31.5477302,62.0729255 C29.2108613,53.1709943 26.4959695,44.4065447 23.5748834,35.7452063 L22.8532033,33.6142421 L20.6194315,33.2017974 C17.2859568,32.5831303 14.0899449,31.1052035 11.5468817,28.8367578 C9.03818415,26.568312 7.07933816,23.578088 6.11709802,20.1754193 C5.1892236,16.7727506 5.12049216,13.0263781 6.22019518,9.41748704 C6.73568097,7.59585634 7.56045823,5.84296641 8.5914298,4.12444688 C9.10691559,3.26518711 9.69113282,2.44029774 10.3440815,1.68414914 C10.6877387,1.30607484 10.9282987,0.790518985 11.2719559,0.721778204 C11.6499788,0.584296641 12.1654646,0.756148594 12.4403904,1.23733406 Z"></path>
                </g>
            </g>
            <g id="Group" transform="translate(75.000000, 0.000000)">
                <g transform="translate(7.566076, 0.156395)" fill="#CD2C0B" fill-rule="nonzero" id="Path">
                    <path d="M44.1325832,180.868745 C38.67182,179.115741 25.9643836,172.55057 16.4853229,161.001369 C7.04060665,149.452167 0.0686888454,135.359392 2.5758317,118.241825 C5.08297456,101.124259 7.96790607,102.017947 6.18199609,95.7621293 C4.43043053,89.5063118 -1.20205479,66.3047909 0.721232877,49.221597 C2.64452055,32.138403 3.19403131,25.9857034 9.13561644,23.6827376 C15.111546,21.3797719 20.2975538,25.9857034 26.1017613,28.7355133 C31.9059687,31.4853232 53.9550881,43.0688973 57.0117417,44.4438023 C60.0340509,45.8187072 60.6865949,46.2655513 63.777593,45.2 C66.9029354,44.1688213 76.8284736,41.0065399 86.2388454,39.4253992 C95.6835616,37.8786312 101.487769,38.7379468 101.487769,38.7379468 C101.487769,38.7379468 106.845499,23.8202281 123.1591,12.0647909 C139.472701,0.343726236 146.513307,-1.27178707 152.420548,1.51239544 C158.327789,4.29657795 162.14002,25.9169582 162.552153,43.2063878 C162.99863,60.4958175 160.525832,65.5829658 161.384442,67.5765779 C162.243053,69.5701901 179.758708,87.4439544 181.269863,102.739772 C183.26184,122.916502 178.110176,144.399392 163.30773,160.76076 C151.458904,173.85673 109.627397,201.939163 44.1325832,180.868745 Z"></path>
                </g>
                <g transform="translate(33.956331, 111.559787)" fill="#FFFFFF" fill-rule="nonzero" id="Path">
                    <path d="M11.5053816,61.6301141 C13.9438356,61.5613688 11.5053816,54.6524715 16.7257339,44.9593916 C21.9460861,35.2663118 32.3181018,0.928060837 17.3439335,0.0687452471 C2.36976517,-0.790570342 0.103033268,28.8386312 0.0686888454,35.4381749 C0.0343444227,42.0377186 3.331409,61.9050951 11.5053816,61.6301141 Z"></path>
                </g>
                <g transform="translate(153.943723, 106.494981)" fill="#FFFFFF" fill-rule="nonzero" id="Path">
                    <path d="M16.3822896,52.6932319 C16.3822896,52.6932319 20.5379648,32.7227376 16.5540117,17.0831939 C12.5700587,1.47802281 5.15166341,-2.99041825 1.61418787,2.54357414 C-1.92328767,8.07756654 1.71722114,14.9177186 7.28101761,30.316654 C12.8448141,45.7155894 13.4286693,50.5965019 14.1155577,53.5525475 C14.8024462,56.5429658 16.3822896,52.6932319 16.3822896,52.6932319 Z"></path>
                </g>
                <g transform="translate(57.137099, 113.173582)" fill="#FFFFFF" fill-rule="nonzero" id="Path">
                    <path d="M0.0343444227,69.5358175 C0.618199609,63.8987072 1.27074364,58.3647148 2.02632094,55.6492776 C4.22436399,48.0529278 7.52142857,40.8003042 11.780137,33.9945247 C15.9358121,27.3606084 20.7440313,21.276654 26.3765166,15.7770342 C30.7039139,11.5492015 35.340411,7.80258555 40.5951076,4.70904943 C44.7851272,2.23422053 49.3529354,0.928060837 54.0924658,0.171863118 C65.4948141,-1.06555133 79.8164384,6.22144487 94.2410959,25.9857034 C98.3624266,31.6228137 100.800881,38.2911027 102.724168,45.0281369 C102.861546,45.5437262 103.926223,50.1840304 105.128278,55.4774144 C87.5782779,68.5046388 51.4479452,84.2129278 0.0343444227,69.5358175 Z"></path>
                </g>
                <g transform="translate(132.499066, 12.937856)" fill="#2D1610" fill-rule="nonzero" id="Path">
                    <path d="M23.4572407,37.6723954 C23.0107632,39.4253992 22.3238748,41.1440304 20.1601761,40.7659316 C19.095499,40.5596958 10.6811155,34.8538403 7.34970646,33.0320913 C5.2890411,31.8977947 3.05665362,30.9697338 1.0646771,29.7323194 C0.515166341,29.3885932 0.137377691,28.1511787 0.274755382,27.4293536 C1.20205479,22.0672243 3.74354207,17.2894297 6.83454012,12.9241065 C9.47906067,9.17749049 17.309589,1.27178707 18.1681996,1.03117871 C21.3278865,-1.27178707 22.8046967,1.44365019 23.3542074,4.36532319 C25.2431507,11.8929278 25.346184,30.4885171 23.4572407,37.6723954 Z"></path>
                </g>
                <g transform="translate(21.228288, 35.171787)" fill="#2D1610" fill-rule="nonzero" id="Path">
                    <path d="M9.92553816,2.40608365 C13.0165362,4.98403042 16.0731898,7.63072243 18.8550881,10.5523954 C21.12182,12.9584791 22.9764188,15.7770342 24.9683953,18.4237262 C26.4452055,20.4173384 25.758317,22.3422053 24.3158513,23.4077567 C18.5803327,27.6355894 14.7337573,33.3758175 10.7841487,39.081673 C10.234638,39.8378707 8.99823875,40.4565779 8.03659491,40.5253232 C7.45273973,40.5596958 6.49109589,39.4253992 6.28502935,38.6348289 C5.18600783,34.7163498 4.19001957,30.7291255 3.331409,26.7419011 C2.40410959,22.5484411 1.5111546,18.3206084 0.824266145,14.0927757 C0.240410959,10.4492776 -0.274755382,6.5651711 1.23639922,2.99041825 C3.67485323,-2.78418251 8.86086106,1.51239544 9.92553816,2.40608365 Z"></path>
                </g>
                <g transform="translate(64.323669, 85.440030)" fill="#FFFFFF" fill-rule="nonzero" id="Path">
                    <path d="M31.768591,15.708289 C27.3725049,12.9928517 22.8733855,12.6147529 18.0651663,13.9552852 C13.7721135,15.158327 9.06692759,15.5364259 4.63649706,14.1271483 C0.721232877,12.8897338 -0.824266145,9.7618251 1.0646771,5.74022814 C3.29706458,0.996806084 8.99823875,-0.653079848 14.8367906,0.584334601 C21.774364,2.02798479 26.6169276,6.29019011 30.2917808,12.0304183 C31.2877691,13.3365779 31.4938356,14.6427376 31.768591,15.708289 Z"></path>
                </g>
                <g transform="translate(132.782407, 77.546357)" fill="#FFFFFF" fill-rule="nonzero" id="Path">
                    <path d="M0.206066536,22.101597 C3.43444227,18.1487452 7.55577299,16.3269962 12.5700587,16.0863878 C17.0004892,15.8801521 21.6026419,14.7114829 25.3118395,11.961673 C28.6089041,9.55558935 29.0210372,6.08395437 25.8956947,2.88730038 C22.2208415,-0.859315589 16.2792564,-0.618707224 11.1619374,2.40608365 C5.08297456,5.9808365 1.92328767,11.5492015 0.37778865,18.1487452 C-0.137377691,19.6955133 0.103033268,21.0360456 0.206066536,22.101597 Z"></path>
                </g>
                <g transform="translate(0.010303, 109.557582)" fill="#2D1610" fill-rule="nonzero" id="Path">
                    <path d="M53.4055773,17.7362738 C54.2298434,17.1175665 46.7084149,12.6147529 31.1847358,7.18387833 C15.6610568,1.7530038 0.103033268,-0.378098859 0.103033268,0.240608365 C0.103033268,0.859315589 14.1499022,3.81536122 30.1544031,9.79619772 C46.1245597,15.7426616 51.8257339,18.8705703 53.4055773,17.7362738 Z"></path>
                </g>
                <g transform="translate(4.907818, 128.904213)" fill="#2D1610" fill-rule="nonzero" id="Path">
                    <path d="M49.1125245,0.859315589 C49.4903131,0.0343726236 41.762818,-0.446844106 27.3725049,1.61551331 C13.0165362,3.67787072 1.11022302e-16,8.35254753 0.274755382,8.79939163 C0.515166341,9.28060837 12.7074364,5.87771863 27.6472603,4.05596958 C42.5870841,2.26859316 48.3569472,2.40608365 49.1125245,0.859315589 Z"></path>
                </g>
                <g transform="translate(13.347960, 136.796167)" fill="#2D1610" fill-rule="nonzero" id="Path">
                    <path d="M39.1182975,0.446844106 C39.324364,-0.274980989 32.9363014,0.274980989 21.4309198,3.71224335 C9.92553816,7.1495057 -0.137377691,12.5460076 0.137377691,12.8897338 C0.412133072,13.2678327 9.92553816,9.00562738 21.9460861,5.67148289 C33.9666341,2.40608365 38.7061644,1.82174905 39.1182975,0.446844106 Z"></path>
                </g>
                <g transform="translate(115.180890, 114.134297)" fill="#2D1610" fill-rule="nonzero" id="Path">
                    <path d="M0.755577299,1.71863118 C-2.50714286,4.15908745 6.14765166,5.46524715 6.14765166,5.46524715 C8.03659491,5.29338403 12.1579256,3.78098859 12.0548924,2.16547529 C11.9518591,0.309353612 4.05264188,-0.721825095 0.755577299,1.71863118 Z"></path>
                </g>
                <g transform="translate(138.529946, 107.969567)" fill="#2D1610" fill-rule="nonzero" id="Path">
                    <path d="M9.41037182,5.91209125 C8.82651663,8.86813688 6.31937378,11.0336122 3.7778865,10.7930038 C1.23639922,10.5523954 -0.343444227,7.97444867 0.240410959,5.01840304 C0.824266145,2.09673004 3.331409,-0.103117871 5.87289628,0.137490494 C8.41438356,0.412471483 9.99422701,2.99041825 9.41037182,5.91209125 Z"></path>
                </g>
                <g transform="translate(75.762079, 110.784684)" fill="#2D1610" fill-rule="nonzero" id="Path">
                    <path d="M1.37377691,14.0927757 C1.40812133,14.0927757 1.44246575,14.058403 1.47681018,14.058403 L15.3519569,7.21825095 C15.6954012,7.04638783 15.9014677,6.7026616 15.9014677,6.32456274 C15.9014677,5.94646388 15.6610568,5.60273764 15.3176125,5.46524715 L3.98395303,0.378098859 C3.50313112,0.171863118 2.88493151,0.378098859 2.67886497,0.859315589 C2.43845401,1.34053232 2.67886497,1.92486692 3.15968689,2.13110266 L12.6044031,6.35893536 L0.583855186,12.2710266 C0.103033268,12.511635 -0.103033268,13.0959696 0.137377691,13.5771863 C0.412133072,14.058403 0.927299413,14.2302662 1.37377691,14.0927757 Z"></path>
                </g>
                <g transform="translate(74.585783, 115.581384)" fill="#2D1610" fill-rule="nonzero" id="Path">
                    <path d="M16.4509785,2.44045627 C16.8287671,2.30296578 17.1035225,1.95923954 17.1035225,1.54676806 C17.1035225,0.996806084 16.6913894,0.584334601 16.1418787,0.549961977 L1.13336595,0.206235741 C0.583855186,0.206235741 0.137377691,0.618707224 0.137377691,1.1686692 C0.137377691,1.71863118 0.549510763,2.16547529 1.09902153,2.16547529 L16.1075342,2.50920152 C16.2105675,2.50920152 16.3479452,2.4748289 16.4509785,2.44045627 Z"></path>
                </g>
                <g transform="translate(90.713924, 131.982281)" fill="#2D1610" fill-rule="nonzero" id="Path">
                    <path d="M1.88894325,0.309353612 C2.23238748,0.515589354 0.515166341,2.81855513 4.91125245,5.25901141 C8.9295499,7.49323194 16.3136008,8.07756654 21.4996086,8.18068441 L21.533953,8.18068441 C26.6856164,8.3181749 35.2373777,8.11193916 39.7021526,5.77460076 C44.1669276,3.43726236 42.5183953,1.09992395 42.8618395,0.893688213 C43.2052838,0.687452471 45.2659491,2.921673 44.0638943,5.19026616 C42.8618395,7.45885932 36.8515656,10.4492776 26.1704501,10.7930038 C24.453229,10.861749 20.1258317,10.7930038 18.3399217,10.6898859 C7.69315068,10.0368061 1.68287671,6.87452471 0.549510763,4.57155894 C-0.583855186,2.26859316 1.54549902,0.103117871 1.88894325,0.309353612 Z"></path>
                </g>
                <g transform="translate(173.786213, 279.970175)">
                    <g></g>
                </g>
                <g transform="translate(168.648288, 67.808593)" fill="#B52207" fill-rule="nonzero" id="Shape">
                    <path d="M-2.22044605e-16,0.926178222 L0.308472781,0.926178222 L0.308472781,0.617452148 L-2.22044605e-16,0.617452148 L-2.22044605e-16,0.926178222 Z M0.308472781,0.926178222 L-2.22044605e-16,0.617452148 L0.308472781,0.926178222 Z"></path>
                </g>
                <g transform="translate(170.951081, 70.864319)" fill="#CE8D82" fill-rule="nonzero" id="Shape">
                    <path d="M4.19001957,84.831635 C2.91927593,86.5502662 1.57984344,88.2001521 0.137377691,89.8156654 L0.171722114,89.7812928 C0.721232877,89.2313308 2.2667319,87.5470722 4.19001957,84.831635 Z M17.7217221,30.6947529 C17.790411,31.141597 17.8590998,31.5884411 17.8934442,32.0352852 C18.2712329,35.9537643 18.4086106,39.906616 18.2368885,43.8938403 C18.442955,40.6971863 18.4772994,37.2942966 18.3055773,33.788289 C18.3055773,33.788289 18.1681996,32.6539924 17.7217221,30.6947529 Z M0.549510763,0.171863118 C3.57181996,3.84973384 8.6204501,10.1055513 12.5357143,17.0488213 C9.92553816,11.961673 6.07896282,6.118327 0.549510763,0.171863118 Z"></path>
                </g>
                <g transform="translate(168.588185, 67.729536)" fill="#B52207" fill-rule="nonzero" id="Path">
                    <path d="M0.137377691,0.103117871 C2.06066536,1.99361217 37.0232877,37.8442586 2.40410959,92.6685932 L2.50714286,92.6342205 C3.94960861,91.0187072 5.32338552,89.3688213 6.55978474,87.6501901 C11.539726,80.7069202 19.3015656,66.8547529 20.5723092,46.7123954 C20.7440313,42.7595437 20.640998,38.7723194 20.228865,34.8538403 C20.1945205,34.4069962 20.1258317,33.9601521 20.0571429,33.513308 C19.3702544,30.5572624 17.8934442,25.7107224 14.871135,19.8673764 C10.9558708,12.9241065 5.9072407,6.66828897 2.88493151,2.99041825 C2.02632094,2.02798479 1.09902153,1.06555133 0.137377691,0.103117871 Z"></path>
                </g>
                <g transform="translate(170.633395, 160.472030)" fill="#C57937" fill-rule="nonzero" id="Path">
                    <path d="M1.07965473,0.463089111 L1.07965473,0.463089111 L0.771181953,0.617452148 L0.539827367,1.00335974 C0.616945562,1.00335974 0.771181953,0.771815185 1.07965473,0.463089111 Z"></path>
                </g>
                <g transform="translate(158.983767, 88.346236)" fill="#2D1610" fill-rule="nonzero" id="Path">
                    <path d="M0.37778865,26.1575665 C-0.480821918,25.7107224 5.63248532,20.0392395 18.9924658,12.2022814 C32.3524462,4.36532319 46.3649706,-0.240608365 46.4680039,0.343726236 C46.5710372,0.928060837 34.1383562,6.118327 20.4692759,14.5739924 C6.76585127,23.0296578 2.06066536,27.0168821 0.37778865,26.1575665 Z"></path>
                </g>
                <g transform="translate(161.032412, 107.945506)" fill="#2D1610" fill-rule="nonzero" id="Path">
                    <path d="M0.309099804,14.9520913 C-0.37778865,14.4021293 5.80420744,10.5180228 18.6490215,5.94646388 C31.4938356,1.37490494 44.4073386,-0.274980989 44.4073386,0.274980989 C44.4073386,0.824942966 32.7989237,3.23102662 19.5763209,8.24942966 C6.31937378,13.3022053 1.61418787,16.0176426 0.309099804,14.9520913 Z"></path>
                </g>
                <g transform="translate(162.964286, 124.116106)" fill="#2D1610" fill-rule="nonzero" id="Path">
                    <path d="M0.103033268,6.29019011 C-0.412133072,5.74022814 5.18600783,3.43726236 16.2792564,1.47802281 C27.4068493,-0.48121673 38.190998,-0.0687452471 38.1567354,0.378098859 C38.0879648,0.824942966 28.2311155,1.20304183 16.7600783,3.5060076 C5.2890411,5.77460076 1.0646771,7.32136882 0.103033268,6.29019011 Z"></path>
                </g>
                <g transform="translate(178.953332, 220.942068)">
                    <g></g>
                </g>
                <g transform="translate(84.221111, 206.441977)" fill="#20100B" fill-rule="nonzero" id="Path">
                    <path d="M0.385590976,0.617452148 L1.23389112,0.771815185 L0.385590976,0.617452148 Z"></path>
                </g>
                <g transform="translate(159.777123, 1.916274)" fill="#B52207" fill-rule="nonzero" id="Path">
                    <path d="M0.206066536,0.103117871 C0.206066536,0.103117871 11.5053816,26.9137643 7.31536204,63.2112548 L8.86086106,66.476654 C8.86086106,66.476654 8.9295499,66.0298099 9.03258317,65.2392395 C8.96389432,64.1393156 9.30733855,62.3863118 9.65078278,59.4646388 C9.92553816,56.4398479 10.234638,52.5901141 10.4063601,48.3279087 C10.4407045,46.3686692 10.4407045,44.1688213 10.3720157,41.7627376 C10.0285714,28.9761217 7.89921722,13.7834221 4.39608611,5.63711027 C3.19403131,3.54038023 1.8202544,1.64988593 0.206066536,0.103117871 Z"></path>
                </g>
            </g>
            <g id="Group" transform="translate(89.000000, 159.000000)">
                <g transform="translate(0.163009, 20.281669)" fill="#2D1610" fill-rule="nonzero" id="Path">
                    <path d="M0.102570273,124.106056 C1.38777878e-17,117.257164 20.6935845,111.681684 20.6935845,111.681684 C20.6935845,111.681684 11.2562118,100.427474 13.1780041,84.8367799 C15.3057026,67.6973412 27.4198574,68.2824225 27.2139511,60.5042836 C27.0080448,53.2768095 29.7191446,33.2463811 27.1453157,26.6728213 C27.1453157,26.6728213 25.8755601,11.9081241 27.9346232,7.67488922 C29.7191446,3.99231905 27.1453157,-2.71890694 40.9753564,1.51432792 C55.2858452,5.91964549 71.0376782,7.46838996 85.6570265,7.43397341 C97.8398167,7.39955687 105.835845,7.33072378 117.95,5.30014771 C120.798371,4.8183161 124.436049,4.0267356 128.17668,3.02865583 C131.093686,6.50472674 134.216599,9.80871492 137.5111,12.9750369 C143.139206,19.6518464 149.350713,25.7435746 155.768126,31.1125554 L155.630855,31.215805 C153.914969,39.7855244 158.479226,56.4431315 158.479226,56.4431315 C159.096945,60.7451994 179.653259,65.4946824 180.065071,83.2192024 C180.339613,94.5766617 164.175967,106.415953 164.175967,106.415953 C164.175967,106.415953 185.727495,117.704579 176.598982,127.100295 C167.573422,136.427179 132.329124,117.257164 130.304379,113.264845 C127.456008,107.620532 133.221385,100.806056 125.534216,97.7085672 C118.499084,94.8519941 106.865377,94.3701625 94.991446,95.3338257 C77.6266802,96.744904 74.606721,98.6378139 67.3656823,100.978139 C59.2667006,103.593796 55.8692464,111.062186 54.6681263,112.989513 C53.364053,115.433087 53.0208758,126.377548 52.9179226,128.511374 C52.746334,132.538109 38.4358452,134.499852 28.2778004,134.740768 C14.6879837,135.0161 0.30885947,136.255096 0.102570273,124.106056 Z"></path>
                </g>
                <g transform="translate(28.478559, 64.785702)" fill="#5CB8C1" fill-rule="nonzero" id="Path">
                    <path d="M40.7694501,26.9137371 C33.5970468,27.1202363 16.9186354,26.1565731 0.137270876,22.9558346 C0.171588595,22.1986706 2.12769857,13.3192024 2.12769857,13.3192024 C13.6584521,15.2121123 22.6496945,15.1776957 31.4007128,14.7991137 L46.0886965,14.3861152 C47.2898167,14.248449 68.1893075,12.4587888 69.35611,12.217873 C75.7735234,11.0477105 88.6083503,9.12038405 94.9571283,7.77813885 C102.369756,6.22939439 109.748065,4.47415066 117.126375,2.6844904 C119.185438,2.16824225 121.10723,1.17016248 123.097658,0.412998523 C125.396945,-0.240915805 127.28442,0.240915805 128.554175,2.37474151 L129.515071,6.12614476 L130.544603,8.56971935 L133.255703,22.6116691 L133.049796,23.5064993 L133.049796,23.5064993 L133.495927,25.6747415 C133.633198,26.1565731 133.770468,26.6384047 133.907739,27.1202363 C135.040224,30.7339734 134.765682,33.6249631 130.510285,35.8964549 C127.661914,37.4107829 124.539002,38.3744461 121.55336,39.6134417 C116.131161,40.2329394 110.743279,40.9556869 105.321079,41.4031019 C104.360183,41.471935 103.05611,40.8868538 102.369756,40.1985229 C101.408859,39.2348597 100.688187,37.9614476 100.173422,36.6880355 C97.9427699,31.0781388 95.849389,25.4682422 93.6187373,19.6862629 C87.5101833,20.51226 82.911609,21.8200886 73.0624236,23.6097489 C66.542057,24.7799114 47.9761711,26.7416544 40.7694501,26.9137371 Z"></path>
                </g>
                <g transform="translate(74.062785, 77.029387)" fill="#EED769" fill-rule="nonzero" id="Path">
                    <path d="M2.77973523,2.44357459 C4.5299389,2.89098966 6.28014257,2.75332349 8.06466395,2.89098966 C10.4325866,3.06307238 10.9130346,4.12998523 10.9130346,6.60797637 C9.40305499,6.84889217 7.85875764,7.22747415 6.28014257,7.29630724 C4.77016293,7.36514032 3.22586558,7.02097489 1.75020367,7.12422452 C1.23543788,7.15864106 0.754989817,7.95022157 0.240224033,8.39763663 C0.789307536,8.87946824 1.30407332,9.77429838 1.88747454,9.80871492 C4.32403259,9.94638109 6.79490835,9.73988183 9.26578411,9.84313146 C9.84918534,9.87754801 10.3982688,10.5658789 10.9816701,10.9444609 C10.4325866,11.4262925 9.95213849,12.1834564 9.30010183,12.3555391 C7.58421589,12.7685377 5.7996945,12.9406204 4.04949084,13.2159527 C3.46608961,14.627031 4.28971487,15.3153619 5.49083503,15.2465288 C8.06466395,15.0744461 10.6384929,14.6958641 13.1780041,14.248449 C13.6241344,14.179616 13.9329939,13.3880355 14.2761711,12.9406204 C14.1389002,9.70546529 14.0016293,4.88714919 13.795723,1.65199409 C13.7614053,1.30782866 13.2466395,0.998079764 12.9720978,0.688330871 C9.54032587,-8.32667268e-17 1.8188391,-0.206499261 2.77973523,2.44357459 Z"></path>
                </g>
                <g transform="translate(126.292637, 72.451987)" fill="#EED769" fill-rule="nonzero" id="Path">
                    <path d="M35.2786151,16.2790251 C31.8468432,17.6901034 28.5523422,19.5485968 24.9832994,20.3745938 C20.4533605,21.4070901 15.6488798,22.0265879 11.0503055,20.4778434 C9.84918534,20.0648449 8.40784114,19.1700148 7.89307536,18.1031019 C6.86354379,16.0036928 6.48604888,13.6289513 5.66242363,11.4262925 C4.25539715,7.70930576 2.7110998,4.0267356 1.20112016,0.309748892 L0,0.688330871 C1.30407332,6.36706056 2.40224033,12.1490399 4.04949084,17.7589365 C5.35356415,22.1986706 9.12851324,23.7818316 13.5898167,24.057164 C20.3160896,24.4357459 26.8364562,23.6441654 32.8763747,20.51226 C33.9059063,19.9960118 34.798167,19.2044313 35.7247454,18.5161004 C35.5874745,17.7245199 35.4158859,17.0017725 35.2786151,16.2790251 Z"></path>
                </g>
                <g transform="translate(148.497918, 77.566285)" fill="#EED769" fill-rule="nonzero" id="Path">
                    <path d="M0.274541752,3.51048744 C0.686354379,5.23131462 2.29928717,6.4014771 3.8092668,6.05731167 C5.35356415,5.74756278 6.38309572,4.09556869 6.03991853,2.58124077 C5.62810591,0.929246677 3.77494908,-0.275332349 2.19633401,0.103249631 C0.65203666,0.48183161 -0.137270876,1.92732644 0.274541752,3.51048744 Z"></path>
                </g>
                <g transform="translate(156.773635, 0.295982)" fill="#C57937" fill-rule="nonzero" id="Path">
                    <path d="M1.07881527,0.463680828 L1.07881527,0.463680828 L0.770582337,0.618241104 L0.539407636,1.00464179 C0.616465869,1.00464179 0.770582337,0.77280138 1.07881527,0.463680828 Z"></path>
                </g>
                <g transform="translate(160.004649, 78.591898)" fill="#4A3D3B" fill-rule="nonzero" id="Shape">
                    <path d="M20.2131365,25.4682422 C20.0758656,32.4548006 13.9329939,39.5446086 9.33441955,43.8810931 L9.64327902,43.8810931 C9.64327902,43.8810931 20.1788187,35.0360414 20.2131365,25.4682422 Z M8.92260692,6.09172821 C14.3791242,10.0496307 20.0072301,15.762777 20.2131365,24.9519941 C20.2131365,25.0896603 20.2131365,25.261743 20.2131365,25.3994092 C20.2474542,25.0208272 21.2769857,13.6977843 8.92260692,6.09172821 Z M0.0686354379,0.137666174 C1.23543788,1.13574594 3.05427699,2.20265879 5.11334012,3.51048744 L0.0686354379,0.137666174 Z"></path>
                </g>
                <g transform="translate(159.817617, 78.591898)" fill="#20100B" fill-rule="nonzero" id="Shape">
                    <path d="M0.240224033,0.137666174 L0.65203666,1.72082718 C0.65203666,1.72082718 19.0806517,12.3555391 18.0511202,26.7760709 C18.0511202,26.7760709 12.3886965,41.1621861 7.03513238,43.9155096 L9.50600815,43.9155096 C14.1045825,39.5446086 20.2474542,32.4548006 20.3847251,25.4682422 L20.3847251,25.3994092 L20.3847251,25.3994092 C20.3847251,25.261743 20.3847251,25.0896603 20.3847251,24.9519941 C20.1788187,15.7283604 14.5507128,10.0496307 9.09419552,6.09172821 L9.09419552,6.09172821 L5.28492872,3.54490399 C3.22586558,2.20265879 1.4413442,1.10132939 0.240224033,0.137666174 Z"></path>
                </g>
                <g transform="translate(165.087103, 60.843287)">
                    <g></g>
                </g>
                <g transform="translate(70.428539, 46.324668)" fill="#20100B" fill-rule="nonzero" id="Path">
                    <path d="M0.385291168,0.618241104 L1.23293174,0.77280138 L0.385291168,0.618241104 Z"></path>
                </g>
                <g transform="translate(28.634705, 87.633124)" fill="#1E0E0A" fill-rule="nonzero" id="Path">
                    <path d="M0.480448065,2.03057607 C27.1453157,8.12230428 50.8588595,4.78389956 50.8588595,4.78389956 C49.8636456,4.85273264 49.2802444,3.64815362 49.2802444,3.64815362 C34.1804481,6.4014771 0.0343177189,0.103249631 0.0343177189,0.103249631 L0.480448065,2.03057607 Z"></path>
                </g>
                <g transform="translate(87.082928, 84.451315)" fill="#1E0E0A" fill-rule="nonzero" id="Path">
                    <path d="M1.23543788,5.47223043 C1.23543788,5.47223043 11.4964358,4.47415066 21.860387,2.47799114 C21.860387,2.47799114 34.0088595,0.137666174 34.9697556,0 L35.5874745,1.61757755 L0.102953157,6.78005908 L0.823625255,6.05731167 L1.23543788,5.47223043 Z"></path>
                </g>
                <g transform="translate(121.126105, 85.557806)" fill="#1E0E0A" fill-rule="nonzero" id="Path">
                    <path d="M1.37270876,0 L8.23625255,17.3115214 C8.23625255,17.3115214 10.8443992,21.7856721 14.3448065,21.3726736 C14.3448065,21.3726736 8.95692464,23.3 7.27535642,18.6193501 L0.171588595,0.722747415 L1.37270876,0 Z"></path>
                </g>
                <g transform="translate(133.274577, 95.251226)" fill="#1E0E0A" fill-rule="nonzero" id="Path">
                    <path d="M0.995213849,10.9100443 L16.2322811,9.15480059 L21.3113035,7.36514032 C21.3113035,7.36514032 29.9936864,4.8183161 29.7534623,0.206499261 L30.3025458,3.02865583 C30.3025458,3.02865583 24.9832994,12.0802068 1.85433068e-14,12.0802068"></path>
                </g>
                <g transform="translate(63.932195, 116.823516)" fill="#4A3D3B" fill-rule="nonzero" id="Shape">
                    <path d="M65.5811609,4.68064993 C65.7184318,5.47223043 65.5468432,5.98847858 65.5468432,5.98847858 L65.8900204,5.98847858 C65.8213849,5.57548006 65.7527495,5.12806499 65.5811609,4.68064993 Z M19.4238289,0.137666174 C11.7709776,1.3422452 8.75101833,2.78774003 3.56904277,4.43973412 C2.26496945,4.85273264 1.09816701,5.40339734 0.0343177189,6.02289513 L0.0343177189,6.02289513 C7.58421589,3.02865583 13.6927699,1.23899557 19.4238289,0.137666174 Z"></path>
                </g>
                <g transform="translate(60.936258, 111.913996)" fill="#20100B" fill-rule="nonzero" id="Path">
                    <path d="M46.4661914,0.0344165436 C14.1732179,0.103249631 0,10.9444609 0,10.9444609 L3.05427699,10.9444609 C4.11812627,10.3249631 5.28492872,9.77429838 6.58900204,9.36129985 C11.7709776,7.67488922 14.7909369,6.26381093 22.4437882,5.05923191 C30.3368635,3.51048744 37.5779022,3.26957164 47.0495927,3.02865583 C47.8732179,2.99423929 48.6625255,2.99423929 49.4175153,2.99423929 C65.4095723,2.99423929 68.2236253,7.36514032 68.6011202,9.60221566 C68.738391,10.0152142 68.8413442,10.4626292 68.9099796,10.9100443 L73.508554,10.9100443 C73.508554,0.791580502 46.4661914,0.0344165436 46.4661914,0.0344165436 Z"></path>
                </g>
            </g>
            <g id="Group" transform="translate(254.114191, 235.668041) rotate(-20.363653) translate(-254.114191, -235.668041) translate(73.114191, 117.168041)">
                <g transform="translate(0.267422, 28.966987)" fill="#EED769" fill-rule="nonzero" id="Path">
                    <path d="M26.1856057,31.6538336 C23.8144682,33.5784966 22.1306169,34.5751971 19.7594794,36.5342292 C19.1065575,36.981026 19.4502006,36.6373361 19.0721931,37.0841329 C13.2989887,40.4179243 7.49142001,43.7173467 1.75257991,47.154245 C1.09965798,47.5666728 0.790379176,48.5633733 0.309278808,49.3194909 C1.20275092,49.3538599 2.19931597,49.6631808 2.98969514,49.3882289 C4.98282524,48.7352182 6.94159102,47.9791006 8.79726387,47.0167691 C10.6529367,46.0200685 12.1306021,45.9856996 13.333353,47.8416247 L15.1890259,49.5257048 C14.9141114,49.8693947 14.8110185,50.0756086 14.6735612,50.1787155 C12.7835241,51.3816299 10.8934869,52.5501754 8.96908543,53.7187208 L7.52578432,55.402801 C11.4089516,56.2963945 14.3642824,54.1311486 17.2508846,52.2064855 C18.4879998,51.3816299 19.381472,51.4159989 20.5154943,51.9315337 C21.7182452,52.4814374 22.9209961,53.0657101 24.3299329,53.7530898 C21.7526095,55.6433839 19.4845649,57.2243571 16.9416058,59.1146512 C16.632327,59.7332929 16.8728772,59.9738757 16.9759701,60.2831966 C17.8694422,61.2798971 19.5532935,60.1113517 20.6185872,59.5958169 C22.6460816,58.6334854 24.6048474,57.430571 26.4605202,56.1589186 C27.6632711,55.334063 28.6254719,55.2309561 29.8969514,55.9527047 C30.7904235,56.4682394 31.9244458,56.5713464 33.1959254,56.9150362 C30.6873306,59.49271 27.8350927,61.1767902 24.7766689,62.5859185 C24.3299329,62.7921324 23.7113753,62.7921324 23.4020965,63.1358222 C23.024089,63.54825 22.7148102,64.2012607 22.6804459,64.7511644 C22.6804459,64.9573783 23.6426466,65.4729131 24.0206541,65.3698061 C26.323063,64.7167954 28.8316578,64.3387366 30.7904235,63.0670842 C34.5361335,60.6612554 37.9382004,57.7398918 41.5120889,55.0247422 C42.1650108,54.6123144 42.7835684,54.0967796 43.4708547,53.8218277 C46.4605498,52.5845443 49.4502449,51.4159989 52.4399401,50.2474535 C58.5224233,47.5323038 64.1581705,44.0954055 69.17536,39.6961756 C73.470899,35.9499565 86.5293376,21.4462455 90.7217836,17.5625504 C88.9348394,15.7409943 84.9485792,15.1223526 81.4434194,13.5413794 C79.0722819,10.9980746 69.3128173,3.12757747 66.4949437,0.0343689832 C61.3746612,4.84602664 52.543033,15.1910906 43.505219,20.3808071 C34.4330406,25.5705235 34.5017692,25.8454754 30.0000444,29.1105288 C29.7938585,29.2480047 26.3917916,31.6194646 26.1856057,31.6538336 Z"></path>
                </g>
                <g transform="translate(62.011500, 24.377010)" fill="#BE9F00" fill-rule="nonzero" id="Path">
                    <path d="M0,9.34836344 C4.46736056,20.518283 27.1134422,24.0239193 27.1134422,24.0239193 C28.9003864,22.0992562 31.5464384,20.3120691 33.3333826,18.387406 C28.3849217,15.7753633 20.2749441,13.4726414 17.3883419,11.1355506 C15.8075835,8.66098377 11.5120445,5.3271924 10.0343791,2.74951866 C9.58764304,1.99340103 9.31272855,1.06543848 8.93472111,0.240582883 C6.5979479,2.61204273 2.47423046,6.83942766 0,9.34836344 Z"></path>
                </g>
                <g transform="translate(20.762298, 66.363878)" fill="#5CB8C1" fill-rule="nonzero" id="Shape">
                    <path d="M8.62544231,4.36486087 L8.69417093,3.60874324 C9.7594646,2.13087696 11.1684014,2.02777001 14.9484757,1.92466306 C15.1890259,1.92466306 15.8075835,2.06213899 15.9450408,2.09650798 C16.0481337,2.13087696 16.3230482,2.19961493 16.3574125,2.23398391 C16.4261411,2.26835289 16.2543196,2.68078069 16.2199553,2.78388764 C16.1855909,2.92136357 15.5670333,3.29942239 14.0550036,3.84932612 C13.2646244,4.12427799 12.4742452,4.43359884 11.1684014,4.67418172 C9.31272855,5.01787155 8.9003568,4.84602664 8.62544231,4.36486087 Z M19.4158363,2.88699459 C19.7251151,2.09650798 18.4879998,0.859224581 17.5257991,0.618641698 C16.9416058,0.481165765 16.3917768,0.10310695 15.1202973,0.240582883 L13.3677174,0.653010681 C12.5773382,0.721748648 11.5807731,0.893593564 11.1340371,0.756117631 C10.9278512,0.721748648 9.27836423,0.274951866 9.27836423,0.274951866 C9.27836423,0.481165765 7.83506313,0.412427799 7.7319702,1.89029408 C7.69760588,2.33709086 7.25086983,2.78388764 7.04468396,3.09320849 C6.25430478,4.12427799 5.70447579,4.26175392 5.70447579,4.26175392 L4.50172487,5.9458341 C3.23024533,6.94253461 2.3024089,5.87709613 2.23368028,5.87709613 L1.30584386,3.84932612 L0.274914496,4.19301595 C0.240550184,4.33049189 -0.17182156,5.3271924 0.549828992,6.49573783 C0.549828992,6.49573783 0.8591078,7.90486614 2.54295909,8.86719767 C2.54295909,8.86719767 3.36770257,9.21088751 5.01718955,7.45806936 C5.39519698,7.08001055 6.0137546,6.66758275 6.21994047,6.70195173 C6.76976946,6.83942766 7.42269139,8.21418699 7.62887726,9.55457734 C7.83506313,10.7918607 8.55671368,13.4039035 10.0000148,14.9848767 L12.1993308,16.1534221 C12.1993308,16.1534221 13.0584386,16.6002189 15.8075835,15.3629355 C18.72855,14.0569141 17.182156,12.338465 14.8110185,13.1633206 C10.1718363,14.8474008 9.48455011,10.8262297 9.10654267,9.48583937 C8.86599249,8.59224581 8.14434194,6.9769036 7.80069882,6.25515495 C9.1752713,6.11767902 11.2027657,6.66758275 13.6426319,6.42699986 C18.1099924,6.01457207 18.831643,4.33049189 19.4158363,2.88699459 Z"></path>
                </g>
                <g transform="translate(193.759117, 0.292945)" fill="#C57937" fill-rule="nonzero" id="Path">
                    <path d="M1.389,0.771771562 L1.389,0.771771562 L1.1575,0.926125874 L0.926,1.31201166 C0.848833333,1.31201166 1.08033333,1.08048019 1.389,0.771771562 Z"></path>
                </g>
                <g transform="translate(189.025433, 64.193477)">
                    <g></g>
                </g>
                <g transform="translate(107.296790, 46.258023)" fill="#20100B" fill-rule="nonzero" id="Path">
                    <path d="M0.6945,0.926125874 L1.54333333,1.08048019 L0.6945,0.926125874 Z"></path>
                </g>
            </g>
            <g id="Group" transform="translate(100.000000, 156.000000)">
                <g transform="translate(0.317756, 0.121788)" fill="#EED769" fill-rule="nonzero" id="Path">
                    <path d="M59.0166491,49.0927007 C61.3182297,49.0583942 64.547313,49.1270073 67.7420443,49.1613139 C70.5245522,49.1956204 73.2727081,49.2642336 75.2994731,49.2642336 C81.2080084,49.229927 89.624236,48.9554745 101.819178,45.0788321 C116.521812,40.3788321 136.445943,29.6751825 143.934668,24.3233577 C151.457745,18.9715328 164.133614,5.86642336 157.606744,0.994890511 C153.106639,-2.36715328 143.488093,4.52846715 131.80843,10.9094891 C115.903477,19.5890511 99.3114858,25.7642336 90.8265543,27.2051095 C81.4141201,28.7832117 70.0779768,25.2153285 63.7228662,23.6029197 C54.344784,21.2014599 48.3331928,17.7021898 39.0581665,14.9576642 C22.8096944,8.1649635 9.68724974,6.07226277 5.59936776,9.02262774 C4.08788198,10.3948905 2.37028451,9.91459854 0.961854584,13.5510949 C-1.99241307,21.1328467 5.18714436,27.2051095 7.07650158,30.2927007 C7.69483667,31.2875912 8.7597471,31.9737226 9.61854584,32.8313869 C11.0613277,34.0664234 12.4354057,35.370073 13.9125395,36.5364964 C18.1378293,39.829927 22.8783983,42.1970803 27.9281349,44.049635 C28.5808219,44.2211679 41.428451,49.6759124 59.0166491,49.0927007 Z"></path>
                </g>
                <g transform="translate(145.593867, 3.039562)" fill="#C57937" fill-rule="nonzero" id="Path">
                    <path d="M1.07989134,0.462199188 L1.07989134,0.462199188 L0.77135096,0.616265584 L0.539945672,1.00143157 C0.617080768,1.00143157 0.77135096,0.77033198 1.07989134,0.462199188 Z"></path>
                </g>
                <g transform="translate(67.391654, 35.973869)" fill="#20100B" fill-rule="nonzero" id="Path">
                    <path d="M57.745627,0.0686131387 C45.516333,6.31240876 25.9357218,14.1343066 4.39704953,14.1343066 C2.95426765,14.1343066 1.51148577,14.1 0.0343519494,14.0313869 C2.47334036,14.1686131 5.39325606,14.3058394 8.6223393,14.3058394 C21.5043203,14.3058394 39.6765016,12.5218978 55.2379347,4.21970803 C55.9249737,2.74452555 56.7494204,1.3379562 57.745627,0.0686131387 Z"></path>
                </g>
                <g transform="translate(122.452677, 28.134818)" fill="#20100B" fill-rule="nonzero" id="Path">
                    <path d="M15.6988409,0.240145985 L15.6988409,0.240145985 C15.5270811,0.343065693 10.6834563,3.77372263 2.67945205,7.89051095 C1.71759747,9.19416058 0.858798736,10.6007299 0.171759747,12.0759124 C5.80547945,9.05693431 11.1300316,5.18029197 15.6988409,0.240145985 Z"></path>
                </g>
                <g transform="translate(153.915627, 63.393394)">
                    <g></g>
                </g>
                <g transform="translate(59.162645, 48.921168)" fill="#20100B" fill-rule="nonzero" id="Path">
                    <path d="M0.38567548,0.616265584 L1.23416154,0.77033198 L0.38567548,0.616265584 Z"></path>
                </g>
                <g transform="translate(59.420285, 48.977774)" fill="#20100B" fill-rule="nonzero" id="Path">
                    <path d="M0.309167545,0.410843722 C2.88556375,0.975753841 5.46195996,1.3352421 8.00400421,1.54066396 C4.01917808,1.1811757 1.23667018,0.616265584 0.309167545,0.410843722 Z"></path>
                </g>
            </g>
        </g>
    </g>
</svg>