<?xml version="1.0" encoding="UTF-8"?>
<svg width="330px" height="380px" viewBox="0 0 330 380" version="1.1" xmlns="http://www.w3.org/2000/svg" xmlns:xlink="http://www.w3.org/1999/xlink">
    <!-- Generator: Sketch 59.1 (86144) - https://sketch.com -->
    <title>Artboard</title>
    <desc>Created with Sketch.</desc>
    <defs>
        <filter x="-5.8%" y="-52.9%" width="111.5%" height="205.9%" filterUnits="objectBoundingBox" id="filter-1">
            <feGaussianBlur stdDeviation="3" in="SourceGraphic"></feGaussianBlur>
        </filter>
    </defs>
    <g id="Artboard" stroke="none" stroke-width="1" fill="none" fill-rule="evenodd">
        <g id="Mark" transform="translate(34.000000, 16.000000)">
            <ellipse id="Oval-Shadow-Copy" fill="#EBEBEB" filter="url(#filter-1)" cx="130" cy="340.5" rx="78" ry="8.5"></ellipse>
            <g id="Group" transform="translate(145.668484, 276.639397) rotate(0.739148) translate(-145.668484, -276.639397) translate(65.807779, 213.383394)" fill-rule="nonzero">
                <g transform="translate(0.580374, 0.151814)" fill="#6576A3" id="Path">
                    <path d="M4.83908429,95.0105178 C5.53490034,88.7481734 11.4809647,84.8579292 21.5386693,83.8142051 C31.5963739,82.770481 33.8103341,82.833737 33.6838221,82.549085 C32.13405,79.0700048 31.3749779,77.7416287 29.3507858,75.9704606 C25.8084496,73.3769645 21.2540173,74.2941765 16.984237,73.3453365 C13.9479488,72.9341724 12.0502687,69.2969522 14.1693449,67.1462481 C17.3005171,64.5527519 22.0763453,62.0857678 21.1591333,58.9862236 C19.4828492,53.8624873 19.5461052,53.4513233 18.7554051,52.3759712 C17.205633,50.2252671 15.940513,50.0987551 13.3470168,48.833635 C9.93119261,47.1573509 6.5153684,46.0819988 3.3525682,44.4057147 C-0.600932037,42.2550106 -0.948840058,37.6056943 2.05582013,36.7517382 C5.18699232,36.4038302 8.63444453,36.4038302 11.9237567,36.0559222 C11.7972447,35.6447582 10.3107286,28.3703177 9.8995646,24.9544935 C8.76095653,15.1814409 8.06514049,20.1154092 8.95072455,1.54977209 C46.2717668,-6.07257637 80.7779169,19.1665692 79.1648888,18.8186611 C74.7053406,27.8010137 68.0318321,34.1898701 65.311824,45.0066467 C67.8104361,45.1964148 71.2262603,45.3545548 73.3137085,45.5126948 C77.3620927,46.4299068 77.8681407,51.5852711 73.5034765,53.7043473 C70.8150963,54.7164433 67.0513641,56.2662154 64.3313559,57.7843595 C62.6866998,58.7015716 62.6234438,61.9276278 62.6866998,63.5090279 C62.8764678,67.6522961 63.0662358,68.8541602 63.4773999,71.1630043 C63.8885639,73.4718485 65.37508,80.9044289 76.5397647,83.7509491 C87.7044493,86.5974693 88.8430574,77.3620927 103.581706,76.7295327 C113.639411,76.2867406 152.099061,89.2225934 158.171638,93.6188857 C164.244214,98.015178 131.604116,110.729635 118.826403,116.296163 C106.04869,121.862691 100.51379,122.242227 97.793782,120.154779 C95.0737738,118.067331 69.9611403,100.98821 51.1424791,97.0979659 C32.323818,93.2393497 29.0028778,101.367746 29.0028778,101.367746 C29.0028778,101.367746 35.0438261,104.593802 40.8950065,109.559399 C46.7461868,114.493367 43.2671066,114.809647 38.8075584,116.359419 C35.7080142,117.434771 27.4847337,123.570604 22.2344854,125.468284 C19.8307572,126.353868 17.6800531,126.353868 16.731213,124.89898 C14.5805089,121.672923 3.51070821,106.807763 4.83908429,95.0105178 Z"></path>
                </g>
                <g transform="translate(70.968492, 45.398834)" fill="#FFFFFF" id="Path">
                    <path d="M0.316280019,0.0632560039 C0.853956052,3.76373223 1.07535207,6.16746038 0.253024015,9.58328458 C2.59349616,8.69770053 4.64931628,8.44467651 6.45211239,7.05304443 C7.30606845,6.42048439 7.81211648,5.40838833 7.90700048,4.23815226 C8.03351249,1.92930812 7.05304443,0.695816042 4.49117627,0.316280019 C2.90977618,0.189768012 2.34047214,0.0948840058 0.316280019,0.0632560039 Z"></path>
                </g>
                <g transform="translate(0.052186, 36.495551)" fill="#FFFFFF" id="Path">
                    <path d="M5.25024832,8.69770053 C4.58606028,5.78792435 3.92187224,3.19442819 3.2576842,0.284652017 C1.77116811,0.284652017 0.790700048,0.885584054 0.347908021,2.46698415 C-0.126512008,4.20652426 0.537676033,5.62978434 1.73954011,6.6418804 C2.65675216,7.46420845 3.73210423,8.03351249 5.25024832,8.69770053 Z"></path>
                </g>
            </g>
            <g id="Group" transform="translate(134.819913, 125.442564) rotate(2.705327) translate(-134.819913, -125.442564) translate(8.303943, 5.884973)" fill-rule="nonzero">
                <g transform="translate(9.844524, 129.950878)" fill="#61739F" id="Path">
                    <path d="M12.588339,58.134088 C12.588339,58.134088 -14.8339974,16.605221 12.2087911,0.0632579848 L23.2789384,21.5077148 L25.2399359,42.8256557 L12.588339,58.134088 Z"></path>
                </g>
                <g transform="translate(9.425440, 99.228056)" fill="#1E2D48" id="Path">
                    <path d="M45.3243461,32.4197172 C44.8815402,36.7212601 78.5347881,62.087712 78.5347881,62.087712 C78.5347881,62.087712 77.1747414,74.549535 61.1072133,83.7219428 C45.0396851,92.8943506 13.8534987,90.9333531 13.8534987,90.9333531 C13.8534987,90.9333531 3.92199505,75.0239699 1.10701473,61.4867612 C-1.70796559,47.9495524 2.72009334,38.5241127 2.72009334,38.5241127 C2.72009334,38.5241127 2.11914249,12.1139041 49.3412281,-7.0181242e-05 C49.3412281,-0.0316289924 47.4751176,10.6273414 45.3243461,32.4197172 Z"></path>
                </g>
                <g transform="translate(130.808024, 196.491952)" fill="#1B2A45" id="Path">
                    <path d="M0.221402947,26.0939187 C0.221402947,26.0939187 21.2230539,21.2230539 27.7069973,29.19356 C34.1909408,37.164066 30.8066386,1.70796559 30.8066386,1.70796559 L3.44756017,0.0316289924 L0.221402947,26.0939187 Z"></path>
                </g>
                <g transform="translate(14.497149, 0.151819)" fill="#6576A3" id="Path">
                    <path d="M59.0196998,218.176789 C57.881056,208.403431 60.0318275,185.345895 60.9174393,166.779677 C81.5395423,130.184933 47.5700045,108.29767 47.5700045,108.29767 C46.9057957,105.1664 45.83041,101.750468 45.545749,98.5875692 C44.9447982,91.8822229 45.0396851,85.1768765 47.6648915,78.819449 C47.8230365,78.4399011 47.6332625,77.7124343 47.3169726,77.3961443 C43.9642994,73.8536972 40.5483682,70.342879 37.164066,66.8004319 L0,32.2299432 L0.790724809,12.9362579 C11.7343562,9.48869771 22.8045035,6.67371739 34.2541987,5.31367072 C42.0033019,4.39642994 49.752405,3.98525304 57.5647661,4.17502699 C65.2189823,4.33317196 72.8099404,5.06063878 80.4008986,6.26254049 C83.057734,6.67371739 85.6829403,7.49607119 88.3081467,8.00213507 C89.0039845,8.12865104 89.9212253,8.09702205 90.5221762,7.78073212 C100.200648,2.53031939 110.733102,0.53769287 121.645105,0.158144962 C128.38208,-0.0632579848 135.087426,0.474434886 141.729515,1.73959458 C154.950434,4.30154296 167.380628,8.82448887 178.261001,17.2061719 C196.922107,30.3322037 204.070259,53.895803 204.449807,55.1293337 L204.007001,56.6791543 C204.007001,56.6791543 206.189401,119.494333 206.727094,119.968768 C206.758723,120.000397 206.727094,120.379945 206.695465,121.107412 C207.391303,121.202299 208.182028,121.265557 209.06764,121.328815 C202.109261,131.734753 193.759207,141.286709 186.263136,151.249842 C182.467657,156.31048 178.355888,161.65578 174.750183,167.348999 C173.200362,167.064338 171.650542,166.748048 170.069092,166.3685 C156.089077,185.440782 124.776375,225.514716 122.056282,236.333081 C124.554972,236.489976 59.4308767,221.592721 59.0196998,218.176789 Z"></path>
                </g>
                <g transform="translate(68.628588, 149.799652)" fill="#F06E5B" id="Path">
                    <path d="M104.786852,14.9921424 C104.786852,14.9921424 82.962847,26.0306607 63.9221936,23.6268573 C44.8815402,21.2546829 16.794995,0 16.794995,0 C16.794995,0 -1.42330466,64.1752255 0.12651597,67.2116088 C1.6763366,70.2479921 16.1940441,84.8289576 41.402351,87.8969698 C66.6106579,90.9333531 76.8900805,86.6001811 78.692933,85.1768765 C80.5274146,83.7535718 104.786852,14.9921424 104.786852,14.9921424 Z"></path>
                </g>
                <g transform="translate(40.545205, 57.797239)" fill="#8D8F55" id="Path">
                    <path d="M4.33317196,0.253031939 C2.9098673,1.96099753 1.39167566,3.7322211 0,5.44018669 C1.07538574,6.32579848 3.41593118,8.47656996 3.41593118,8.47656996 C3.66896312,8.38168298 6.48394344,4.9657518 7.8756191,3.38430218 L4.33317196,0.253031939 Z"></path>
                </g>
                <g transform="translate(23.490853, 42.994871)" fill="#8D8F55" id="Path">
                    <path d="M4.33317196,0.253031939 C2.9098673,1.96099753 1.39167566,3.7322211 0,5.44018669 C1.07538574,6.32579848 3.41593118,8.47656996 3.41593118,8.47656996 C3.66896312,8.38168298 6.48394344,4.9657518 7.84399011,3.38430218 L4.33317196,0.253031939 Z"></path>
                </g>
                <g transform="translate(0.241962, 13.145009)" fill="#FFFFFF" id="Path" stroke="#9FADCC" stroke-width="2.35003413">
                    <path d="M15.7512382,0 C15.4665773,6.42068545 15.3716903,13.6637247 15.1186584,20.0844102 C13.6320957,19.0406534 11.9873881,17.4592038 10.5957124,16.2889311 C7.36955522,13.5372087 4.17502699,10.6905994 1.01212776,7.8756191 C-0.253031939,6.76860437 -0.284660931,6.16765351 1.2335307,5.56670266 C5.50344467,3.85873707 15.2135453,0.158144962 15.7512382,0 Z"></path>
                </g>
                <g transform="translate(77.454658, 78.137844)" fill="#1B2A45" id="Path">
                    <path d="M10.2794225,22.8361325 C4.9657518,17.7438647 0.0632579848,8.53982794 0.0632579848,1.83448156 C0.0632579848,-0.822353802 2.56194838,0.474434886 2.9098673,1.86611055 C3.85873707,4.90249382 4.17502699,8.06539306 5.31367072,11.0385183 C6.48394344,14.2330466 10.3426805,22.7728745 10.2794225,22.8361325 Z"></path>
                </g>
                <g transform="translate(72.367135, 85.306555)" fill="#1B2A45" id="Path">
                    <path d="M8.63471492,18.3764446 C5.88299258,17.3010588 1.92936853,13.3790638 0.347918916,4.23828498 C0.316289924,4.143398 -0.158144962,0.948869771 1.2335307,0.253031939 C2.11914249,-0.189773954 3.06801226,0.822353802 3.13127025,2.40380342 C3.41593118,7.36955522 6.29416948,13.5372087 8.06539306,16.9847689 C8.31842499,17.4275748 8.44494096,17.9020097 8.63471492,18.3764446 Z"></path>
                </g>
                <g transform="translate(68.242714, 93.598096)" fill="#1B2A45" id="Path">
                    <path d="M7.8756191,15.4033193 C2.68846435,13.4739508 0.822353802,9.67847167 0.12651597,4.9973808 C0,4.08014002 -0.0316289924,2.46706141 0.189773954,1.61307861 C1.20190171,-1.61307861 2.65683536,1.54982063 2.68846435,2.15077148 C3.03638327,6.07276654 4.5545749,9.5519557 6.42068545,12.9362579 C6.83186235,13.6320957 7.24303925,14.2963046 7.8756191,15.4033193 Z"></path>
                </g>
                <g transform="translate(16.424936, 30.618446)" fill="#BABC6C" id="Path">
                    <path d="M7.08489429,17.8071227 C6.35742747,17.2061719 6.2309115,16.1624151 6.29416948,15.6247222 C6.57883041,13.7902407 7.90724809,10.8487444 11.0385183,7.8756191 C14.1697886,4.90249382 13.7902407,2.37217443 13.3790638,1.29678869 C12.9995159,0.253031939 10.2477935,-1.80285257 4.58620389,4.58620389 C-1.07538574,10.9752604 -1.29678869,19.4202013 3.38430218,21.9188917 C8.06539306,24.4175821 10.4691965,20.811877 10.4691965,20.811877 C10.4691965,20.811877 8.06539306,18.6294765 7.08489429,17.8071227 Z"></path>
                </g>
                <g transform="translate(19.306337, 34.818776)" fill="#D9DAAC" id="Path">
                    <path d="M0.506063878,9.71010066 C-0.853982794,6.29416948 2.0558845,0.316289924 4.93412281,0.284660931 L0.506063878,9.71010066 Z"></path>
                </g>
                <g transform="translate(33.479288, 45.422396)" fill="#BABC6C" id="Path">
                    <path d="M7.08489429,17.8071227 C6.35742747,17.1745429 6.2309115,16.1624151 6.29416948,15.6247222 C6.57883041,13.7902407 7.90724809,10.8487444 11.0385183,7.8756191 C14.1697886,4.90249382 13.7902407,2.37217443 13.3790638,1.32841768 C12.9995159,0.253031939 10.2477935,-1.77122357 4.58620389,4.61783289 C-1.07538574,11.0068893 -1.29678869,19.4518303 3.38430218,21.9505207 C8.06539306,24.4492111 10.4691965,20.843506 10.4691965,20.843506 C10.4691965,20.843506 8.06539306,18.6294765 7.08489429,17.8071227 Z"></path>
                </g>
                <g transform="translate(36.357527, 49.621145)" fill="#D9DAAC" id="Path">
                    <path d="M0.506063878,9.71010066 C-0.853982794,6.29416948 2.0558845,0.316289924 4.93412281,0.284660931 C3.47918916,3.35267319 2.0558845,6.35742747 0.506063878,9.71010066 Z"></path>
                </g>
                <g transform="translate(151.292541, 110.366206)" fill="#1E2D48" id="Path">
                    <path d="M3.00475428,104.944997 C7.0532653,90.2058863 2.43543241,55.9516875 2.43543241,55.9516875 C2.43543241,55.9516875 18.0601546,50.7645328 34.5388597,33.4002159 C51.0491937,16.0358991 53.769287,13.5688377 60.2532305,7.81236112 C64.1119675,4.39642994 67.9707046,1.86611055 72.0508446,0.158144962 C80.0846087,18.8192505 79.3571419,38.3659678 76.3523876,57.881056 C55.3507367,63.6691617 34.5704887,63.8905646 34.5704887,63.8905646 L38.9352896,94.5074292 C38.9352896,94.5074292 38.1445648,96.0888788 25.5245968,107.253913 C12.9046289,118.418947 2.0558845,120.063655 2.0558845,120.063655 C2.0558845,120.063655 -2.65683536,125.598729 3.00475428,104.944997 Z"></path>
                </g>
                <g transform="translate(47.601634, 102.798970)" fill="#1E2D48" id="Path">
                    <path d="M8.44494096,68.0023336 C8.03376406,67.3064958 3.82710808,66.8636899 0.0632579848,66.6739159 C0.0948869771,45.9252969 2.68846435,25.018533 5.62996064,4.71271986 C5.8197346,3.41593118 5.85136359,2.15077148 5.72484762,0.885611787 C6.51557243,0.695837832 7.11652328,0.53769287 7.49607119,0.316289924 C11.7027272,-1.70796559 25.4613389,16.510334 35.9305353,28.5926091 C46.3997318,40.6748842 68.9195744,64.6812894 70.3112501,67.9707046 C71.6712967,71.2284908 68.7930584,80.9702205 68.1604786,91.5343039 C67.5278987,102.130016 67.1483508,116.584466 67.1483508,116.584466 C67.0534638,117.438449 66.484142,127.369952 62.4988889,127.085291 C53.895803,126.421083 38.7455157,117.40682 26.2836927,108.835363 C14.6442235,100.864857 12.493452,97.1010066 12.493452,97.1010066 C11.4180662,94.2543973 9.17240779,69.2358643 8.44494096,68.0023336 Z"></path>
                </g>
                <g transform="translate(56.464077, 98.718830)" fill="#FFFFFF" id="Path">
                    <path d="M60.0950855,104.091014 C60.7592944,96.8163457 61.1072133,89.5100484 61.5816482,82.2353802 C61.5816482,82.0772352 61.7081641,81.9190903 61.7714221,81.7609453 C62.309115,78.2184981 62.6254049,74.644422 63.4477587,71.1652328 C63.9854516,68.8879454 63.3528717,67.1799798 61.9295671,65.5985302 C59.4941347,62.9100658 56.9321863,60.2848595 54.4967539,57.5963951 C48.3291003,50.8277907 42.0349309,44.1540734 36.0254223,37.227324 C30.0159138,30.3005747 9.04589182,6.19928251 4.39642994,0.316289924 C3.19452823,-1.20190171 -2.37217443,3.85873707 1.51819163,19.3253143 C3.70059211,30.8698966 3.66896312,44.7233952 5.8197346,56.2996064 C6.38905646,59.3359897 6.45231444,59.3359897 9.52032671,59.9685695 C9.89987461,60.0318275 10.3110515,60.0950855 10.6905994,60.1267145 C18.4397026,61.1388423 26.1888057,62.182599 33.9379088,63.2263558 C35.0449236,63.3845007 36.1203093,63.6375327 37.227324,63.8273066 C37.227324,64.0170806 37.227324,64.2068545 37.195695,64.3966285 C35.2346975,64.8710634 33.2737,65.2506113 31.3759604,65.8831911 C28.7191251,66.7688029 26.1571767,67.9707046 23.5003413,68.8246874 C21.0016509,69.6154122 20.4323291,70.722427 22.2351816,72.6517955 C26.7897565,77.4910313 31.5657344,82.1721222 36.1203093,87.042987 C41.465609,92.7678346 47.4751176,97.9549894 51.7134025,104.53382 C53.769287,107.696719 58.102459,116.837498 59.1145867,116.489579 C59.7787956,112.599213 59.7471666,107.98138 60.0950855,104.091014 Z"></path>
                </g>
                <g transform="translate(82.988150, 168.688486)" fill="#1B2A45" id="Path">
                    <path d="M12.0822751,0.221402947 C8.98263383,1.42330466 5.85136359,1.54982063 2.65683536,1.04375675 C1.96099753,0.948869771 1.17027272,1.2651597 0.0948869771,1.42330466 C1.92936853,3.22615722 3.38430218,4.58620389 4.74434886,6.07276654 C6.76860437,8.31842499 8.6979729,10.6905994 10.7222284,12.9678869 C10.9752604,13.2525478 11.4180662,13.3790638 11.7343562,13.5688377 C11.8292431,13.3474348 11.9873881,13.0944028 12.0190171,12.8729999 C12.24042,10.4691965 12.493452,8.03376406 12.588339,5.62996064 C12.7148549,3.82710808 14.0749016,1.92936853 12.0822751,0.221402947 Z"></path>
                </g>
                <g transform="translate(78.027143, 195.908397)" fill="#FFFFFF" id="Path">
                    <path d="M0.221402947,12.2087911 L17.0796559,0.0316289924 C18.5029605,1.77122357 19.7681202,3.22615722 20.938393,4.77597785 C21.5709728,5.62996064 21.5393438,6.42068545 20.3690711,7.0532653 C15.8144962,9.52032671 11.2915503,12.0822751 6.73697538,14.5809655 C6.45231444,14.7391104 6.00950855,14.9605134 5.7881056,14.8656264 C4.01688203,14.1065306 2.30891644,13.2209188 0.221402947,12.2087911 Z"></path>
                </g>
                <g transform="translate(166.069606, 191.257354)" fill="#FFFFFF" id="Path">
                    <path d="M3.19452823,0.0632579848 C5.06063878,3.57407614 6.95837832,7.17978127 8.85611787,10.7222284 C9.5519557,12.0506461 10.3426805,13.3158058 11.1017763,14.5809655 C11.5762112,15.3716903 10.6905994,18.3448156 9.36218174,19.3885723 C8.63471492,18.1866706 7.90724809,16.9531399 7.14815228,15.8144962 C5.7881056,13.7902407 4.39642994,11.7659852 3.03638327,9.74172965 C2.0558845,8.31842499 1.07538574,6.89512034 0.253031939,5.34529971 C0.0316289924,4.93412281 0.411176901,3.98525304 0.727466825,3.44756017 C1.42330466,2.34054544 2.27728745,1.32841768 3.19452823,0.0632579848 Z"></path>
                </g>
                <g transform="translate(150.277250, 121.433190)" fill="#FFFFFF" id="Path">
                    <path d="M1.83448156,87.7071959 C1.83448156,87.7071959 2.0558845,64.6496604 0.695837832,55.8568005 C-0.66420884,47.0639407 0.885611787,45.545749 1.89773954,45.1345721 C2.94149629,44.7233952 13.7586117,39.7892724 24.4175821,31.0596705 C35.1081815,22.3300686 40.6116262,15.4033193 40.6116262,15.4033193 L55.8884295,0.0632579848 C55.8884295,0.0632579848 50.6380168,23.1840514 45.8936679,32.8308941 L41.1493191,42.4461078 C41.1493191,42.4461078 23.2789384,39.5678695 23.6584863,39.6311274 C24.0696632,39.6943854 32.6094911,45.83041 33.178813,48.5821323 C33.7165059,51.3338546 25.6194838,56.3628644 15.4982063,68.6032845 C5.44018669,80.8437045 1.83448156,87.7071959 1.83448156,87.7071959 Z"></path>
                </g>
                <g transform="translate(168.924122, 166.656324)" fill="#1B2A45" id="Path">
                    <path d="M0.253031939,10.4059385 C1.73959458,7.17978127 3.47918916,3.47918916 5.06063878,0.0316289924 C7.36955522,1.10701473 9.42543973,2.0558845 12.0506461,3.28941521 C8.16028003,6.00950855 6.04113754,9.89987461 0.948869771,10.4059385 C0.632579848,10.5008255 0.379547909,10.5640835 0.253031939,10.4059385 Z"></path>
                </g>
                <g transform="translate(89.759917, 52.497802)" fill="#C5CDE8" id="Path">
                    <path d="M103.711466,0.347918916 C103.300289,0.316289924 102.889112,0.221402947 102.509564,0.221402947 C96.8479747,0.632579848 91.186385,1.04375675 85.5247954,1.45493365 C60.4746334,3.25778621 40.3269653,9.80498764 36.6263732,10.6589704 C34.4123437,7.59095817 31.5341054,3.76385009 25.018533,2.40380342 C22.3933266,1.86611055 14.7391104,0.12651597 7.8756191,4.9973808 C5.25041273,6.83186235 3.22615722,9.52032671 2.0875135,12.7781129 C-0.506063878,20.2109261 -0.727466825,30.5536066 2.4986904,39.9790464 C11.8292431,67.0850928 29.7312528,90.6170632 67.8758176,93.9064784 C68.2237366,93.9697363 90.7752081,93.0841246 114.496952,78.756191 C124.871262,72.4936505 135.466974,63.6375327 144.512866,51.1757097 C147.644136,47.0323117 150.648891,42.6991397 153.021065,38.0813068 C156.278851,31.7555083 158.461252,24.923646 160.327362,17.9968967 C161.434377,13.9483856 162.952569,10.0580196 162.762795,5.69321863 C162.667908,3.60570513 162.066957,2.46706141 159.979443,2.21402947 C157.670527,1.96099753 103.711466,0.347918916 103.711466,0.347918916 Z"></path>
                </g>
                <g transform="translate(140.097459, 53.840452)" fill="#F4B1A0" id="Path">
                    <path d="M46.1466999,0.853982794 C46.8109087,1.45493365 47.3486016,1.2335307 48.8667932,1.32841768 C52.4408694,1.51819163 56.0149455,2.02425551 59.5890216,2.37217443 C56.1098325,3.22615722 52.6622723,4.11176901 49.1514542,4.93412281 C45.8936679,5.69321863 45.8620389,5.66158964 47.1588276,7.97050608 C49.625889,12.272049 52.1245794,16.605221 54.5600118,20.906764 C54.7181568,21.1597959 54.7814148,21.4760858 54.9711887,22.0454077 L53.0734492,21.1281669 C53.0734492,21.7291178 53.0418202,22.2035526 53.0418202,22.7096165 C52.8836753,22.7412455 52.7255303,22.7412455 52.5673853,22.7728745 C51.1124517,20.2425551 49.878921,17.6489777 48.1393264,15.2135453 C46.4629898,12.8413709 44.2489603,10.6589704 42.2563338,8.38168298 C41.339093,7.33792623 40.2004493,7.14815228 38.7455157,7.59095817 C29.3833339,10.5008255 19.8630072,13.2525478 10.6905994,16.415447 C7.59095817,17.4908328 5.31367072,19.5467173 2.72009334,21.1914249 C2.21402947,21.5077148 1.80285257,21.9188917 1.2651597,22.3933266 C-0.442805893,21.0649089 -1.38777878e-17,19.8946362 1.01212776,19.1039114 C3.76385009,16.9531399 6.38905646,14.6125945 9.71010066,12.9362579 C16.700108,9.36218174 24.1329212,6.16765351 31.3443314,2.78335133 C32.0717983,2.43543241 32.5146042,1.86611055 33.115555,1.39167566 C33.305329,0.316289924 33.9062798,-0.12651597 35.6142454,0.632579848 C36.0886803,0.853982794 37.9231619,1.39167566 38.5241127,1.2651597 C44.0275574,0.885611787 46.1466999,0.853982794 46.1466999,0.853982794 Z"></path>
                </g>
                <g transform="translate(110.519607, 72.811522)" fill="#AC473C" id="Path">
                    <path d="M0.189773954,7.55932918 C0.189773954,7.55932918 24.5757271,11.5762112 62.8151789,9.45706872 C101.054631,7.36955522 127.844387,0.189773954 127.844387,0.189773954 C127.844387,0.189773954 110.227038,12.619968 104.597078,22.6779875 C98.9671171,32.7360071 95.9939919,40.2320783 93.4004145,41.560496 C90.8068371,42.8889137 73.6322943,50.2584689 50.8594197,45.3243461 C28.0549162,40.3902233 18.3448156,34.9816656 9.26729477,23.3738254 C0.189773954,11.7659852 0.189773954,7.55932918 0.189773954,7.55932918 Z"></path>
                </g>
                <g transform="translate(119.285582, 95.782078)" fill="#F06E5B" id="Path">
                    <path d="M43.9959284,5.85136359 C23.4687123,1.13864373 0.189773954,0.12651597 0.189773954,0.12651597 C0.189773954,0.12651597 0.284660931,0.316289924 0.442805893,0.632579848 L0.474434886,0.695837832 C9.5519557,12.303678 19.2620564,17.7438647 42.0665599,22.6463585 C46.1466999,23.5319703 50.0370659,24.0064052 53.7060291,24.1961792 C57.2801052,24.3226951 60.3481175,24.3226951 63.4477587,24.0696632 C67.3064958,23.7533733 70.7856849,23.1840514 73.7271812,22.4882136 C77.8705792,20.2425551 63.5426457,10.3426805 43.9959284,5.85136359 Z"></path>
                </g>
                <g transform="translate(167.553006, 80.726677)" fill="#FFFFFF" id="Path">
                    <path d="M1.70796559,6.19928251 C3.41593118,11.1650343 5.09226777,16.1307861 6.80023336,21.2546829 C7.11652328,20.843506 7.36955522,20.558845 7.59095817,20.2425551 C12.0822751,13.5372087 16.573592,6.80023336 21.0649089,0.0948869771 C16.2256731,0.53769287 11.1334053,0.948869771 5.8197346,1.2335307 C3.92199505,1.32841768 2.02425551,1.42330466 0.189773954,1.51819163 C0.189773954,2.0875135 0.0948869771,2.65683536 0.284660931,3.13127025 C0.66420884,4.17502699 1.32841768,5.12389676 1.70796559,6.19928251 Z"></path>
                </g>
                <g transform="translate(188.385441, 42.618486)" fill="#1E2C47" id="Path">
                    <path d="M0.253031939,8.63471492 C0.695837832,9.17240779 2.9098673,7.4644422 5.53507367,5.53507367 C8.16028003,3.60570513 10.6273414,3.44756017 11.3548083,3.47918916 C12.0506461,3.51081815 12.1771621,2.46706141 10.6589704,0.980498764 C9.1407788,-0.474434886 7.4644422,-0.284660931 4.45968792,1.86611055 C1.45493365,4.08014002 -0.53769287,7.68584515 0.253031939,8.63471492 Z"></path>
                </g>
                <g transform="translate(144.115922, 82.086724)" fill="#FFFFFF" id="Path">
                    <path d="M5.44018669,15.5614642 C5.75647661,16.573592 7.08489429,19.7048622 7.17978127,20.1160392 C8.22353802,20.4323291 15.7196092,7.11652328 18.0601546,3.35267319 C18.6611055,2.37217443 19.1355404,1.32841768 19.6732333,0.284660931 C12.588339,0.506063878 6.10439553,0.53769287 0.253031939,0.411176901 C0.442805893,1.45493365 0.632579848,2.4986904 0.980498764,3.44756017 C2.37217443,7.52770019 3.92199505,11.5445822 5.44018669,15.5614642 Z"></path>
                </g>
                <g transform="translate(118.167497, 80.997105)" fill="#FFFFFF" id="Path">
                    <path d="M10.7538574,14.7707394 L12.272049,16.415447 L12.619968,16.9531399 L13.8218697,15.2451743 C16.700108,11.1650343 19.5150883,7.08489429 22.4565846,3.06801226 C22.9310195,2.43543241 22.9942775,1.92936853 22.7728745,1.42330466 C12.9362579,1.13864373 5.21878374,0.53769287 0.0316289924,-3.33959936e-14 C0.0632579848,0.0948869771 0.0948869771,0.221402947 0.158144962,0.284660931 C3.70059211,5.12389676 7.21141026,9.93150361 10.7538574,14.7707394 Z"></path>
                </g>
                <g transform="translate(130.308286, 96.789461)" fill="#FFFFFF" id="Path">
                    <path d="M8.66634391,2.4986904 L6.99000731,0.0632579848 L5.88299258,2.0558845 C4.64946188,4.23828498 1.45493365,8.44494096 0.189773954,10.2161645 C4.71271986,13.4106928 10.0580196,15.9093832 17.0796559,18.1234126 C16.541963,17.1745429 16.0042701,16.2573021 15.4982063,15.3084323 C13.2525478,11.0385183 10.9752604,6.76860437 8.66634391,2.4986904 Z"></path>
                </g>
                <g transform="translate(123.751596, 47.943227)" fill="#1B2A45" id="Path">
                    <path d="M0.569321863,2.68846435 C-0.569321863,3.51081815 1.2651597,5.34529971 2.65683536,5.4085577 C4.01688203,5.47181568 10.5008255,4.71271986 16.0991571,5.94625057 C21.6974888,7.17978127 27.8018843,11.1650343 28.6874961,10.8803734 C29.5731079,10.5957124 31.8820243,10.7538574 30.6484936,8.22353802 C29.4149629,5.66158964 23.6584863,1.99262652 16.605221,0.695837832 C9.52032671,-0.569321863 2.24565846,1.48656264 0.569321863,2.68846435 Z"></path>
                </g>
                <g transform="translate(146.157574, 193.185141)" fill="#FFFFFF" id="Path">
                    <path d="M12.7781129,0.189773954 C9.89987461,0.790724809 6.99000731,1.42330466 4.08014002,1.99262652 C3.09964125,2.18240047 2.0875135,2.11914249 1.10701473,2.43543241 C0.727466825,2.56194838 0.189773954,3.38430218 0.12651597,3.89036606 C-0.189773954,6.45231444 1.70796559,8.6979729 2.62520637,10.3110515 C6.04113754,15.1819163 11.1017763,21.6026018 16.447076,24.986904 C16.510334,25.018533 18.3764446,26.0622897 18.7243635,26.2204347 C18.6927345,24.765501 18.8192505,23.2789384 18.6294765,21.8872627 C17.5540908,14.1381596 15.4982063,6.95837832 12.7781129,0.189773954 Z"></path>
                </g>
                <g transform="translate(15.795519, 152.647843)" fill="#FFFFFF" id="Path">
                    <path d="M13.3158058,0.695837832 C12.8729999,-0.316289924 12.1455331,0.221402947 9.23566577,2.02425551 C7.4644422,3.13127025 5.44018669,5.28204173 3.25778621,8.31842499 C1.92936853,10.1529066 0.759095817,14.1065306 0.379547909,17.0163979 C0.12651597,18.9457664 -0.189773954,20.4955871 0.853982794,20.4639581 C2.21402947,20.590474 1.6447076,18.8825084 1.96099753,16.731737 C2.34054544,14.3279335 2.94149629,11.2282923 4.64946188,9.01426283 C7.8756191,4.77597785 8.16028003,4.71271986 9.61521368,3.51081815 C12.1139041,1.39167566 13.7586117,1.70796559 13.3158058,0.695837832 Z"></path>
                </g>
                <g transform="translate(21.387525, 164.851890)" fill="#FFFFFF" id="Path">
                    <path d="M0.158144962,1.73959458 C-0.189773954,3.00475428 0.632579848,4.33317196 2.02425551,4.71271986 C3.41593118,5.09226777 4.80760684,4.39642994 5.18715475,3.13127025 C5.53507367,1.86611055 4.71271986,0.53769287 3.3210442,0.158144962 C1.92936853,-0.221402947 0.506063878,0.474434886 0.158144962,1.73959458 Z"></path>
                </g>
                <g transform="translate(112.915503, 0.000000)" fill="#6273A0" id="Path">
                    <path d="M0.284660931,3.57407614 C0.284660931,3.57407614 82.994476,-7.17978127 103.711466,49.1198252 C103.711466,49.1198252 79.0408519,-15.0870294 0.284660931,3.57407614 Z"></path>
                </g>
                <g transform="translate(189.853027, 54.243722)" fill="#B8C1DF" id="Path">
                    <path d="M56.2047195,0.759095817 C56.2047195,0.759095817 65.8515621,-3.25778621 61.8979381,9.39381074 C61.8979381,9.39381074 56.3628644,59.3676187 0.221402947,84.0382609 C0.221402947,84.0698617 56.8372993,57.5015081 56.2047195,0.759095817 Z"></path>
                </g>
                <g transform="translate(93.199570, 95.623933)" fill="#60719C" id="Path">
                    <path d="M0.189773954,0.0948869771 C0.189773954,0.0948869771 11.6710982,47.8546655 66.294368,50.7961618 C66.294368,50.7961618 91.281272,47.3169726 95.614444,42.9838006 C95.614444,42.9838006 81.2865104,51.7450315 65.8831911,52.1562084 C65.8831911,52.1562084 40.0423043,52.8836753 21.5077148,36.2468253 C21.4760858,36.2468253 1.86611055,19.2620564 0.189773954,0.0948869771 Z"></path>
                </g>
                <g transform="translate(150.633076, 138.811740)" fill="#5C6D9A" id="Path">
                    <path d="M38.1761938,0.12651597 C38.1761938,0.12651597 23.6901153,17.7754937 0.0632579848,28.8140121 L0.221402947,26.6632406 C0.221402947,26.6948696 19.0406534,17.9968967 38.1761938,0.12651597 Z"></path>
                </g>
                <g transform="translate(111.634529, 38.409932)" fill="#1B2A45" id="Path">
                    <path d="M0.0948869771,11.0701473 C0.0948869771,11.0701473 22.2668106,38.1129358 42.6042527,36.9110341 C62.9416948,35.7407614 70.8173139,9.80498764 70.8173139,9.80498764 C70.8173139,9.80498764 73.6639232,11.7343562 77.0482254,14.5493365 C77.1431124,14.5177075 86.979729,14.7707394 91.9138518,14.8023684 C95.8358469,14.8339974 100.675083,15.6247222 101.149518,15.0237714 C105.609206,9.71010066 108.139525,1.80285257 108.139525,1.80285257 C108.139525,1.80285257 105.008255,-0.569321863 89.7630804,0.411176901 C74.517906,1.39167566 69.3940093,2.37217443 69.3940093,2.37217443 C69.3940093,2.37217443 51.2073387,4.01688203 34.0960538,6.07276654 C16.9847689,8.12865104 0.0948869771,11.0701473 0.0948869771,11.0701473 Z"></path>
                </g>
                <g transform="translate(206.459829, 76.423553)" fill="#FFFFFF" id="Path">
                    <path d="M0,13.7586117 C0,14.6442235 0.158144962,16.1940441 0.442805893,17.3643168 C3.13127025,14.3279335 5.88299258,11.1966633 8.03376406,8.38168298 C10.0263906,5.7881056 11.7343562,3.00475428 13.5372087,0.221402947 C9.80498764,0.885611787 5.56670266,1.51819163 0.885611787,2.18240047 C0.53769287,4.61783289 0.0316289924,11.2915503 0,13.7586117 Z"></path>
                </g>
                <g transform="translate(187.159818, 102.865390)" fill="#FFFFFF" id="Path">
                    <path d="M14.0749016,0.0316289924 C12.7464839,1.73959458 11.7659852,3.16289924 10.6273414,4.49131692 C8.22353802,7.27466825 5.75647661,10.0263906 3.3210442,12.7781129 C2.21402947,14.1381596 1.13864373,15.5298353 0.0316289924,16.8898819 C7.11652328,15.8144962 12.303678,13.9167566 14.7074815,12.8729999 C14.7707394,9.1091498 14.3911915,0.695837832 14.0749016,0.0316289924 Z"></path>
                </g>
                <g transform="translate(190.634263, 78.734051)" fill="#FFFFFF" id="Path">
                    <path d="M16.541963,0 C11.4496952,0.695837832 6.10439553,1.45493365 0.158144962,2.0558845 C0.53769287,9.86824562 1.29678869,25.7143708 1.58144962,25.7776288 C6.38905646,17.6489777 11.7027272,8.22353802 16.541963,0 Z"></path>
                </g>
            </g>
            <g id="Group" transform="translate(199.086656, 50.173361) rotate(13.102405) translate(-199.086656, -50.173361) translate(194.025917, 44.796325)" fill="#1B2A45" fill-rule="nonzero">
                <g transform="translate(0.229315, 0.060096)" id="Path">
                    <path d="M0.253036979,9.71029408 C0.727481315,8.85629427 1.8345181,7.43296126 2.46711055,6.70547995 C4.26999902,4.64955449 5.40866543,3.13133262 7.27481315,1.13866641 C9.67866445,-1.32844414 10.4377754,0.822370182 9.20422012,2.02429583 C8.00229447,3.22622148 6.67385033,4.33325827 5.44029505,5.56681354 C4.14348053,6.83199844 2.94155488,8.16044258 1.67636999,9.4572571 C1.42333301,9.71029408 0,10.9122197 0.253036979,9.71029408 Z"></path>
                </g>
            </g>
            <g id="Group" transform="translate(153.659005, 48.857772) rotate(2.028640) translate(-153.659005, -48.857772) translate(143.221310, 43.480777)" fill="#1B2A45" fill-rule="nonzero">
                <g transform="translate(0.107540, 0.289409)" id="Path">
                    <path d="M0.316293793,0.189776276 C0.822363863,0.189776276 1.39169269,0.0316293793 1.80287462,0.221405655 C7.33801601,2.49872097 12.841528,4.80766566 18.3134106,7.17986911 C18.9776276,7.46453352 19.5785858,8.00223297 20.0530265,8.53993242 C20.8753904,9.4888138 20.4642084,11.0386534 18.8511101,10.0265133 C17.9971168,9.4888138 17.1431236,8.91948497 16.2258716,8.47667366 C11.1651709,6.07284083 6.07284083,3.73226676 1.01214014,1.32843393 C0.695846346,1.17028704 0.47444069,0.853993242 0.189776276,0.632587587 C0.253035035,0.506070069 0.284664414,0.347923173 0.316293793,0.189776276 Z"></path>
                </g>
            </g>
            <g id="Group" transform="translate(195.517123, 203.536369) rotate(-1.587322) translate(-195.517123, -203.536369) translate(151.712318, 175.071153)" fill-rule="nonzero">
                <g transform="translate(12.889999, 2.381590)" fill="#61739F" id="Path">
                    <path d="M55.9499642,42.9508487 C67.6207029,33.2726752 82.2961034,10.8484102 60.1564906,2.27721731 C42.6345686,-4.5228066 33.4940713,7.21118815 24.4168301,11.8921348 C18.3126225,17.8382023 8.69770501,24.1954339 0.0948840546,25.966603 C2.84652164,32.7349989 4.90234282,39.914559 5.97769544,47.6950515 C6.16746355,49.0550563 6.04095148,50.5732011 6.0725795,52.02809 C8.44468086,53.2299547 38.4596702,59.5239303 55.9499642,42.9508487 Z"></path>
                </g>
                <g transform="translate(0.031628, 28.080936)" fill="#FFFFFF" id="Path">
                    <path d="M12.9674875,0.189768109 C10.0893378,0.790700455 7.17956014,1.42326082 4.26978246,1.99256515 C3.28931389,2.18233326 2.27721731,2.11907722 1.29674875,2.4353574 C0.917212528,2.56186948 0.379536219,3.38419795 0.316280182,3.89024624 C-5.55111512e-17,6.45211572 1.89768109,8.69770501 2.81489362,10.3107339 C6.23071959,15.1814487 11.2912025,21.6019364 16.6363376,24.9861344 C16.6995936,25.0177624 18.5656467,26.061487 18.9135549,26.2196271 C18.8819269,24.7647383 19.0084389,23.2782214 18.8186708,21.8865886 C17.7433182,14.1377241 15.687497,6.95816401 12.9674875,0.189768109 Z"></path>
                </g>
                <g transform="translate(25.757858, 0.251443)" fill="#1E2D48" id="Path">
                    <path d="M0.126512073,22.7089147 C0.126512073,22.7089147 7.74886446,7.17956014 23.5312456,1.86605307 C33.2410471,-1.3916328 54.6215875,0.411164237 59.081138,5.0288549 C63.7937127,9.93119772 62.8765002,29.7303371 46.0820225,43.8364332 C46.0820225,43.8364332 21.3805403,5.3767631 0.442792255,22.8354292"></path>
                </g>
            </g>
            <g id="Group" transform="translate(55.276619, 177.096434) rotate(2.705327) translate(-55.276619, -177.096434) translate(29.024555, 151.635095)" fill-rule="nonzero">
                <g transform="translate(0.200844, 5.460746)" fill="#6576A3" id="Path">
                    <path d="M18.0285257,44.8499112 C5.09226777,43.0470586 0.284660931,35.2979555 0.12651597,35.9305353 C0.12651597,35.9305353 2.75172234,24.986904 19.3569433,5.31367072 C30.2056877,7.43281321 33.368587,10.1529066 44.1224444,0 C44.1224444,6.48394344 44.5968792,12.9046289 45.703894,19.1671694 C45.8936679,20.2741841 46.3048448,21.2863119 46.5895058,22.3616976 C45.609007,24.5440981 30.9647835,46.6211348 18.0285257,44.8499112 Z"></path>
                </g>
                <g transform="translate(39.371770, 0.118609)" fill="#FFFFFF" id="Path">
                    <path d="M0.12651597,9.39381074 C1.80285257,8.12865104 8.31842499,2.81498032 9.99476159,1.51819163 C10.5640835,1.07538574 11.1017763,0.442805893 11.6710982,0.0948869771 C11.8925011,-0.0316289924 12.366936,0.253031939 12.525081,0.569321863 C13.2525478,2.21402947 12.7148549,4.9657518 12.588339,6.67371739 C11.8292431,12.2087911 10.5324545,19.7997492 8.41331197,25.3664519 C8.38168298,25.4297099 7.62258716,27.2958204 7.4644422,27.5804814 C7.14815228,26.5367246 6.76860437,25.4929679 6.57883041,24.3859531 C5.44018669,18.1866706 0.12651597,15.9093832 0.12651597,9.39381074 Z"></path>
                </g>
            </g>
            <g id="Group" transform="translate(225.365523, 169.301376) rotate(2.705327) translate(-225.365523, -169.301376) translate(192.629516, 123.439337)" fill-rule="nonzero">
                <g transform="translate(0.139168, 0.567740)" fill="#1E2D48" id="Path">
                    <path d="M39.5362405,0 C39.5362405,0 37.7966459,13.6953537 24.733872,31.2810735 C11.6710982,48.8667932 0.0316289924,58.07083 0.0316289924,58.07083 C17.8703807,65.3138693 36.9426631,91.0282401 36.9426631,91.0282401 C98.5243112,44.4387343 39.5362405,0 39.5362405,0 Z"></path>
                </g>
                <g transform="translate(37.005921, 0.000000)" fill="#1C2940" id="Path">
                    <path d="M2.18240047,0.0948869771 C2.18240047,0.0948869771 61.7714221,47.6965205 0.0948869771,91.6608199 C0.0948869771,91.6608199 47.5700045,54.8130438 2.18240047,0.0948869771 Z"></path>
                </g>
            </g>
        </g>
    </g>
</svg>