<?xml version="1.0" standalone="no"?>
<!DOCTYPE svg PUBLIC "-//W3C//DTD SVG 1.1//EN"
   "http://www.w3.org/Graphics/SVG/1.1/DTD/svg11.dtd">
<svg width="244" height="50" version="1.1"
   xmlns="http://www.w3.org/2000/svg">
   <desc>LBEPR0XWQ0005P KS4K
   </desc>

   <g id="barcode" fill="#000000">
      <rect x="0" y="0" width="244" height="50" fill="#FFFFFF" />
      <rect x="0.00" y="0.00" width="2.00" height="50.00" />
      <rect x="3.00" y="0.00" width="1.00" height="50.00" />
      <rect x="6.00" y="0.00" width="1.00" height="50.00" />
      <rect x="11.00" y="0.00" width="1.00" height="50.00" />
      <rect x="15.00" y="0.00" width="2.00" height="50.00" />
      <rect x="18.00" y="0.00" width="3.00" height="50.00" />
      <rect x="22.00" y="0.00" width="1.00" height="50.00" />
      <rect x="26.00" y="0.00" width="1.00" height="50.00" />
      <rect x="28.00" y="0.00" width="2.00" height="50.00" />
      <rect x="33.00" y="0.00" width="1.00" height="50.00" />
      <rect x="37.00" y="0.00" width="2.00" height="50.00" />
      <rect x="40.00" y="0.00" width="1.00" height="50.00" />
      <rect x="44.00" y="0.00" width="3.00" height="50.00" />
      <rect x="48.00" y="0.00" width="3.00" height="50.00" />
      <rect x="52.00" y="0.00" width="2.00" height="50.00" />
      <rect x="55.00" y="0.00" width="2.00" height="50.00" />
      <rect x="60.00" y="0.00" width="1.00" height="50.00" />
      <rect x="62.00" y="0.00" width="3.00" height="50.00" />
      <rect x="66.00" y="0.00" width="1.00" height="50.00" />
      <rect x="69.00" y="0.00" width="3.00" height="50.00" />
      <rect x="73.00" y="0.00" width="2.00" height="50.00" />
      <rect x="77.00" y="0.00" width="3.00" height="50.00" />
      <rect x="83.00" y="0.00" width="1.00" height="50.00" />
      <rect x="85.00" y="0.00" width="2.00" height="50.00" />
      <rect x="88.00" y="0.00" width="3.00" height="50.00" />
      <rect x="92.00" y="0.00" width="1.00" height="50.00" />
      <rect x="96.00" y="0.00" width="2.00" height="50.00" />
      <rect x="99.00" y="0.00" width="2.00" height="50.00" />
      <rect x="102.00" y="0.00" width="1.00" height="50.00" />
      <rect x="106.00" y="0.00" width="3.00" height="50.00" />
      <rect x="110.00" y="0.00" width="1.00" height="50.00" />
      <rect x="112.00" y="0.00" width="3.00" height="50.00" />
      <rect x="116.00" y="0.00" width="4.00" height="50.00" />
      <rect x="121.00" y="0.00" width="2.00" height="50.00" />
      <rect x="124.00" y="0.00" width="2.00" height="50.00" />
      <rect x="128.00" y="0.00" width="2.00" height="50.00" />
      <rect x="132.00" y="0.00" width="1.00" height="50.00" />
      <rect x="136.00" y="0.00" width="1.00" height="50.00" />
      <rect x="139.00" y="0.00" width="2.00" height="50.00" />
      <rect x="143.00" y="0.00" width="1.00" height="50.00" />
      <rect x="145.00" y="0.00" width="4.00" height="50.00" />
      <rect x="150.00" y="0.00" width="3.00" height="50.00" />
      <rect x="154.00" y="0.00" width="3.00" height="50.00" />
      <rect x="158.00" y="0.00" width="3.00" height="50.00" />
      <rect x="162.00" y="0.00" width="2.00" height="50.00" />
      <rect x="165.00" y="0.00" width="2.00" height="50.00" />
      <rect x="168.00" y="0.00" width="2.00" height="50.00" />
      <rect x="172.00" y="0.00" width="2.00" height="50.00" />
      <rect x="176.00" y="0.00" width="1.00" height="50.00" />
      <rect x="178.00" y="0.00" width="2.00" height="50.00" />
      <rect x="183.00" y="0.00" width="3.00" height="50.00" />
      <rect x="187.00" y="0.00" width="2.00" height="50.00" />
      <rect x="190.00" y="0.00" width="3.00" height="50.00" />
      <rect x="194.00" y="0.00" width="1.00" height="50.00" />
      <rect x="198.00" y="0.00" width="2.00" height="50.00" />
      <rect x="202.00" y="0.00" width="1.00" height="50.00" />
      <rect x="205.00" y="0.00" width="3.00" height="50.00" />
      <rect x="209.00" y="0.00" width="1.00" height="50.00" />
      <rect x="211.00" y="0.00" width="2.00" height="50.00" />
      <rect x="216.00" y="0.00" width="3.00" height="50.00" />
      <rect x="220.00" y="0.00" width="1.00" height="50.00" />
      <rect x="222.00" y="0.00" width="1.00" height="50.00" />
      <rect x="227.00" y="0.00" width="2.00" height="50.00" />
      <rect x="231.00" y="0.00" width="2.00" height="50.00" />
      <rect x="236.00" y="0.00" width="3.00" height="50.00" />
      <rect x="240.00" y="0.00" width="1.00" height="50.00" />
      <rect x="242.00" y="0.00" width="2.00" height="50.00" />
   </g>
</svg>
