<?xml version="1.0" encoding="utf-8"?>
<!-- Generator: Adobe Illustrator 23.0.4, SVG Export Plug-In . SVG Version: 6.00 Build 0)  -->
<svg version="1.1" id="Layer_1" xmlns="http://www.w3.org/2000/svg" xmlns:xlink="http://www.w3.org/1999/xlink" x="0px" y="0px"
	 viewBox="0 0 512 512" style="enable-background:new 0 0 512 512;" xml:space="preserve">
<style type="text/css">
	.st0{display:none;}
	.st1{display:inline;}
	.st2{display:inline;clip-path:url(#SVGID_2_);}
	.st3{display:inline;clip-path:url(#SVGID_4_);}
	.st4{display:inline;clip-path:url(#SVGID_6_);}
	.st5{display:inline;fill-rule:evenodd;clip-rule:evenodd;fill:#040000;}
	.st6{clip-path:url(#SVGID_8_);}
	.st7{clip-path:url(#SVGID_10_);}
	.st8{clip-path:url(#SVGID_12_);fill-rule:evenodd;clip-rule:evenodd;}
	.st9{clip-path:url(#SVGID_14_);fill-rule:evenodd;clip-rule:evenodd;}
	.st10{display:inline;fill:#040000;}
</style>
<g class="st0">
	<defs>
		<rect id="SVGID_1_" x="41" y="41" width="430" height="430"/>
	</defs>
	<clipPath id="SVGID_2_" class="st1">
		<use xlink:href="#SVGID_1_"  style="overflow:visible;"/>
	</clipPath>
	<path class="st2" d="M441.2,73.5c-41.5-41.2-99.6-43.5-138.1-5.3L276,95.1c-10.4,10.4-10.5,27.2-0.1,37.7s27.2,10.5,37.7,0.1
		l27.1-26.9c19.9-19.8,46-11.6,63,5.3c9.1,9,14.1,20.9,14.1,33.6c0,12.7-5,24.6-14,33.6l-85.4,84.8c-39.1,38.8-57.4,20.6-65.2,12.8
		c-10.4-10.4-27.3-10.3-37.7,0.1c-10.4,10.4-10.3,27.3,0.1,37.7c17.9,17.8,38.4,26.6,59.9,26.6c26.3,0,54-13.2,80.4-39.4l85.4-84.8
		c19.2-19.1,29.8-44.5,29.8-71.5C471,117.9,460.4,92.6,441.2,73.5z M198.5,382.2l-21.8,21.6c-18.9,18.7-49.5,18.7-68.4,0
		c-9.1-9-14-20.9-14-33.6s5-24.6,14-33.6l80.1-79.5c16.6-16.5,47.8-40.7,70.6-18.1c10.4,10.4,27.3,10.3,37.7-0.1
		c10.4-10.4,10.3-27.3-0.1-37.7c-38.7-38.4-95.9-31.3-145.7,18.1l-80.1,79.5C51.6,317.8,41,343.1,41,370.1c0,27,10.6,52.4,29.8,71.4
		c19.8,19.6,45.7,29.4,71.7,29.4c26,0,52-9.8,71.7-29.4L236,420c10.4-10.4,10.5-27.2,0.1-37.7C225.8,371.8,208.9,371.8,198.5,382.2z
		"/>
</g>
<g id="Skype" class="st0">
	<defs>
		<rect id="SVGID_3_" y="-1" width="512" height="512"/>
	</defs>
	<clipPath id="SVGID_4_" class="st1">
		<use xlink:href="#SVGID_3_"  style="overflow:visible;"/>
	</clipPath>
	<path class="st3" d="M366.9,368.9c-9.8,13.8-24.2,24.8-43,32.6c-18.6,7.7-40.8,11.6-66.1,11.6c-30.4,0-55.9-5.4-75.8-15.9
		c-14.2-7.7-25.9-18.1-34.8-30.9c-9-12.9-13.5-25.8-13.5-38.2c0-7.7,3-14.5,8.8-20c5.8-5.5,13.2-8.2,22.1-8.2
		c7.3,0,13.5,2.2,18.6,6.5c4.9,4.1,9,10.3,12.4,18.1c3.8,8.6,7.8,15.9,12.2,21.5c4.2,5.5,10.1,10.1,17.7,13.7
		c7.7,3.6,18,5.5,30.7,5.5c17.5,0,31.9-3.7,42.6-11.1c10.5-7.2,15.6-15.8,15.6-26.4c0-8.4-2.7-14.9-8.1-20.1
		c-5.8-5.4-13.4-9.6-22.6-12.5c-9.6-3-22.7-6.2-38.8-9.6c-22-4.7-40.6-10.3-55.5-16.6c-15.2-6.5-27.4-15.4-36.4-26.6
		c-9.1-11.4-13.7-25.6-13.7-42.4c0-16,4.8-30.4,14.4-42.8c9.5-12.3,23.3-22,41.1-28.5c17.5-6.5,38.4-9.8,62.1-9.8
		c18.9,0,35.5,2.2,49.4,6.5c14,4.3,25.7,10.2,34.9,17.4c9.3,7.3,16.2,15,20.6,23.1c4.4,8.1,6.6,16.3,6.6,24.1
		c0,7.6-2.9,14.4-8.7,20.4c-5.8,6-13.1,9.1-21.7,9.1c-7.8,0-14-1.9-18.2-5.7c-4-3.5-8.1-9-12.6-16.8c-5.3-10-11.7-17.9-19-23.5
		c-7.1-5.4-19-8.1-35.3-8.1c-15.2,0-27.5,3-36.7,9.1c-8.8,5.8-13.1,12.4-13.1,20.3c0,4.8,1.4,8.8,4.3,12.3c3,3.7,7.3,6.9,12.6,9.6
		c5.6,2.8,11.3,5,17,6.6c5.9,1.6,15.7,4.1,29.3,7.2c17.1,3.7,32.9,7.8,46.8,12.3c14.1,4.5,26.3,10.1,36.2,16.5
		c10.1,6.6,18.2,15.1,23.9,25.2c5.7,10.2,8.6,22.7,8.6,37.3C381.7,339.1,376.7,355,366.9,368.9z M465.1,313.1
		c3.2-14.7,4.9-29.8,4.9-45.4c0-116.8-94.7-211.6-211.6-211.6c-12.3,0-24.4,1.1-36.2,3.1c-18.9-11.9-41.3-18.8-65.3-18.8
		c-67.8,0-122.7,54.9-122.7,122.7c0,22.6,6.2,43.8,16.9,62.1c-2.8,13.7-4.3,28-4.3,42.5c0,116.9,94.7,211.6,211.6,211.6
		c13.2,0,26.2-1.2,38.7-3.5c17.3,9.3,37,14.5,58,14.5c67.8,0,122.7-54.9,122.7-122.7C477.8,348.1,473.2,329.6,465.1,313.1z"/>
</g>
<g id="FB_Messager" class="st0">
	<defs>
		<rect id="SVGID_5_" x="66" y="66" width="380" height="380"/>
	</defs>
	<clipPath id="SVGID_6_" class="st1">
		<use xlink:href="#SVGID_5_"  style="overflow:visible;"/>
	</clipPath>
	<path class="st4" d="M274.9,302.9l-48.4-51.6l-94.4,51.6l103.9-110.2l49.6,51.6l93.2-51.6L274.9,302.9L274.9,302.9z M256,66
		C151.1,66,66,144.8,66,241.9c0,55.4,27.6,104.7,70.8,137V446l64.7-35.5c17.3,4.7,35.6,7.3,54.5,7.3c104.9,0,190-78.8,190-175.9
		S360.9,66,256,66z"/>
</g>
<g id="Telegram_1_" class="st0">
	<path id="Telegram" class="st5" d="M362.4,419c5.4,3.8,12.3,4.7,18.4,2.4c6.2-2.3,10.7-7.6,12.1-14
		c14.5-68.1,49.6-240.3,62.8-302.3c1-4.7-0.7-9.5-4.3-12.6c-3.7-3.1-8.7-4-13.3-2.3C368.2,116,153,196.8,65,229.3
		c-5.6,2.1-9.2,7.4-9,13.3c0.2,5.9,4.2,11,9.9,12.7c39.4,11.8,91.2,28.2,91.2,28.2s24.2,73.1,36.8,110.2c1.6,4.7,5.2,8.3,10,9.6
		c4.8,1.2,9.9-0.1,13.5-3.4c20.3-19.1,51.6-48.7,51.6-48.7S328.6,394.9,362.4,419z M178.9,274.4l28,92.3l6.2-58.4
		c0,0,108.1-97.5,169.7-153.1c1.8-1.6,2-4.4,0.5-6.3c-1.5-1.9-4.2-2.4-6.3-1.1C305.7,193.4,178.9,274.4,178.9,274.4z"/>
</g>
<g id="We_Chat">
	<g>
		<defs>
			<rect id="SVGID_7_" width="512" height="512"/>
		</defs>
		<clipPath id="SVGID_8_">
			<use xlink:href="#SVGID_7_"  style="overflow:visible;"/>
		</clipPath>
		<path class="st6" d="M254.9,149.9c-10.2,0.2-18.8,8.9-18.6,18.8c0.2,10.3,8.6,18.3,19.1,18.2c10.5-0.1,18.5-8.2,18.4-18.7
			C273.7,157.9,265.3,149.8,254.9,149.9z M155.8,169c0.4-9.9-8.2-18.7-18.3-19c-10.4-0.3-18.9,7.6-19.2,17.9
			c-0.3,10.4,7.6,18.7,18.1,19C146.7,187,155.4,179.1,155.8,169z M345.8,185.8c-41.3,2.2-77.2,14.7-106.3,42.9
			c-29.4,28.6-42.9,63.6-39.2,107c-16.1-2-30.8-4.2-45.6-5.4c-5.1-0.4-11.2,0.2-15.5,2.6c-14.4,8.1-28.1,17.2-44.4,27.4
			c3-13.5,4.9-25.4,8.4-36.8c2.5-8.4,1.4-13-6.4-18.5c-49.6-35-70.4-87.4-54.8-141.3c14.5-49.9,50-80.1,98.2-95.9
			c65.9-21.5,139.9,0.4,180,52.7C334.6,139.5,343.5,160.7,345.8,185.8z"/>
	</g>
	<g>
		<defs>
			<rect id="SVGID_9_" width="512" height="512"/>
		</defs>
		<clipPath id="SVGID_10_">
			<use xlink:href="#SVGID_9_"  style="overflow:visible;"/>
		</clipPath>
		<path class="st7" d="M385.7,268.4c-8.1-0.1-14.9,6.6-15.3,14.7c-0.3,8.7,6.4,15.9,15.1,15.9c8.4,0,14.9-6.3,15.3-14.6
			C401,275.6,394.3,268.4,385.7,268.4z M289.7,299.1c8.3,0,15.2-6.5,15.5-14.7c0.3-8.7-6.7-16-15.4-16c-8.6,0-15.9,7.4-15.6,15.9
			C274.6,292.5,281.5,299.1,289.7,299.1z M438.5,443.2c-13.1-5.8-25.1-14.6-37.8-15.9c-12.7-1.3-26.1,6-39.4,7.4
			c-40.5,4.1-76.8-7.1-106.8-34.8c-56.9-52.7-48.8-133.4,17.1-176.6c58.6-38.4,144.4-25.6,185.7,27.7c36,46.4,31.8,108.1-12.2,147.1
			c-12.7,11.3-17.3,20.6-9.1,35.5C437.5,436.2,437.7,439.7,438.5,443.2z"/>
	</g>
</g>
<g id="Whatsapp" class="st0">
	<g class="st1">
		<defs>
			<rect id="SVGID_11_" x="36" y="36" width="440" height="440"/>
		</defs>
		<clipPath id="SVGID_12_">
			<use xlink:href="#SVGID_11_"  style="overflow:visible;"/>
		</clipPath>
		<path class="st8" d="M260.7,413.3L260.7,413.3c-28.6,0-56.5-7.7-80.9-22.2l-5.8-3.4l-60.1,15.8l16.1-58.6l-3.8-6
			c-15.9-25.3-24.3-54.5-24.3-84.6c0-87.6,71.3-158.9,159-158.9c42.4,0,82.3,16.6,112.3,46.6c30,30,46.5,70,46.5,112.4
			C419.6,342,348.3,413.3,260.7,413.3z M396,119.2C359.9,83,311.9,63.1,260.7,63.1c-105.4,0-191.2,85.8-191.2,191.2
			c0,33.7,8.8,66.6,25.5,95.6l-27.1,99.1l101.4-26.6c27.9,15.2,59.4,23.3,91.4,23.3h0.1c0,0,0,0,0,0c105.4,0,191.2-85.8,191.2-191.2
			C451.9,203.3,432.1,155.3,396,119.2z"/>
	</g>
	<g class="st1">
		<defs>
			<rect id="SVGID_13_" x="36" y="36" width="440" height="440"/>
		</defs>
		<clipPath id="SVGID_14_">
			<use xlink:href="#SVGID_13_"  style="overflow:visible;"/>
		</clipPath>
		<path class="st9" d="M347.9,294.3c-4.8-2.4-28.3-13.9-32.6-15.5c-4.4-1.6-7.6-2.4-10.7,2.4c-3.2,4.8-12.3,15.5-15.1,18.7
			c-2.8,3.2-5.6,3.6-10.4,1.2c-4.8-2.4-20.2-7.4-38.4-23.7c-14.2-12.7-23.8-28.3-26.6-33.1c-2.8-4.8-0.3-7.4,2.1-9.7
			c2.1-2.1,4.8-5.6,7.2-8.4c2.4-2.8,3.2-4.8,4.8-8c1.6-3.2,0.8-6-0.4-8.4c-1.2-2.4-10.7-25.9-14.7-35.5c-3.9-9.3-7.8-8.1-10.7-8.2
			c-2.8-0.1-6-0.2-9.2-0.2s-8.4,1.2-12.7,6c-4.4,4.8-16.7,16.3-16.7,39.9c0,23.5,17.1,46.2,19.5,49.4c2.4,3.2,33.7,51.4,81.6,72.1
			c11.4,4.9,20.3,7.9,27.2,10.1c11.4,3.6,21.9,3.1,30.1,1.9c9.2-1.4,28.3-11.6,32.2-22.7c4-11.2,4-20.7,2.8-22.7
			C355.8,297.9,352.7,296.7,347.9,294.3z"/>
	</g>
</g>
<g id="Line" class="st0">
	<path class="st10" d="M445.1,213.8L445.1,213.8l-0.1-1c0,0,0,0,0,0c0,0,0,0,0,0l-0.4-3.7c-0.1-0.7-0.2-1.6-0.3-2.5l-0.1-0.8l-0.2,0
		c-4.6-26.4-17.4-51.4-37.1-72.7c-19.6-21.3-45.1-38-73.7-48.5c-24.5-9-50.5-13.6-77.3-13.6c-36.2,0-71.3,8.5-101.6,24.6
		c-58.4,31-92.8,88.1-87.7,145.3c2.6,29.6,14.2,57.8,33.6,81.5c18.2,22.3,42.8,40.3,71.1,52.1c17.4,7.2,34.7,10.6,52.9,14.2l2.1,0.4
		c5,1,6.4,2.4,6.7,2.9c0.6,1,0.3,3,0,4.1c-0.2,1-0.5,2-0.7,3c-2,8-4,16.3-2.4,25.4c1.8,10.5,8.4,16.5,17.9,16.5c0,0,0,0,0,0
		c10.3,0,22-6.9,29.8-11.5l1-0.6c18.5-10.9,35.9-23.1,49-32.6c28.7-20.7,61.2-44.2,85.6-74.5C437.9,291.2,449.4,251.9,445.1,213.8z
		 M184.3,271.8h-32.8c-5,0-9-4-9-9V194c0-5,4-9,9-9s9,4,9,9v59.8h23.8c5,0,9,4,9,9C193.3,267.7,189.3,271.8,184.3,271.8z
		 M218.5,262.5c0,5-4,9-9,9s-9-4-9-9v-68.8c0-5,4-9,9-9s9,4,9,9V262.5z M299.6,262.5c0,3.9-2.5,7.3-6.2,8.5
		c-0.9,0.3-1.8,0.4-2.8,0.4c-2.8,0-5.5-1.3-7.3-3.7l-32.3-44.5v39.2c0,5-4,9-9,9s-9-4-9-9v-66.8c0-3.9,2.5-7.3,6.2-8.5
		c3.7-1.2,7.7,0.1,10,3.3l32.3,44.5v-41.2c0-5,4-9,9-9c5,0,9,4,9,9V262.5z M365,270.1h-44.4c-5,0-9-4-9-9v-34.4v-34.4c0-5,4-9,9-9
		h43c5,0,9,4,9,9s-4,9-9,9h-34v16.5h27.6c5,0,9,4,9,9s-4,9-9,9h-27.6v16.5H365c5,0,9,4,9,9C374,266.1,369.9,270.1,365,270.1z"/>
</g>
</svg>
