<?xml version="1.0" standalone="no"?>
<!DOCTYPE svg PUBLIC "-//W3C//DTD SVG 1.1//EN"
   "http://www.w3.org/Graphics/SVG/1.1/DTD/svg11.dtd">
<svg width="233" height="59" version="1.1"
   xmlns="http://www.w3.org/2000/svg">
   <desc>*TYPA92NMT6NIMD78*
   </desc>

   <g id="barcode" fill="#000000">
      <rect x="0" y="0" width="233" height="59" fill="#FFFFFF" />
      <rect x="0.00" y="0.00" width="1.00" height="50.00" />
      <rect x="3.00" y="0.00" width="1.00" height="50.00" />
      <rect x="5.00" y="0.00" width="2.00" height="50.00" />
      <rect x="8.00" y="0.00" width="2.00" height="50.00" />
      <rect x="11.00" y="0.00" width="1.00" height="50.00" />
      <rect x="13.00" y="0.00" width="1.00" height="50.00" />
      <rect x="15.00" y="0.00" width="1.00" height="50.00" />
      <rect x="17.00" y="0.00" width="2.00" height="50.00" />
      <rect x="20.00" y="0.00" width="2.00" height="50.00" />
      <rect x="24.00" y="0.00" width="1.00" height="50.00" />
      <rect x="26.00" y="0.00" width="2.00" height="50.00" />
      <rect x="30.00" y="0.00" width="1.00" height="50.00" />
      <rect x="32.00" y="0.00" width="2.00" height="50.00" />
      <rect x="35.00" y="0.00" width="1.00" height="50.00" />
      <rect x="37.00" y="0.00" width="1.00" height="50.00" />
      <rect x="39.00" y="0.00" width="1.00" height="50.00" />
      <rect x="41.00" y="0.00" width="2.00" height="50.00" />
      <rect x="44.00" y="0.00" width="2.00" height="50.00" />
      <rect x="47.00" y="0.00" width="1.00" height="50.00" />
      <rect x="50.00" y="0.00" width="1.00" height="50.00" />
      <rect x="52.00" y="0.00" width="2.00" height="50.00" />
      <rect x="55.00" y="0.00" width="1.00" height="50.00" />
      <rect x="57.00" y="0.00" width="1.00" height="50.00" />
      <rect x="60.00" y="0.00" width="1.00" height="50.00" />
      <rect x="62.00" y="0.00" width="2.00" height="50.00" />
      <rect x="65.00" y="0.00" width="1.00" height="50.00" />
      <rect x="67.00" y="0.00" width="2.00" height="50.00" />
      <rect x="71.00" y="0.00" width="1.00" height="50.00" />
      <rect x="73.00" y="0.00" width="2.00" height="50.00" />
      <rect x="76.00" y="0.00" width="1.00" height="50.00" />
      <rect x="78.00" y="0.00" width="1.00" height="50.00" />
      <rect x="80.00" y="0.00" width="2.00" height="50.00" />
      <rect x="84.00" y="0.00" width="1.00" height="50.00" />
      <rect x="86.00" y="0.00" width="1.00" height="50.00" />
      <rect x="88.00" y="0.00" width="2.00" height="50.00" />
      <rect x="91.00" y="0.00" width="1.00" height="50.00" />
      <rect x="93.00" y="0.00" width="1.00" height="50.00" />
      <rect x="95.00" y="0.00" width="2.00" height="50.00" />
      <rect x="98.00" y="0.00" width="1.00" height="50.00" />
      <rect x="101.00" y="0.00" width="2.00" height="50.00" />
      <rect x="104.00" y="0.00" width="2.00" height="50.00" />
      <rect x="107.00" y="0.00" width="2.00" height="50.00" />
      <rect x="110.00" y="0.00" width="1.00" height="50.00" />
      <rect x="112.00" y="0.00" width="1.00" height="50.00" />
      <rect x="115.00" y="0.00" width="1.00" height="50.00" />
      <rect x="117.00" y="0.00" width="1.00" height="50.00" />
      <rect x="119.00" y="0.00" width="1.00" height="50.00" />
      <rect x="121.00" y="0.00" width="2.00" height="50.00" />
      <rect x="124.00" y="0.00" width="2.00" height="50.00" />
      <rect x="128.00" y="0.00" width="1.00" height="50.00" />
      <rect x="130.00" y="0.00" width="1.00" height="50.00" />
      <rect x="132.00" y="0.00" width="2.00" height="50.00" />
      <rect x="136.00" y="0.00" width="2.00" height="50.00" />
      <rect x="139.00" y="0.00" width="1.00" height="50.00" />
      <rect x="141.00" y="0.00" width="1.00" height="50.00" />
      <rect x="143.00" y="0.00" width="1.00" height="50.00" />
      <rect x="145.00" y="0.00" width="1.00" height="50.00" />
      <rect x="147.00" y="0.00" width="2.00" height="50.00" />
      <rect x="150.00" y="0.00" width="1.00" height="50.00" />
      <rect x="153.00" y="0.00" width="2.00" height="50.00" />
      <rect x="156.00" y="0.00" width="1.00" height="50.00" />
      <rect x="158.00" y="0.00" width="2.00" height="50.00" />
      <rect x="161.00" y="0.00" width="1.00" height="50.00" />
      <rect x="164.00" y="0.00" width="2.00" height="50.00" />
      <rect x="167.00" y="0.00" width="1.00" height="50.00" />
      <rect x="169.00" y="0.00" width="2.00" height="50.00" />
      <rect x="172.00" y="0.00" width="2.00" height="50.00" />
      <rect x="175.00" y="0.00" width="1.00" height="50.00" />
      <rect x="177.00" y="0.00" width="1.00" height="50.00" />
      <rect x="180.00" y="0.00" width="1.00" height="50.00" />
      <rect x="182.00" y="0.00" width="1.00" height="50.00" />
      <rect x="184.00" y="0.00" width="1.00" height="50.00" />
      <rect x="186.00" y="0.00" width="2.00" height="50.00" />
      <rect x="190.00" y="0.00" width="1.00" height="50.00" />
      <rect x="192.00" y="0.00" width="2.00" height="50.00" />
      <rect x="195.00" y="0.00" width="1.00" height="50.00" />
      <rect x="197.00" y="0.00" width="1.00" height="50.00" />
      <rect x="200.00" y="0.00" width="1.00" height="50.00" />
      <rect x="202.00" y="0.00" width="2.00" height="50.00" />
      <rect x="205.00" y="0.00" width="2.00" height="50.00" />
      <rect x="208.00" y="0.00" width="2.00" height="50.00" />
      <rect x="211.00" y="0.00" width="1.00" height="50.00" />
      <rect x="214.00" y="0.00" width="1.00" height="50.00" />
      <rect x="216.00" y="0.00" width="2.00" height="50.00" />
      <rect x="219.00" y="0.00" width="1.00" height="50.00" />
      <rect x="221.00" y="0.00" width="1.00" height="50.00" />
      <rect x="224.00" y="0.00" width="1.00" height="50.00" />
      <rect x="226.00" y="0.00" width="2.00" height="50.00" />
      <rect x="229.00" y="0.00" width="2.00" height="50.00" />
      <rect x="232.00" y="0.00" width="1.00" height="50.00" />
      <text x="116.50" y="59.00" text-anchor="middle"
         font-family="Helvetica" font-size="8.0" fill="#000000" >
         *TYPA92NMT6NIMD78*
      </text>
   </g>
</svg>
