<svg enable-background="new 0 0 15 15" viewBox="0 0 15 15" xmlns="http://www.w3.org/2000/svg" xmlns:xlink="http://www.w3.org/1999/xlink"><clipPath id="a"><path d="m13.9 5.3c.4.4.4.9 0 1.3l-7.2 7.2c-.4.4-.9.4-1.3 0l-4.3-4.1c-.4-.4-.4-.9 0-1.3l7.2-7.2c.4-.4.9-.4 1.3 0zm-6.1-4.8-7.3 7.3c-.7.7-.7 1.8 0 2.5l4.2 4.2c.7.7 1.8.7 2.5 0l7.2-7.2c.7-.7.7-1.8 0-2.5l-4.2-4.2c-.6-.8-1.7-.8-2.4-.1z"/></clipPath><clipPath id="b"><path d="m-812.6-745.5h1169.9v1879.9h-1169.9z"/></clipPath><clipPath id="c"><path d="m2.9 9 1.8-1.8 1.3 1.2-1.8 1.8zm1.8 1.9 1.9-1.9c.3-.3.3-.8 0-1.2l-1.3-1.3c-.3-.3-.8-.3-1.1 0l-1.9 1.9c-.3.4-.3.9 0 1.2l1.3 1.3c.3.3.8.3 1.1 0z"/></clipPath><clipPath id="d"><path d="m-812.6-745.5h1169.9v1879.9h-1169.9z"/></clipPath><clipPath id="e"><path d="m11.8 5.1-6.7 6.7c-.2.2-.2.4 0 .6s.4.2.6 0l6.7-6.7c.2-.2.2-.4 0-.6s-.5-.2-.6 0z"/></clipPath><clipPath id="f"><path d="m-812.6-745.5h1169.9v1879.9h-1169.9z"/></clipPath><clipPath id="g"><path d="m9.9 3.2-3 3.1c-.2.2-.2.4 0 .6s.4.2.6 0l3.1-3.1c.2-.2.2-.4 0-.6-.2-.1-.5-.1-.7 0z"/></clipPath><clipPath id="h"><path d="m-812.6-745.5h1169.9v1879.9h-1169.9z"/></clipPath><g clip-path="url(#a)"><path clip-path="url(#b)" d="m-3.5-1.3h21.9v17.6h-21.9z" fill="#fff" transform="matrix(.7071 -.7071 .7071 .7071 -3.1071 7.5)"/></g><g clip-path="url(#c)"><path clip-path="url(#d)" d="m-1.8 2.9h12.4v11.6h-12.4z" fill="#fff" transform="matrix(.7071 -.7071 .7071 .7071 -4.863 5.7003)"/></g><g clip-path="url(#e)"><path clip-path="url(#f)" d="m-.5 4.2h18.5v9h-18.5z" fill="#fff" transform="matrix(.7071 -.7071 .7071 .7071 -3.6118 8.7211)"/></g><g clip-path="url(#g)"><path clip-path="url(#h)" d="m2.1.6h13.3v9h-13.3z" fill="#fff" transform="matrix(.7071 -.7071 .7071 .7071 -1.022 7.6492)"/></g></svg>