<?xml version="1.0" encoding="utf-8"?>
<!-- Generator: Adobe Illustrator 22.1.0, SVG Export Plug-In . SVG Version: 6.00 Build 0)  -->
<svg version="1.1" id="Layer_1" xmlns="http://www.w3.org/2000/svg" xmlns:xlink="http://www.w3.org/1999/xlink" x="0px" y="0px"
	 viewBox="0 0 28 24" style="enable-background:new 0 0 28 24;" xml:space="preserve">
<style type="text/css">
	.st0{clip-path:url(#SVGID_2_);}
	.st1{clip-path:url(#SVGID_4_);fill:#666666;}
	.st2{clip-path:url(#SVGID_6_);}
	.st3{clip-path:url(#SVGID_8_);fill:#666666;}
</style>
<g>
	<g>
		<defs>
			<path id="SVGID_1_" d="M22.3,7.8c-0.3-1.7-1.1-3.2-2.4-4.4c-1.4-1.3-3.2-2-5.1-2c-1.5,0-2.9,0.4-4.1,1.2c-1,0.7-1.9,1.6-2.5,2.6
				c-0.3,0-0.5-0.1-0.8-0.1C5,5.2,3.1,7.1,3.1,9.4c0,0.3,0,0.6,0.1,0.9c-1.5,1.1-2.4,2.8-2.4,4.7c0,1.5,0.6,3,1.6,4.1
				c1,1.2,2.4,1.9,3.9,2c0,0,1.2,0,3.7,0c0.4,0,0.7-0.3,0.7-0.7s-0.3-0.7-0.7-0.7H6.4c-2.2-0.1-4.1-2.2-4.1-4.6c0-1.5,0.8-3,2.2-3.7
				c0.3-0.2,0.4-0.6,0.3-0.9C4.6,10,4.6,9.7,4.6,9.4c0-1.5,1.2-2.7,2.7-2.7c0.3,0,0.6,0.1,0.9,0.2C8.6,7,9,6.8,9.2,6.5
				c1-2.2,3.2-3.5,5.6-3.5c3.2,0,5.8,2.4,6.1,5.6c0,0.3,0.3,0.6,0.6,0.7c2.4,0.4,4.2,2.6,4.2,5.2c0,2.7-2.1,5-4.7,5.2h-3
				c-0.4,0-0.7,0.3-0.7,0.7c0,0.4,0.3,0.7,0.7,0.7h3c1.7-0.1,3.3-0.9,4.4-2.1c1.1-1.3,1.8-2.9,1.8-4.6C27.2,11.3,25.1,8.6,22.3,7.8z
				"/>
		</defs>
		<clipPath id="SVGID_2_">
			<use xlink:href="#SVGID_1_"  style="overflow:visible;"/>
		</clipPath>
		<g class="st0">
			<defs>
				<rect id="SVGID_3_" x="0.8" y="1.4" width="27" height="20"/>
			</defs>
			<clipPath id="SVGID_4_">
				<use xlink:href="#SVGID_3_"  style="overflow:visible;"/>
			</clipPath>
			<rect x="-4.2" y="-3.5" class="st1" width="36.4" height="29.6"/>
		</g>
	</g>
	<g>
		<defs>
			<path id="SVGID_5_" d="M18.4,15.6c0.3-0.3,0.3-0.7,0-1l-3.9-3.9c-0.1-0.1-0.3-0.2-0.5-0.2s-0.4,0.1-0.5,0.2l-3.9,3.9
				c-0.3,0.3-0.3,0.7,0,1c0.1,0.1,0.3,0.2,0.5,0.2s0.4-0.1,0.5-0.2l2.6-2.6v8.8c0,0.4,0.3,0.7,0.7,0.7c0.4,0,0.7-0.3,0.7-0.7V13
				l2.6,2.6C17.6,15.9,18.1,15.9,18.4,15.6z"/>
		</defs>
		<clipPath id="SVGID_6_">
			<use xlink:href="#SVGID_5_"  style="overflow:visible;"/>
		</clipPath>
		<g class="st2">
			<defs>
				<rect id="SVGID_7_" x="8.8" y="10.4" width="10" height="13"/>
			</defs>
			<clipPath id="SVGID_8_">
				<use xlink:href="#SVGID_7_"  style="overflow:visible;"/>
			</clipPath>
			<rect x="4.4" y="5.5" class="st3" width="19.2" height="22"/>
		</g>
	</g>
</g>
</svg>
